<?xml version="1.0" standalone="no"?>
<!DOCTYPE svg PUBLIC "-//W3C//DTD SVG 1.1//EN" "http://www.w3.org/Graphics/SVG/1.1/DTD/svg11.dtd" >
<svg xmlns="http://www.w3.org/2000/svg">
<metadata>
This is a custom SVG webfont generated by Font Squirrel.
Copyright   : 2004 T26 Digital Type Foundry wwwt26com PSID5134679 designer Neil Summerour  Positype
</metadata>
<defs>
<font id="AauxProUltraRegular" horiz-adv-x="1122" >
<font-face units-per-em="2048" ascent="1638" descent="-410" />
<missing-glyph horiz-adv-x="614" />
<glyph unicode=" "  horiz-adv-x="614" />
<glyph unicode="&#x09;" horiz-adv-x="614" />
<glyph unicode="&#xa0;" horiz-adv-x="614" />
<glyph unicode="!" horiz-adv-x="815" d="M195 188q0 88 62 150.5t150.5 62.5t151 -62.5t62.5 -150.5t-62.5 -150.5t-151 -62.5t-150.5 62.5t-62 150.5zM240 934v496h335v-496l-12 -420h-309z" />
<glyph unicode="&#x22;" horiz-adv-x="921" d="M113 1042v338q0 57 41 98.5t98 41.5q59 0 99 -41t40 -99v-338h-278zM530 1042v338q0 57 41 98.5t98.5 41.5t98.5 -41t41 -99v-338h-279z" />
<glyph unicode="#" horiz-adv-x="1474" d="M92 385l58 258h231l31 143h-232l58 261h231l84 380h266l-82 -380h146l84 380h266l-82 -380h231l-57 -261h-231l-31 -143h231l-57 -258h-231l-84 -383h-267l82 383h-145l-84 -383h-266l82 383h-232zM649 643h146l30 143h-145z" />
<glyph unicode="$" horiz-adv-x="1110" d="M92 434l254 70q41 -113 94 -148v269q-313 80 -313 333q0 141 88 244q86 96 225 127v115h262v-113q147 -41 293 -233l-217 -158q-25 35 -76 90v-199q315 -100 316 -364q0 -145 -86 -244.5t-230 -134.5v-131h-262v125q-242 47 -348 352zM383 967q0 -55 59 -80v176 q-59 -35 -59 -96zM705 350q61 39 61 111q0 59 -61 96v-207z" />
<glyph unicode="%" horiz-adv-x="1753" d="M115 1038q0 172 78 283q88 127 253 127q164 0 252 -127q78 -111 78 -283t-78 -282q-88 -127 -252 -127q-166 0 -253 127q-78 110 -78 282zM371 0l737 1430h291l-735 -1430h-293zM379 1038.5q0 -149.5 67.5 -149.5t67.5 149.5t-67.5 149.5t-67.5 -149.5zM995 389 q0 174 78 285q86 127 252 127t254 -127q76 -111 76 -285q0 -172 -76 -283q-88 -127 -254 -126.5t-252 126.5q-78 111 -78 283zM1257 389q0 -147 68 -147t68 147q0 150 -68 150t-68 -150z" />
<glyph unicode="&#x26;" horiz-adv-x="1470" d="M113 410q0 227 217 397q-63 80 -84 127q-33 66 -33 149q0 164 110.5 263.5t278.5 99.5t280.5 -101.5t112.5 -263.5q0 -193 -247 -346q47 -57 210 -225q49 69 50 198v11h305q-4 -279 -131 -422q78 -80 135 -133l-211 -209q-76 80 -125 127q-152 -104 -395 -105 q-203 0 -338 117t-135 316zM434 422q0 -76 58 -117q51 -41 135 -41q74 0 143 37q-141 131 -256 270q-80 -67 -80 -149zM514 1085q0 -55 61 -131q109 68 109 129q0 33 -25.5 58.5t-58.5 25.5q-37 0 -61.5 -23.5t-24.5 -58.5z" />
<glyph unicode="'" horiz-adv-x="503" d="M113 1042v338q0 57 41 98.5t98 41.5q59 0 99 -41t40 -99v-338h-278z" />
<glyph unicode="(" horiz-adv-x="868" d="M92 715q0 420 326 715h358q-395 -324 -395 -715q0 -182 76 -336q92 -186 315 -379h-354q-326 277 -326 715z" />
<glyph unicode=")" horiz-adv-x="868" d="M92 1430h359q326 -295 325 -715q0 -438 -325 -715h-355q223 193 316 379q76 154 75 336q0 391 -395 715z" />
<glyph unicode="*" horiz-adv-x="1005" d="M92 1096l74 227l223 -80l-6 238h240l-9 -238l226 80l73 -227l-229 -66l145 -188l-192 -142l-135 197l-133 -197l-193 142l146 188z" />
<glyph unicode="+" horiz-adv-x="1099" d="M92 442v236h340v340h236v-340h340v-236h-340v-340h-236v340h-340z" />
<glyph unicode="," horiz-adv-x="618" d="M133 197q0 82 58.5 137t138.5 55t138 -55t58 -137v-199l-192 -299h-201v498z" />
<glyph unicode="-" horiz-adv-x="851" d="M113 449v225h626v-225h-626z" />
<glyph unicode="." horiz-adv-x="692" d="M133 188q0 88 62.5 150.5t150.5 62.5t150.5 -62.5t62.5 -150.5t-62.5 -150.5t-150.5 -62.5t-150.5 62.5t-62.5 150.5z" />
<glyph unicode="/" horiz-adv-x="952" d="M-10 -160l672 1749h301l-670 -1749h-303z" />
<glyph unicode="0" horiz-adv-x="1302" d="M92 715q0 285 121 485q150 250 440 250q289 0 439 -248q119 -199 118.5 -483.5t-118.5 -482.5q-150 -252 -439 -252q-291 0 -440 247q-121 201 -121 484zM467 715q0 -152 37 -250q49 -129 149 -129q180 0 181 379q0 152 -37 252q-45 129 -144 129q-102 0 -149 -129 q-37 -98 -37 -252z" />
<glyph unicode="1" horiz-adv-x="872" d="M31 1147l426 283h262v-1430h-363v979l-153 -107z" />
<glyph unicode="2" horiz-adv-x="1185" d="M92 1145q178 303 481 303q211 0 353 -113q150 -123 149 -329q0 -162 -112 -283q-45 -49 -232 -184q-150 -106 -196 -199h559v-340h-985v213q0 207 153 385q82 94 287 244q156 113 156 164q0 99 -117 98h-15q-94 -4 -172 -154z" />
<glyph unicode="3" horiz-adv-x="1150" d="M72 336l325 129q55 -139 164 -139q61 0 102.5 35.5t41.5 93.5q0 84 -50 120q-55 41 -192 41v244q121 0 168 39q39 31 39 102q0 41 -36 70t-87 29q-100 0 -148 -113l-313 127q80 170 184 246q113 84 287 84q195 0 328 -121q141 -125 141 -322q0 -141 -102 -251 q135 -121 135 -295q0 -213 -139.5 -342t-350.5 -129q-364 0 -497 352z" />
<glyph unicode="4" horiz-adv-x="1216" d="M51 289v270l557 871h389l-532 -830h223v258l352 -31v-227h105v-311h-105v-289h-352v289h-637z" />
<glyph unicode="5" horiz-adv-x="1142" d="M72 377l338 115q53 -156 153 -156q76 0 117 55q39 49 39 127q0 76 -41 130t-115 54q-80 0 -155 -75h-275v803h844v-340h-528v-119q86 41 149 41q227 0 350 -134.5t123 -363.5q0 -240 -135 -380t-373 -140q-358 0 -491 383z" />
<glyph unicode="6" horiz-adv-x="1169" d="M72 535q0 262 120.5 500.5t331.5 394.5h437q-332 -268 -433 -480q39 6 86 6q211 0 347.5 -131t136.5 -342q0 -227 -140.5 -363t-370 -136t-374.5 161q-141 157 -141 390zM438 485q0 -59 44 -102t102 -43q61 0 104 45t43 104q0 63 -43 106.5t-108 43.5q-61 0 -101.5 -45.5 t-40.5 -108.5z" />
<glyph unicode="7" horiz-adv-x="1124" d="M72 989v441h1001v-281q-211 -262 -293 -531q-76 -246 -75 -618h-383q0 649 329 1100h-254v-111h-325z" />
<glyph unicode="8" horiz-adv-x="1198" d="M72 461q0 190 170 325q-115 106 -115 248q0 182 145 303q139 113 324 113q186 0 324 -113q147 -121 147 -303q0 -143 -113 -248q172 -135 172 -323q0 -219 -157 -354q-150 -129 -373 -129q-221 0 -369 126q-155 136 -155 355zM444 483q0 -61 46.5 -108t107.5 -47 q66 0 110 46t44 111q0 63 -46.5 110.5t-109.5 47.5q-61 0 -106.5 -48.5t-45.5 -111.5zM487 1014q0 -45 33 -78t76 -33q45 0 77 34t32 77t-32 75.5t-77 32.5q-43 0 -76 -31.5t-33 -76.5z" />
<glyph unicode="9" horiz-adv-x="1175" d="M72 936q0 229 143 370.5t371 141.5q231 0 374.5 -157.5t143.5 -389.5q0 -553 -428 -901h-471q311 211 450 469q-53 -10 -90 -10q-211 0 -352 134t-141 343zM436 944q0 -66 41 -108.5t104.5 -42.5t100.5 46t37 109q0 59 -41 102.5t-100.5 43.5t-100.5 -45.5t-41 -104.5z " />
<glyph unicode=":" horiz-adv-x="692" d="M133 188q0 88 62.5 150.5t150.5 62.5t150.5 -62.5t62.5 -150.5t-62.5 -150.5t-150.5 -62.5t-150.5 62.5t-62.5 150.5zM133 786q0 88 62.5 150.5t150.5 62.5t150.5 -62.5t62.5 -150.5t-62.5 -150.5t-150.5 -62.5t-150.5 62.5t-62.5 150.5z" />
<glyph unicode=";" horiz-adv-x="692" d="M133 786q0 88 62.5 150.5t150.5 62.5t150.5 -62.5t62.5 -150.5t-62.5 -150.5t-150.5 -62.5t-150.5 62.5t-62.5 150.5zM133 197q0 82 59.5 137t139.5 55q78 0 137 -55t59 -137v-199l-192 -299h-203v498z" />
<glyph unicode="&#x3c;" horiz-adv-x="1169" d="M92 715l586 715h399l-585 -715l585 -715h-399z" />
<glyph unicode="=" d="M113 203v233h897v-233h-897zM113 590v231h897v-231h-897z" />
<glyph unicode="&#x3e;" horiz-adv-x="1169" d="M92 0l586 715l-586 715h400l585 -715l-585 -715h-400z" />
<glyph unicode="?" horiz-adv-x="1157" d="M113 977q0 217 126 343t343 126q199 0 325 -103q137 -111 137 -305q0 -137 -77 -221q-31 -33 -150 -104q-84 -51 -90 -105l-18 -176h-263q-20 127 -20 182q0 143 80 226q31 35 147 100q78 45 78 98q0 115 -149 115q-162 0 -160 -176h-309zM383 172q0 78 58.5 135.5 t136.5 57.5q80 0 138 -57.5t58 -135.5q0 -80 -58.5 -136t-137.5 -56q-78 0 -136.5 56t-58.5 136z" />
<glyph unicode="@" horiz-adv-x="1650" d="M78 522q0 383 246 645q250 270 630 271q252 0 404 -178q141 -168 141 -424q0 -106 -18 -183q-10 -31 -23 -90l-37 -563h-282l2 53q-125 -80 -248 -80q-174 0 -279 127q-98 119 -98 295q0 236 158 436q168 215 399 216q49 0 105 -15q-70 139 -224 139q-260 0 -436 -204 q-168 -195 -168 -459q0 -188 121 -322l-170 -206q-223 196 -223 542zM813 397q0 -160 88 -159q109 0 197 143q78 127 78 244q0 160 -91 159q-109 0 -194 -143q-78 -129 -78 -244z" />
<glyph unicode="A" horiz-adv-x="1411" d="M0 0l553 1430h301l557 -1430h-397l-117 313h-383l-117 -313h-397zM625 621h161l-81 268z" />
<glyph unicode="B" horiz-adv-x="1296" d="M133 0v1430h537q225 0 358 -103q152 -117 152 -340q0 -139 -107 -231q152 -90 152 -301q0 -260 -199 -381q-121 -74 -326 -74h-567zM502 342h198q94 0 127 31q29 25 29 80t-29 82q-37 33 -127 32h-198v-225zM502 883h178q84 0 112.5 24.5t28.5 75.5q0 49 -26 72 q-33 29 -115 28l-178 2v-202z" />
<glyph unicode="C" horiz-adv-x="1331" d="M72 715q0 289 131 475q178 260 510 260q160 0 286.5 -83t260.5 -269l-248 -219q-98 137 -181 182q-45 23 -118 22q-150 0 -219 -122q-53 -96 -53.5 -246t53.5 -246q70 -123 219 -123q74 0 118 23q82 45 181 182l248 -219q-133 -184 -260.5 -268t-286.5 -84 q-332 0 -510 260q-131 186 -131 475z" />
<glyph unicode="D" horiz-adv-x="1333" d="M133 0v1430h485q242 0 379 -70q195 -102 230 -361q14 -111 14 -284.5t-14 -284.5q-35 -258 -230 -358q-137 -72 -379 -72h-485zM502 365h116q158 0 206 42t48 308t-48 308t-206 42h-116v-700z" />
<glyph unicode="E" horiz-adv-x="1234" d="M133 0v1430h1010v-365h-641v-143h561v-365h-561v-192h641v-365h-1010z" />
<glyph unicode="F" horiz-adv-x="1198" d="M133 0v1430h993v-365h-624v-143h561v-365h-561v-557h-369z" />
<glyph unicode="G" horiz-adv-x="1298" d="M72 715q0 299 116 475q168 256 488 256q152 0 272.5 -83t245.5 -269l-244 -220q-92 139 -166 183q-41 23 -108 22q-236 0 -236 -364.5t228 -364.5q68 0 121 50.5t67 113.5h-190v287h540v-801h-293v68q-102 -84 -245 -84q-311 0 -480 258q-116 174 -116 473z" />
<glyph unicode="H" horiz-adv-x="1384" d="M133 0v1430h369v-508h381v508h368v-1430h-368v557h-381v-557h-369z" />
<glyph unicode="I" horiz-adv-x="641" d="M133 0v1430h375v-1430h-375z" />
<glyph unicode="J" horiz-adv-x="1163" d="M31 465l356 92q2 -14 29 -96q35 -119 129 -119q139 0 139 143v945h367v-945q0 -203 -93 -323q-135 -176 -409 -176q-291 0 -418 202q-65 107 -100 277z" />
<glyph unicode="K" horiz-adv-x="1327" d="M133 0v1430h369v-433l305 433h440l-524 -705l625 -725h-480l-366 465v-465h-369z" />
<glyph unicode="L" horiz-adv-x="1142" d="M133 0v1430h367v-1065h571v-365h-938z" />
<glyph unicode="M" horiz-adv-x="1599" d="M133 0v1430h301l363 -891l340 891h329v-1430h-370v446l-166 -446h-262l-164 444v-444h-371z" />
<glyph unicode="N" horiz-adv-x="1341" d="M133 0v1430h313l394 -639v639h368v-1430h-313l-393 639v-639h-369z" />
<glyph unicode="O" horiz-adv-x="1355" d="M72 715q0 299 116 475q170 256 489.5 256t489.5 -256q117 -176 117 -475t-117 -475q-170 -256 -489.5 -256t-489.5 256q-116 176 -116 475zM442 714.5q0 -364.5 235.5 -364.5t235.5 365q0 190 -55 274q-61 90 -180 90q-236 0 -236 -364.5z" />
<glyph unicode="P" horiz-adv-x="1296" d="M133 0v1430h567q231 0 369 -105q156 -119 156 -350q0 -258 -199 -381q-121 -74 -326 -74h-198v-520h-369zM502 860h198q100 0 131 23q25 20 25 89.5t-25 88.5q-31 25 -131 24h-198v-225z" />
<glyph unicode="Q" horiz-adv-x="1388" d="M72 715q0 299 116 475q170 256 489.5 256t489.5 -256q117 -176 117 -475q0 -266 -88 -428l244 -287h-449l-41 49q-125 -66 -272 -65q-319 0 -490 256q-116 176 -116 475zM442 715q0 -123 35 -213q51 -125 164 -125v254q106 -12 166 -31q0 -2 96 -43q10 59 10 158 q0 365 -235.5 365t-235.5 -365z" />
<glyph unicode="R" horiz-adv-x="1323" d="M133 0v1430h537q225 0 360 -103q150 -117 150 -340q0 -270 -217 -383l370 -604h-430l-291 477q-41 68 -61 68h-49v-545h-369zM494 883h178q86 0 113.5 24.5t27.5 75.5q0 49 -28.5 74.5t-112.5 25.5l-178 2v-202z" />
<glyph unicode="S" horiz-adv-x="1280" d="M72 412l338 80q47 -166 249 -166q63 0 117 32q61 37 62 99q0 68 -187 114q-264 68 -350 117q-188 109 -188 326q0 201 159 317q143 106 351 107q383 0 546 -338l-309 -142q-74 145 -237 146q-47 0 -88 -23q-51 -25 -52 -67q0 -57 187 -107q254 -68 350 -127 q188 -113 188 -323q0 -217 -170 -353q-158 -125 -379 -124q-468 0 -587 432z" />
<glyph unicode="T" horiz-adv-x="1220" d="M51 1065v365h1118v-365h-374v-1065h-369v1065h-375z" />
<glyph unicode="U" horiz-adv-x="1343" d="M113 633v797h368v-803q0 -141 27 -199q41 -88 164 -88t164 88q27 55 26 199v803h369v-795q0 -260 -90 -410q-147 -242 -469 -241q-289 0 -432 190q-127 170 -127 459z" />
<glyph unicode="V" horiz-adv-x="1404" d="M31 1430h389l282 -881l283 881h389l-491 -1430h-361z" />
<glyph unicode="W" horiz-adv-x="2058" d="M31 1430h389l211 -881l211 881h372l213 -881l211 881h390l-400 -1430h-403l-197 705l-197 -705h-401z" />
<glyph unicode="X" horiz-adv-x="1462" d="M31 0l489 733l-465 697h439l237 -371l236 371h440l-467 -697l492 -733h-441l-260 408l-260 -408h-440z" />
<glyph unicode="Y" horiz-adv-x="1374" d="M31 1430h411l246 -529l244 529h411l-471 -965v-465h-368v469z" />
<glyph unicode="Z" horiz-adv-x="1241" d="M72 0v262l561 803h-500v367h1016v-269l-557 -798h557v-365h-1077z" />
<glyph unicode="[" horiz-adv-x="739" d="M164 -160v1749h465v-225h-180v-1298h180v-226h-465z" />
<glyph unicode="\" horiz-adv-x="903" d="M-35 1589h303l670 -1749h-301z" />
<glyph unicode="]" horiz-adv-x="739" d="M111 66h180v1298h-180v225h464v-1749h-464v226z" />
<glyph unicode="^" horiz-adv-x="1267" d="M113 840l413 622h215l414 -622l-252 -129l-270 403l-268 -403z" />
<glyph unicode="_" horiz-adv-x="1105" d="M0 -100h1106v-271h-1106v271z" />
<glyph unicode="`" horiz-adv-x="1056" d="M158 1452h327l179 -371h-211z" />
<glyph unicode="a" horiz-adv-x="1030" d="M72 307q0 23 2 47q10 121 127 203q111 80 262 80h127q-59 131 -80 131q-70 0 -121 -94l-278 84q104 266 409 266h4q150 0 264 -90q125 -98 125 -248v-457l56 -178l-289 -82l-16 47q-82 -43 -201 -43q-168 0 -270 74q-121 88 -121 260zM362 354q0 -29 26 -53.5t65 -28.5 q8 -1 15 0q57 0 120 39v133q-16 -4 -35 -4h-100q-39 0 -65 -26.5t-26 -59.5z" />
<glyph unicode="b" horiz-adv-x="1060" d="M133 0v1430h348v-410q41 16 78 16q227 0 342 -159q98 -137 98 -367q0 -231 -98 -371q-115 -162 -340 -162q-102 0 -164 56v-33h-264zM481 397q0 -82 78 -82q92 0 92 195q0 113 -22.5 152.5t-69.5 39.5q-78 0 -78 -81v-224z" />
<glyph unicode="c" horiz-adv-x="1040" d="M72 504q0 225 129 370q137 154 368 154q115 0 199 -41q94 -45 221 -174l-246 -231q-100 113 -174 112q-147 0 -147 -190.5t147 -190.5q74 0 174 115l246 -233q-127 -127 -221 -172q-84 -43 -199 -43q-231 0 -368 153q-129 146 -129 371z" />
<glyph unicode="d" horiz-adv-x="1087" d="M72 512q0 229 98 367q115 158 342 157q31 0 80 -16v410h348v-1201l55 -178l-288 -82l-17 47q-80 -39 -178 -39q-225 0 -342 162q-98 140 -98 373zM420 510q0 -121 21.5 -158t70.5 -37q80 0 80 84v222q0 84 -80 84q-49 0 -70.5 -37t-21.5 -158z" />
<glyph unicode="e" horiz-adv-x="1052" d="M72 504q0 225 123 370q131 154 352 154q444 0 444 -575h-571q0 -66 37 -117q39 -57 100 -57q100 0 184 102l224 -205q-106 -117 -181 -153q-86 -43 -237 -43q-221 0 -352 155q-123 146 -123 369zM424 600h242q-20 133 -117 133q-105 0 -125 -133z" />
<glyph unicode="f" horiz-adv-x="645" d="M72 733v279h75v106q0 184 109 254q86 57 291 58h47v-261h-49q-61 0 -62 -63v-94h97l-2 -279h-95v-733h-336v733h-75z" />
<glyph unicode="g" horiz-adv-x="1054" d="M72 -102q0 55 16 116l287 -88q-6 -16 12 -30q34 -25 111 -25h12q74 0 125 39q35 27 35 61.5t-37 34.5q-27 0 -85.5 -11t-88.5 -11q-131 0 -240 59q-98 53 -108 154q-2 13 -2 25q0 80 65 175q-68 100 -68 240q0 188 109 290.5t295 102.5q125 0 217 -47q10 18 10 70h244 q0 -190 -86 -258q20 -47 20 -156q0 -168 -117.5 -269.5t-301.5 -101.5q-78 0 -129 35q-20 -20 -21 -43q0 -20 16 -29q39 -19 97 -19q61 0 143 21q66 16 125 17q256 0 256 -262q0 -162 -109 -277q-129 -137 -366 -137q-152 0 -270 61q-166 87 -166 263zM430 639q0 -51 14 -61 q23 -18 68 -19q43 0 66 19q14 10 14 59q0 45 -16.5 61.5t-63.5 16.5t-64.5 -15.5t-17.5 -60.5z" />
<glyph unicode="h" horiz-adv-x="1091" d="M133 0v1430h348v-412q35 16 78 16q217 0 332 -133q109 -127 108 -342v-559h-348v559q0 133 -92 133q-78 0 -78 -78v-614h-348z" />
<glyph unicode="i" horiz-adv-x="567" d="M92 1302.5q0 79.5 56.5 135t134.5 55.5q80 0 136 -55.5t56 -135t-56.5 -135t-135.5 -55.5q-78 0 -134.5 55.5t-56.5 135zM115 0v1012h334v-1012h-334z" />
<glyph unicode="j" horiz-adv-x="593" d="M31 -186h49q63 0 63 63v1135h334v-1147q0 -184 -106 -254q-88 -57 -291 -57h-49v260zM119 1302.5q0 79.5 56 135t136 55.5q78 0 134.5 -55.5t56.5 -135t-56.5 -135t-134.5 -55.5q-80 0 -136 55.5t-56 135z" />
<glyph unicode="k" horiz-adv-x="1017" d="M133 0v1430h348v-670l174 252h361l-303 -473l315 -539h-377l-170 301v-301h-348z" />
<glyph unicode="l" horiz-adv-x="602" d="M133 324v1106h334v-1094q0 -63 63 -64v-272h-106q-135 0 -215 94q-76 89 -76 230z" />
<glyph unicode="m" horiz-adv-x="1619" d="M123 0v1012h266v-35q61 51 170 51q172 0 285 -92q94 92 233 92q207 0 322 -129q109 -123 108 -334v-565h-348v565q0 131 -92 131q-78 0 -78 -75v-621h-348v565q0 131 -92 131q-78 0 -78 -75v-621h-348z" />
<glyph unicode="n" horiz-adv-x="1101" d="M123 0v1012h266v-35q61 51 170 51q207 0 322 -129q109 -123 108 -334v-565h-348v565q0 131 -92 131q-78 0 -78 -75v-621h-348z" />
<glyph unicode="o" horiz-adv-x="1079" d="M61 500q0 231 111 368q123 152 366.5 152t368.5 -152q111 -135 111 -368q0 -213 -78 -330q-127 -193 -399 -193q-244 0 -369 152q-111 135 -111 371zM416 497.5q0 -94.5 39 -147.5q27 -35 84 -35t84 35q39 53 39 148q0 96 -39 149q-27 35 -84.5 35t-83.5 -35 q-39 -55 -39 -149.5z" />
<glyph unicode="p" horiz-adv-x="1071" d="M133 -451v1463h264v-33q68 49 164 49q225 0 340 -160q98 -135 98 -366q0 -229 -98 -367q-115 -158 -342 -158q-37 0 -78 15v-443h-348zM481 391q0 -82 78 -82q92 0 92 193q0 115 -22.5 154.5t-69.5 39.5q-78 0 -78 -82v-223z" />
<glyph unicode="q" horiz-adv-x="1081" d="M72 502q0 231 98 366q115 160 342 160q96 0 172 -39l12 45l293 -92l-49 -160v-1233h-348v445q-51 -16 -80 -17q-227 0 -342 158q-98 138 -98 367zM420 502q0 -119 21.5 -157t70.5 -38q80 0 80 84v223q0 84 -80 84q-49 0 -70 -34q-22 -41 -22 -162z" />
<glyph unicode="r" horiz-adv-x="888" d="M123 0v1012h266v-35q63 51 170 51q156 0 258 -74l-125 -262q-45 14 -84 15q-59 0 -98 -37t-39 -97v-573h-348z" />
<glyph unicode="s" horiz-adv-x="999" d="M72 287l286 78q33 -100 138 -101q100 0 100 53q0 39 -129 76q-176 49 -240 86q-129 76 -129 215q0 150 125 240q113 82 275 82q270 0 379 -228l-252 -108q-49 78 -129 78q-78 0 -78 -49q0 -29 133 -66q170 -47 246 -96q131 -84 131 -228q0 -164 -135 -256 q-119 -80 -289 -79q-340 0 -432 303z" />
<glyph unicode="t" horiz-adv-x="663" d="M31 733v279h102v270h340v-270h119v-279h-119v-409q0 -63 64 -64v-260h-125q-133 0 -209 92q-70 84 -70 217v424h-102z" />
<glyph unicode="u" d="M123 446v566h348v-566q0 -131 92 -131q78 0 78 76v621h348v-1012h-266v35q-61 -51 -170 -51q-207 0 -322 129q-108 122 -108 333z" />
<glyph unicode="v" horiz-adv-x="1110" d="M31 1012h372l152 -619l152 619h372l-389 -1012h-270z" />
<glyph unicode="w" horiz-adv-x="1576" d="M31 1012h370l109 -527l166 527h221l152 -531l127 531h370l-338 -1012h-278l-144 416l-143 -416h-278z" />
<glyph unicode="x" horiz-adv-x="1175" d="M31 0l364 516l-348 496h424l117 -226l117 226h421l-346 -496l365 -516h-426l-131 254l-133 -254h-424z" />
<glyph unicode="y" horiz-adv-x="1136" d="M31 1012h370l162 -619l170 619h373l-459 -1231q-63 -170 -203 -217q-72 -25 -269 -25h-32v266h38q115 0 131 12q19 13 36 58l47 125z" />
<glyph unicode="z" horiz-adv-x="1048" d="M92 0v244l352 436h-313v332h805v-238l-356 -442h356v-332h-844z" />
<glyph unicode="{" horiz-adv-x="796" d="M117 582v266q51 0 62 8t15.5 35t16.5 184q16 225 82 334q111 180 387 180v-266q-117 0 -154 -74q-18 -41 -28 -180q-12 -205 -92 -354q80 -147 92 -355q10 -137 28 -178q37 -76 154 -76v-266q-272 0 -385 185q-72 113 -84 317q-10 188 -16 207q-10 33 -78 33z" />
<glyph unicode="|" horiz-adv-x="825" d="M266 -160v1749h293v-1749h-293z" />
<glyph unicode="}" horiz-adv-x="796" d="M117 106q117 0 153 76q20 41 29 178q12 207 94 355q-82 150 -94 354q-8 139 -29 180q-37 74 -153 74v266q270 0 379 -164q72 -106 88 -338q4 -70 18 -196q4 -27 16.5 -35t61.5 -8v-266q-68 0 -78 -33q-6 -18 -16 -207q-12 -205 -82 -317q-115 -184 -387 -185v266z" />
<glyph unicode="~" horiz-adv-x="1241" d="M90 604q193 180 354 180q76 0 200 -44t167 -44q31 0 63 25q14 10 80 72l197 -191l-82 -78q-113 -104 -250 -104q-78 0 -303 69q-57 18 -88 19q-33 0 -63 -23q-4 -4 -78 -71z" />
<glyph unicode="&#xa1;" horiz-adv-x="755" d="M141 791q0 90 62.5 152.5t150.5 62.5t150.5 -62.5t62.5 -152.5q0 -88 -62.5 -150.5t-150.5 -62.5t-150.5 62.5t-62.5 150.5zM186 45l13 420h311l12 -420v-496h-336v496z" />
<glyph unicode="&#xa2;" horiz-adv-x="1138" d="M145 492q8 223 131 376q125 156 308 156h18l31 139l182 -39l-29 -133q96 -35 244 -192l-186 -166q-74 80 -113 108l-117 -534h7h8q46 0 82 20q47 29 133 123l186 -168q-121 -129 -208 -174t-201 -45q-31 0 -58 4l-28 -129l-183 39l25 125q-232 145 -232 453q-1 18 0 37z M385 463q0 -127 53 -168l113 485q-78 -25 -125 -123q-41 -88 -41 -194z" />
<glyph unicode="&#xa3;" horiz-adv-x="1169" d="M100 588l56 258h63l-4 24q-10 59 -10 117q0 193 106 313q117 133 310 134q152 0 260 -68q80 -49 194 -180l-196 -170q-86 98 -129 127q-49 33 -129 33q-154 0 -154 -191q0 -55 16 -139h267l-56 -258h-162q8 -66 9 -123q0 -100 -29 -205h512v-260h-819v178q76 166 76 291 q0 51 -13 119h-168z" />
<glyph unicode="&#xa4;" horiz-adv-x="1497" d="M102 461l43 198h97v57v54h-140l43 199h127q57 225 209 352t381 127q164 0 283 -59q113 -57 219 -189l-205 -203q-143 162 -297 162q-195 0 -276 -190h372l-43 -199h-372q-4 -57 -4 -55t4 -56h415l-43 -198h-329q82 -190 276 -191q164 0 307 179l205 -201 q-125 -150 -219 -203q-113 -63 -291 -63q-227 0 -383 131q-150 125 -209 348h-170z" />
<glyph unicode="&#xa5;" horiz-adv-x="1185" d="M-16 1430h292l320 -685l319 685h293l-301 -611h123l-47 -207h-178l-25 -47h250l-47 -209h-256v-356h-262v356h-309l47 209h209l-23 47h-233l47 207h84z" />
<glyph unicode="&#xa6;" horiz-adv-x="768" d="M276 -141v821h228v-821h-228zM276 754v819h228v-819h-228z" />
<glyph unicode="&#xa7;" horiz-adv-x="1261" d="M195 -29l229 125q123 -231 203 -231q129 0 129 145q0 47 -21 68q-31 29 -135 53q-389 94 -389 420q0 158 80 266q-43 78 -43 182q0 176 108.5 293t278.5 117q129 0 229.5 -88t202.5 -281l-227 -125q-125 231 -205 232q-127 0 -127 -148q0 -47 18 -65q31 -29 136 -53 q389 -96 389 -420q0 -158 -80 -268q43 -78 43 -183q0 -174 -108.5 -290.5t-278.5 -116.5q-129 0 -228.5 87.5t-203.5 280.5zM469 551q0 -94 109 -139l188 -58q27 39 27 107q0 119 -193 166q-59 14 -102 30q-29 -38 -29 -106z" />
<glyph unicode="&#xa8;" horiz-adv-x="1163" d="M201 1206.5q0 69.5 49 118.5t119 49q72 0 121 -49t49 -118.5t-49.5 -119t-120.5 -49.5q-70 0 -119 49.5t-49 119zM625 1206.5q0 69.5 49 118.5t121 49q70 0 119 -49t49 -118.5t-49.5 -119t-118.5 -49.5q-72 0 -121 49.5t-49 119z" />
<glyph unicode="&#xa9;" horiz-adv-x="1871" d="M240 712.5q0 288.5 203.5 492.5t492.5 204t492.5 -204t203.5 -492.5t-203.5 -492.5t-492.5 -204t-492.5 204t-203.5 492.5zM424 713q0 -211 150.5 -361.5t361.5 -150.5q213 0 362.5 150.5t149.5 361.5t-149.5 361.5t-362.5 150.5q-211 0 -361.5 -150.5t-150.5 -361.5z M621 713q0 168 61 266q94 145 268 145q82 0 145.5 -36.5t143.5 -133.5l-149 -123q-82 100 -140 101q-70 0 -104 -58q-33 -49 -33 -161q0 -111 34 -164t103 -53q57 0 140 100l149 -125q-80 -96 -143.5 -132t-145.5 -36q-174 0 -266 143q-63 99 -63 267z" />
<glyph unicode="&#xaa;" horiz-adv-x="1019" d="M121 874q0 117 98 187q90 63 225 63h127q12 0 19 2v66q0 51 -88 51q-84 0 -137 -82l-218 68q113 233 357 233q127 0 221 -76.5t94 -193.5v-432l35 -109l-219 -63l-12 39q-82 -35 -179 -35q-131 0 -227 80.5t-96 201.5zM287 371v176h385v-176h-385zM350 874 q0 -23 24.5 -43t69.5 -20q84 0 146 51v76q-8 -2 -19 -2h-127q-45 0 -69.5 -21t-24.5 -41z" />
<glyph unicode="&#xab;" horiz-adv-x="1095" d="M133 455v145l510 481l2 -315l-254 -238l254 -239v-316zM569 455v145l510 481l2 -315l-254 -238l254 -239v-316z" />
<glyph unicode="&#xac;" horiz-adv-x="1136" d="M100 403v242h936v-504h-239v262h-697z" />
<glyph unicode="&#xad;" horiz-adv-x="1101" d="M104 449v225h893v-225h-893z" />
<glyph unicode="&#x2212;" horiz-adv-x="1101" d="M104 449v225h893v-225h-893z" />
<glyph unicode="&#xae;" horiz-adv-x="1871" d="M240 712.5q0 288.5 203.5 492.5t492.5 204t492.5 -204t203.5 -492.5t-203.5 -492.5t-492.5 -204t-492.5 204t-203.5 492.5zM424 713q0 -211 150.5 -361.5t361.5 -150.5q182 0 321 114h-170l-163 271q-18 29 -33 28h-37v-299h-192v797h299q111 0 176 -41q104 -66 106 -209 q0 -158 -129 -219l178 -297q156 152 156 367q0 211 -149.5 361.5t-362.5 150.5q-211 0 -361.5 -150.5t-150.5 -361.5zM854 807h107q47 0 61 6q27 10 27 49q0 35 -16.5 46.5t-71.5 11.5h-107v-113z" />
<glyph unicode="&#xaf;" d="M211 1163v197h700v-197h-700z" />
<glyph unicode="&#x2c9;" d="M211 1163v197h700v-197h-700z" />
<glyph unicode="&#xb0;" horiz-adv-x="768" d="M152 1353.5q0 96.5 67.5 164t163.5 67.5t164.5 -67.5t68.5 -164t-68.5 -165t-164.5 -68.5t-163.5 68.5t-67.5 165zM311 1354q0 -31 21.5 -51.5t50.5 -20.5q31 0 51.5 20.5t20.5 51.5q0 29 -20.5 50t-51.5 21q-29 0 -50.5 -21t-21.5 -50z" />
<glyph unicode="&#xb1;" horiz-adv-x="1136" d="M121 -6v252h897v-252h-897zM121 631v254h319v317h256v-317h322v-254h-322v-318h-256v318h-319z" />
<glyph unicode="&#xb2;" horiz-adv-x="813" d="M78 1223q68 123 133 178q76 63 180 63q109 0 189 -63q92 -74 92 -195q0 -80 -56 -159q-37 -51 -149 -162q-61 -61 -98 -113h305v-215h-588v148q35 92 65.5 137t131.5 151q170 180 170 213q0 43 -62 43q-49 0 -119 -127z" />
<glyph unicode="&#xb3;" horiz-adv-x="806" d="M123 1219l14 41q31 82 104.5 132t161.5 50q117 0 200 -78t83 -190q0 -88 -55 -160q68 -78 67 -183q0 -119 -84 -202.5t-202 -83.5q-209 0 -287 235l203 70l10 -29q20 -63 74 -63q29 0 50 21.5t21 52t-21.5 58.5t-49.5 28h-76v176h67q29 0 48.5 27.5t19.5 52.5 q0 57 -68 57q-47 0 -71 -68l-4 -14z" />
<glyph unicode="&#xb4;" horiz-adv-x="1056" d="M158 1081l178 371h328l-295 -371h-211z" />
<glyph unicode="&#xb5;" horiz-adv-x="1243" d="M184 -391v1403h269v-561q0 -109 26 -152q35 -59 139 -59q123 0 152 114v658h268v-1016h-268v12q-72 -25 -152 -24q-88 0 -165 26v-401h-269z" />
<glyph unicode="&#x3bc;" horiz-adv-x="1243" d="M184 -391v1403h269v-561q0 -109 26 -152q35 -59 139 -59q123 0 152 114v658h268v-1016h-268v12q-72 -25 -152 -24q-88 0 -165 26v-401h-269z" />
<glyph unicode="&#xb6;" horiz-adv-x="1261" d="M106 979q0 182 129.5 312t311.5 130h518v-1722h-272v1464h-64v-1464h-272v850q-152 31 -251.5 151.5t-99.5 278.5z" />
<glyph unicode="&#xb7;" horiz-adv-x="657" d="M115 545q0 88 62.5 150.5t150.5 62.5q90 0 152.5 -62.5t62.5 -150.5t-62.5 -150.5t-152.5 -62.5q-88 0 -150.5 62.5t-62.5 150.5z" />
<glyph unicode="&#x2219;" horiz-adv-x="657" d="M115 545q0 88 62.5 150.5t150.5 62.5q90 0 152.5 -62.5t62.5 -150.5t-62.5 -150.5t-152.5 -62.5q-88 0 -150.5 62.5t-62.5 150.5z" />
<glyph unicode="&#xb8;" horiz-adv-x="1116" d="M324 -416l204 287l-57 154l182 61l76 -227l-143 -275h-262z" />
<glyph unicode="&#xb9;" horiz-adv-x="655" d="M80 1274l282 172h130v-905h-213v604l-93 -55z" />
<glyph unicode="&#xba;" horiz-adv-x="1075" d="M152 1024l2 4q0 176 61 275q102 160 323.5 159.5t321.5 -159.5q63 -98 63.5 -274.5t-63.5 -276.5q-100 -160 -321.5 -160t-323.5 160q-63 100 -63 272zM346 371v190h385v-190h-385zM381 1028q0 -106 25 -151q35 -66 131 -66q98 0 133 66q25 43 24 151q0 115 -31.5 165 t-123.5 50q-98 0 -133 -63q-25 -48 -25 -152z" />
<glyph unicode="&#xbb;" horiz-adv-x="1095" d="M133 -27v316l254 239l-254 238l2 315l510 -481v-145zM569 -27v316l254 239l-254 238v315l512 -481v-145z" />
<glyph unicode="&#xbc;" horiz-adv-x="1646" d="M94 1268l281 170h129v-903h-213v604l-90 -56zM365 4l653 1423h227l-653 -1423h-227zM883 199v159l311 549h256l-274 -497h137l14 145l137 -27v-116h54v-213h-54v-195h-219v195h-362z" />
<glyph unicode="&#xbd;" horiz-adv-x="1724" d="M94 1268l283 170h129v-903h-213v604l-92 -56zM367 4l653 1423h227l-653 -1423h-227zM993 670q66 123 131 176q76 63 181 63q109 0 188 -61q92 -74 92 -195q0 -80 -55 -159q-37 -51 -150 -164q-61 -59 -98 -113h305v-213h-588v148q35 90 66 135t131 153q170 178 170 213 q0 43 -61 43q-49 0 -119 -127z" />
<glyph unicode="&#xbe;" horiz-adv-x="1812" d="M123 1219l14 41q31 82 104.5 132t161.5 50q117 0 200 -78t83 -190q0 -88 -55 -160q68 -78 67 -183q0 -119 -84 -202.5t-202 -83.5q-209 0 -287 235l203 70l10 -29q20 -63 74 -63q29 0 50 21.5t21 52t-21.5 58.5t-49.5 28h-76v176h67q29 0 48.5 27.5t19.5 52.5 q0 57 -68 57q-47 0 -71 -68l-4 -14zM473 4l651 1423h228l-652 -1423h-227zM989 199v159l311 549h259l-277 -497h137l15 145l137 -27v-116h53v-213h-53v-195h-219v195h-363z" />
<glyph unicode="&#xbf;" horiz-adv-x="1136" d="M102 -12q0 129 78 211q31 31 150 108q84 55 90 111l20 176h262q18 -129 19 -182q0 -135 -78 -217q-29 -29 -147 -103q-80 -51 -80 -104q0 -117 151 -117q160 0 160 176h307q0 -217 -125 -342t-342 -125q-201 0 -327 103q-138 110 -138 305zM375 854q0 78 58.5 135.5 t136 57.5t136 -57.5t58.5 -135.5t-58.5 -135t-136 -57t-136 57t-58.5 135z" />
<glyph unicode="&#xc0;" horiz-adv-x="1411" d="M0 0l553 1430h301l557 -1430h-397l-117 313h-383l-117 -313h-397zM377 1901h272l193 -328h-203zM625 621h161l-81 268z" />
<glyph unicode="&#xc1;" horiz-adv-x="1390" d="M-10 0l553 1430h301l557 -1430h-397l-117 313h-383l-117 -313h-397zM573 1573l193 328h272l-262 -328h-203zM614 621h162l-82 268z" />
<glyph unicode="&#xc2;" horiz-adv-x="1411" d="M0 0l553 1430h301l557 -1430h-397l-117 313h-383l-117 -313h-397zM307 1573l273 328h239l273 -328h-281l-113 164l-110 -164h-281zM625 621h161l-81 268z" />
<glyph unicode="&#xc3;" horiz-adv-x="1411" d="M0 0l553 1430h301l557 -1430h-397l-117 313h-383l-117 -313h-397zM328 1665q123 156 245 156q76 0 185 -54q70 -33 100 -32q25 0 51 30q18 27 39 54l152 -125l-37 -49q-86 -106 -199 -107q-68 0 -166 41q-33 16 -104 43q-9 2 -17 2q-30 0 -53 -29q-8 -8 -43 -53zM625 621 h161l-81 268z" />
<glyph unicode="&#xc4;" horiz-adv-x="1411" d="M0 0l553 1430h301l557 -1430h-397l-117 313h-383l-117 -313h-397zM348 1720.5q0 61.5 43 104.5t104.5 43t105.5 -43t44 -104.5t-44 -104.5t-105.5 -43t-104.5 43t-43 104.5zM625 621h161l-81 268zM772 1720.5q0 61.5 43 104.5t104.5 43t105.5 -43t44 -104.5t-44 -104.5 t-105.5 -43t-104.5 43t-43 104.5z" />
<glyph unicode="&#xc5;" horiz-adv-x="1417" d="M0 0l553 1430h301l557 -1430h-397l-117 313h-383l-117 -313h-397zM438 1773.5q0 108.5 78 186.5t186.5 78t186.5 -78t78 -186.5t-78 -186.5t-186.5 -78t-186.5 78t-78 186.5zM625 621h161l-81 268zM627 1774q0 -31 22.5 -53.5t52.5 -22.5q33 0 55.5 22.5t22.5 53.5 q0 33 -22.5 55t-55.5 22q-31 0 -53 -22t-22 -55z" />
<glyph unicode="&#xc6;" horiz-adv-x="2091" d="M0 0l936 1430h1053v-365h-643v-143h561v-365h-561v-192h643v-365h-1012v313h-379l-201 -313h-397zM791 621h186l2 270l-37 -2z" />
<glyph unicode="&#xc7;" horiz-adv-x="1331" d="M72 715q0 289 131 475q178 260 510 260q160 0 286.5 -83t260.5 -269l-248 -219q-98 137 -181 182q-45 23 -118 22q-150 0 -219 -122q-53 -96 -53.5 -246t53.5 -246q70 -123 219 -123q74 0 118 23q82 45 181 182l248 -219q-201 -281 -412 -336l49 -137l-149 -291h-302 l220 305l-45 113q-268 37 -418 254q-131 186 -131 475z" />
<glyph unicode="&#xc8;" horiz-adv-x="1234" d="M133 0v1430h1010v-365h-641v-143h561v-365h-561v-192h641v-365h-1010zM350 1901h275l190 -328h-203z" />
<glyph unicode="&#xc9;" horiz-adv-x="1234" d="M133 0v1430h1010v-365h-641v-143h561v-365h-561v-192h641v-365h-1010zM455 1573l190 328h273l-261 -328h-202z" />
<glyph unicode="&#xca;" horiz-adv-x="1234" d="M133 0v1430h1010v-365h-641v-143h561v-365h-561v-192h641v-365h-1010zM248 1573l272 328h240l272 -328h-280l-111 164l-113 -164h-280z" />
<glyph unicode="&#xcb;" horiz-adv-x="1234" d="M133 0v1430h1010v-365h-641v-143h561v-365h-561v-192h641v-365h-1010zM279 1720.5q0 61.5 44 104.5t105 43t104 -43t43 -104.5t-43 -104.5t-104 -43t-105 43t-44 104.5zM702 1720.5q0 61.5 44.5 104.5t105.5 43t104 -43t43 -104.5t-43 -104.5t-104 -43t-105.5 43 t-44.5 104.5z" />
<glyph unicode="&#xcc;" horiz-adv-x="632" d="M0 1901h272l193 -328h-203zM123 0v1430h373v-1430h-373z" />
<glyph unicode="&#xcd;" horiz-adv-x="632" d="M133 0v1430h375v-1430h-375zM135 1573l191 328h272l-260 -328h-203z" />
<glyph unicode="&#xce;" horiz-adv-x="647" d="M-61 1573l270 328h240l272 -328h-279l-112 164l-113 -164h-278zM141 0v1432h375v-1432h-375z" />
<glyph unicode="&#xcf;" horiz-adv-x="647" d="M-23 1720.5q0 61.5 43 104.5t104.5 43t104.5 -43t43 -104.5t-43 -104.5t-104.5 -43t-104.5 43t-43 104.5zM141 0v1432h375v-1432h-375zM401 1720.5q0 61.5 43 104.5t104.5 43t105.5 -43t44 -104.5t-44 -104.5t-105.5 -43t-104.5 43t-43 104.5z" />
<glyph unicode="&#xd0;" horiz-adv-x="1490" d="M141 606v211h66v613h485q242 0 377 -70q197 -102 231 -361q14 -111 14.5 -284.5t-14.5 -284.5q-35 -258 -231 -358q-135 -72 -377 -72h-485v606h-66zM575 365h117q158 0 206 42t48 308t-48 308t-206 42h-117v-248h185v-211h-185v-241z" />
<glyph unicode="&#xd1;" horiz-adv-x="1341" d="M133 0v1430h313l394 -639v639h368v-1430h-313l-393 639v-639h-369zM311 1665q123 156 246 156q74 0 184 -54q70 -33 101 -32q25 0 51 30l37 54l153 -125l-39 -49q-84 -106 -198 -107q-66 0 -164 41q-33 16 -104 43q-9 2 -18 2q-31 0 -54 -29l-41 -53z" />
<glyph unicode="&#xd2;" horiz-adv-x="1355" d="M72 715q0 299 116 475q170 256 489.5 256t489.5 -256q117 -176 117 -475t-117 -475q-170 -256 -489.5 -256t-489.5 256q-116 176 -116 475zM399 1901h273l190 -328h-203zM442 714.5q0 -364.5 235.5 -364.5t235.5 365q0 190 -55 274q-61 90 -180 90q-236 0 -236 -364.5z " />
<glyph unicode="&#xd3;" horiz-adv-x="1355" d="M72 715q0 299 116 475q170 256 489.5 256t489.5 -256q117 -176 117 -475t-117 -475q-170 -256 -489.5 -256t-489.5 256q-116 176 -116 475zM442 714.5q0 -364.5 235.5 -364.5t235.5 365q0 190 -55 274q-61 90 -180 90q-236 0 -236 -364.5zM498 1573l190 328h273 l-261 -328h-202z" />
<glyph unicode="&#xd4;" horiz-adv-x="1355" d="M72 715q0 299 116 475q170 256 489.5 256t489.5 -256q117 -176 117 -475t-117 -475q-170 -256 -489.5 -256t-489.5 256q-116 176 -116 475zM285 1573l272 328h240l270 -328h-279l-112 164l-113 -164h-278zM442 714.5q0 -364.5 235.5 -364.5t235.5 365q0 190 -55 274 q-61 90 -180 90q-236 0 -236 -364.5z" />
<glyph unicode="&#xd5;" horiz-adv-x="1355" d="M72 715q0 299 116 475q170 256 489.5 256t489.5 -256q117 -176 117 -475t-117 -475q-170 -256 -489.5 -256t-489.5 256q-116 176 -116 475zM293 1665q121 156 244 156q76 0 184 -54q72 -33 100 -32q27 0 49.5 28.5t40.5 55.5l154 -125l-39 -49q-84 -106 -199 -107 q-68 0 -163 41q-35 16 -105 43q-9 2 -18 2q-31 0 -54 -29q-8 -8 -43 -53zM442 714.5q0 -364.5 235.5 -364.5t235.5 365q0 190 -55 274q-61 90 -180 90q-236 0 -236 -364.5z" />
<glyph unicode="&#xd6;" horiz-adv-x="1355" d="M72 715q0 299 116 475q170 256 489.5 256t489.5 -256q117 -176 117 -475t-117 -475q-170 -256 -489.5 -256t-489.5 256q-116 176 -116 475zM309 1720.5q0 61.5 44 104.5t105.5 43t104.5 -43t43 -104.5t-43 -104.5t-104.5 -43t-105.5 43t-44 104.5zM442 714.5 q0 -364.5 235.5 -364.5t235.5 365q0 190 -55 274q-61 90 -180 90q-236 0 -236 -364.5zM733 1720.5q0 61.5 44 104.5t105.5 43t104.5 -43t43 -104.5t-43 -104.5t-104.5 -43t-105.5 43t-44 104.5z" />
<glyph unicode="&#xd7;" horiz-adv-x="1021" d="M100 324l238 237l-238 236l174 174l236 -238l238 238l172 -174l-236 -236l236 -237l-172 -172l-238 235l-236 -235z" />
<glyph unicode="&#xd8;" horiz-adv-x="1355" d="M72 715q0 299 116 475q170 256 490 256q135 0 250 -53l30 55h244l-100 -178q37 -37 65 -80q117 -176 117 -475t-117 -475q-170 -256 -489 -256q-141 0 -260 57l-33 -57h-242l103 184q-31 33 -58 72q-116 176 -116 475zM442 715q0 -102 15 -170l293 526q-33 8 -72 8 q-236 1 -236 -364zM596 362q37 -12 82 -12q236 0 235 365q0 119 -16 186z" />
<glyph unicode="&#xd9;" horiz-adv-x="1343" d="M113 633v797h368v-803q0 -141 27 -199q41 -88 164 -88t164 88q27 55 26 199v803h369v-795q0 -260 -90 -410q-147 -242 -469 -241q-289 0 -432 190q-127 170 -127 459zM410 1901h272l190 -328h-202z" />
<glyph unicode="&#xda;" horiz-adv-x="1343" d="M113 633v797h368v-803q0 -141 27 -199q41 -88 164 -88t164 88q27 55 26 199v803h369v-795q0 -260 -90 -410q-147 -242 -469 -241q-289 0 -432 190q-127 170 -127 459zM496 1573l190 328h272l-260 -328h-202z" />
<glyph unicode="&#xdb;" horiz-adv-x="1343" d="M113 633v797h368v-803q0 -141 27 -199q41 -88 164 -88t164 88q27 55 26 199v803h369v-795q0 -260 -90 -410q-147 -242 -469 -241q-289 0 -432 190q-127 170 -127 459zM276 1573l273 328h239l273 -328h-281l-110 164l-113 -164h-281z" />
<glyph unicode="&#xdc;" horiz-adv-x="1343" d="M113 633v797h368v-803q0 -141 27 -199q41 -88 164 -88t164 88q27 55 26 199v803h369v-795q0 -260 -90 -410q-147 -242 -469 -241q-289 0 -432 190q-127 170 -127 459zM307 1720.5q0 61.5 44 104.5t105.5 43t104.5 -43t43 -104.5t-43 -104.5t-104.5 -43t-105.5 43 t-44 104.5zM731 1720.5q0 61.5 44 104.5t105.5 43t104.5 -43t43 -104.5t-43 -104.5t-104.5 -43t-105.5 43t-44 104.5z" />
<glyph unicode="&#xdd;" horiz-adv-x="1372" d="M41 1430h412l245 -529l244 529h412l-471 -965v-465h-369v469zM512 1604l190 327h273l-262 -327h-201z" />
<glyph unicode="&#xde;" horiz-adv-x="1421" d="M205 0v1430h368v-242h199q231 0 371 -105q154 -119 153 -350q0 -258 -198 -381q-121 -74 -326 -73h-199v-279h-368zM573 643h199q100 0 131 21q25 14 25 69q0 57 -25 72q-31 18 -131 18h-199v-180z" />
<glyph unicode="&#xdf;" horiz-adv-x="1241" d="M207 2v981q0 178 65 281q106 164 328 163q137 0 234.5 -96t97.5 -231q0 -76 -35 -146q178 -123 178 -436q0 -211 -74 -330q-115 -184 -452 -192l-8 266q170 4 223 64q43 47 43 190q0 168 -53 213q-45 39 -211 43v250q121 27 121 78q0 63 -64 63q-82 0 -108 -53 q-18 -37 -19 -127v-981h-266z" />
<glyph unicode="&#xe0;" horiz-adv-x="1030" d="M72 307q0 23 2 47q10 121 127 203q111 80 262 80h127q-59 131 -80 131q-70 0 -121 -94l-278 84q104 266 409 266h4q150 0 264 -90q125 -98 125 -248v-457l56 -178l-289 -82l-16 47q-82 -43 -201 -43q-168 0 -270 74q-121 88 -121 260zM213 1462h274l191 -329h-203z M362 354q0 -29 26 -53.5t65 -28.5q8 -1 15 0q57 0 120 39v133q-16 -4 -35 -4h-100q-39 0 -65 -26.5t-26 -59.5z" />
<glyph unicode="&#xe1;" horiz-adv-x="1030" d="M72 307q0 23 2 47q10 121 127 203q111 80 262 80h127q-59 131 -80 131q-70 0 -121 -94l-278 84q104 266 409 266h4q150 0 264 -90q125 -98 125 -248v-457l56 -178l-289 -82l-16 47q-82 -43 -201 -43q-168 0 -270 74q-121 88 -121 260zM317 1133l191 329h272l-262 -329 h-201zM362 354q0 -29 26 -53.5t65 -28.5q8 -1 15 0q57 0 120 39v133q-16 -4 -35 -4h-100q-39 0 -65 -26.5t-26 -59.5z" />
<glyph unicode="&#xe2;" horiz-adv-x="1030" d="M72 307q0 23 2 47q10 121 127 203q111 80 262 80h127q-59 131 -80 131q-70 0 -121 -94l-278 84q104 266 409 266h4q150 0 264 -90q125 -98 125 -248v-457l56 -178l-289 -82l-16 47q-82 -43 -201 -43q-168 0 -270 74q-121 88 -121 260zM96 1108l273 328h239l273 -328h-281 l-113 166l-110 -166h-281zM362 354q0 -29 26 -53.5t65 -28.5q8 -1 15 0q57 0 120 39v133q-16 -4 -35 -4h-100q-39 0 -65 -26.5t-26 -59.5z" />
<glyph unicode="&#xe3;" horiz-adv-x="1030" d="M72 307q0 23 2 47q10 121 127 203q111 80 262 80h127q-59 131 -80 131q-70 0 -121 -94l-278 84q104 266 409 266h4q150 0 264 -90q125 -98 125 -248v-457l56 -178l-289 -82l-16 47q-82 -43 -201 -43q-168 0 -270 74q-121 88 -121 260zM127 1227q121 158 244 157 q76 0 184 -53q72 -35 100 -35q25 0 52 31q18 27 38 53l152 -125l-37 -49q-84 -106 -198 -106q-68 0 -164 41q-35 16 -105 43q-9 2 -18 2q-31 0 -53 -29q-8 -8 -43 -53zM362 354q0 -29 26 -53.5t65 -28.5q8 -1 15 0q57 0 120 39v133q-16 -4 -35 -4h-100q-39 0 -65 -26.5 t-26 -59.5z" />
<glyph unicode="&#xe4;" horiz-adv-x="1030" d="M72 307q0 23 2 47q10 121 127 203q111 80 262 80h127q-59 131 -80 131q-70 0 -121 -94l-278 84q104 266 409 266h4q150 0 264 -90q125 -98 125 -248v-457l56 -178l-289 -82l-16 47q-82 -43 -201 -43q-168 0 -270 74q-121 88 -121 260zM166 1237q0 61 43 104t104.5 43 t105.5 -43t44 -104t-44 -104t-105.5 -43t-104.5 43t-43 104zM362 354q0 -29 26 -53.5t65 -28.5q8 -1 15 0q57 0 120 39v133q-16 -4 -35 -4h-100q-39 0 -65 -26.5t-26 -59.5zM590 1237q0 61 44 104t105.5 43t104.5 -43t43 -104t-44 -104t-104 -43q-61 0 -105 43t-44 104z" />
<glyph unicode="&#xe5;" horiz-adv-x="1030" d="M72 307q0 23 2 47q10 121 127 203q111 80 262 80h127q-59 131 -80 131q-70 0 -121 -94l-278 84q104 266 409 266h4q150 0 264 -90q125 -98 125 -248v-457l56 -178l-289 -82l-16 47q-82 -43 -201 -43q-168 0 -270 74q-121 88 -121 260zM242 1359.5q0 108.5 76.5 186.5 t187.5 78q109 0 186.5 -78t77.5 -186.5t-78 -186t-186 -77.5q-111 0 -187.5 77.5t-76.5 186zM362 354q0 -29 26 -53.5t65 -28.5q8 -1 15 0q57 0 120 39v133q-16 -4 -35 -4h-100q-39 0 -65 -26.5t-26 -59.5zM428 1360q0 -33 22.5 -55.5t55.5 -22.5q31 0 53.5 22.5t22.5 55.5 q0 31 -22.5 53.5t-53.5 22.5q-33 0 -55.5 -22.5t-22.5 -53.5z" />
<glyph unicode="&#xe6;" horiz-adv-x="1744" d="M166 307q0 23 2 47q10 121 124 202t265 81h127q-59 131 -80 131q-70 0 -121 -94l-278 84q104 266 409 266h4q135 0 244 -74q115 78 268 78q262 0 371 -225q53 -115 53 -350h-544q2 -178 120 -179q94 0 195 119l229 -209q-117 -123 -221 -168q-84 -37 -203 -36 q-168 0 -286 92q-123 -94 -287 -95q-170 0 -270 72q-121 86 -121 258zM455 354q0 -29 25.5 -53.5t66.5 -28.5q7 -1 15 0q57 0 122 41q-23 82 -22 129q-6 -2 -35 -2h-80q-39 0 -65.5 -26.5t-26.5 -59.5zM1016 600h233q-20 133 -116.5 133t-116.5 -133z" />
<glyph unicode="&#xe7;" horiz-adv-x="1040" d="M72 504q0 225 129 370q137 154 368 154q115 0 199 -41q94 -45 221 -174l-246 -231q-100 113 -174 112q-147 0 -147 -190.5t147 -190.5q74 0 174 115l246 -233q-168 -166 -291 -201l47 -135l-149 -291h-301l219 305l-45 115q-186 33 -295 180q-102 139 -102 336z" />
<glyph unicode="&#xe8;" horiz-adv-x="1052" d="M72 504q0 225 123 370q131 154 352 154q444 0 444 -575h-571q0 -66 37 -117q39 -57 100 -57q100 0 184 102l224 -205q-106 -117 -181 -153q-86 -43 -237 -43q-221 0 -352 155q-123 146 -123 369zM250 1462h274l191 -329h-203zM424 600h242q-20 133 -117 133 q-105 0 -125 -133z" />
<glyph unicode="&#xe9;" horiz-adv-x="1052" d="M72 504q0 225 123 370q131 154 352 154q444 0 444 -575h-571q0 -66 37 -117q39 -57 100 -57q100 0 184 102l224 -205q-106 -117 -181 -153q-86 -43 -237 -43q-221 0 -352 155q-123 146 -123 369zM338 1133l190 329h273l-262 -329h-201zM424 600h242q-20 133 -117 133 q-105 0 -125 -133z" />
<glyph unicode="&#xea;" horiz-adv-x="1052" d="M72 504q0 225 123 370q131 154 352 154q444 0 444 -575h-571q0 -66 37 -117q39 -57 100 -57q100 0 184 102l224 -205q-106 -117 -181 -153q-86 -43 -237 -43q-221 0 -352 155q-123 146 -123 369zM152 1108l272 328h240l272 -328h-281l-112 166l-111 -166h-280zM424 600 h242q-20 133 -117 133q-105 0 -125 -133z" />
<glyph unicode="&#xeb;" horiz-adv-x="1052" d="M72 504q0 225 123 370q131 154 352 154q444 0 444 -575h-571q0 -66 37 -117q39 -57 100 -57q100 0 184 102l224 -205q-106 -117 -181 -153q-86 -43 -237 -43q-221 0 -352 155q-123 146 -123 369zM164 1237q0 61 43 104t104.5 43t105.5 -43t44 -104t-44 -104t-105.5 -43 t-104.5 43t-43 104zM424 600h242q-20 133 -117 133q-105 0 -125 -133zM588 1237q0 61 44 104t105.5 43t104.5 -43t43 -104t-44 -104t-104 -43q-61 0 -105 43t-44 104z" />
<glyph unicode="&#xec;" horiz-adv-x="542" d="M-29 1462h273l190 -329h-203zM115 0v1012h336v-1012h-336z" />
<glyph unicode="&#xed;" horiz-adv-x="567" d="M115 0v1012h336v-1012h-336zM127 1133l190 329h275l-262 -329h-203z" />
<glyph unicode="&#xee;" horiz-adv-x="571" d="M-109 1108l273 328h239l271 -328h-279l-112 166l-113 -166h-279zM119 0v1012h334v-1012h-334z" />
<glyph unicode="&#xef;" horiz-adv-x="573" d="M-68 1237q0 61 44 104t105.5 43t104.5 -43t43 -104t-43 -104t-104.5 -43t-105.5 43t-44 104zM121 0v1012h334v-1012h-334zM358 1237q0 61 43 104t104.5 43t104.5 -43t43 -104t-43 -104t-104.5 -43t-104.5 43t-43 104z" />
<glyph unicode="&#xf0;" horiz-adv-x="1206" d="M152 520q0 438 331 518h-118v260h135l-105 234h287l102 -234h191v-260h-72l47 -98l41 -78q63 -117 64 -342q0 -217 -74 -338q-119 -197 -377 -196q-260 0 -379 196q-73 121 -73 338zM420 518q0 -129 26 -184q41 -82 156 -82q117 0 158 82q27 55 26 184q0 131 -26 187 q-41 82 -158 81q-115 0 -156 -81q-26 -56 -26 -187z" />
<glyph unicode="&#xf1;" horiz-adv-x="1232" d="M197 0v1012h266v-35q63 51 172 51q207 0 317.5 -126t110.5 -337v-565h-348v565q0 131 -90 131q-80 0 -80 -75v-621h-348zM236 1227q121 158 243 157q76 0 185 -53q72 -35 100 -35q25 0 51 31q18 27 39 53l152 -125l-37 -49q-84 -106 -199 -106q-68 0 -164 41 q-35 16 -104 43q-9 2 -18 2q-31 0 -54 -29q-8 -8 -43 -53z" />
<glyph unicode="&#xf2;" horiz-adv-x="1099" d="M72 500q0 231 110 368q123 152 367 152t369 -152q111 -135 110 -368q0 -213 -78 -330q-127 -193 -399 -193q-244 0 -369 152q-110 135 -110 371zM260 1462h272l191 -329h-201zM426 497.5q0 -94.5 39 -147.5q27 -35 84 -35t84 35q39 53 39 148q0 96 -39 149q-27 35 -84 35 t-84 -35q-39 -55 -39 -149.5z" />
<glyph unicode="&#xf3;" horiz-adv-x="1099" d="M72 500q0 231 110 368q123 152 367 152t369 -152q111 -135 110 -368q0 -213 -78 -330q-127 -193 -399 -193q-244 0 -369 152q-110 135 -110 371zM358 1133l193 329h272l-262 -329h-203zM426 497.5q0 -94.5 39 -147.5q27 -35 84 -35t84 35q39 53 39 148q0 96 -39 149 q-27 35 -84 35t-84 -35q-39 -55 -39 -149.5z" />
<glyph unicode="&#xf4;" horiz-adv-x="1099" d="M72 500q0 231 110 368q123 152 367 152t369 -152q111 -135 110 -368q0 -213 -78 -330q-127 -193 -399 -193q-244 0 -369 152q-110 135 -110 371zM158 1108l270 328h240l272 -328h-278l-113 166l-113 -166h-278zM426 497.5q0 -94.5 39 -147.5q27 -35 84 -35t84 35 q39 53 39 148q0 96 -39 149q-27 35 -84 35t-84 -35q-39 -55 -39 -149.5z" />
<glyph unicode="&#xf5;" horiz-adv-x="1099" d="M72 500q0 231 110 368q123 152 367 152t369 -152q111 -135 110 -368q0 -213 -78 -330q-127 -193 -399 -193q-244 0 -369 152q-110 135 -110 371zM164 1227q123 158 246 157q74 0 184 -53q70 -35 100 -35q25 0 51 31l37 53l154 -125l-39 -49q-84 -106 -199 -106 q-66 0 -163 41q-33 16 -105 43q-9 2 -18 2q-31 0 -54 -29l-41 -53zM426 497.5q0 -94.5 39 -147.5q27 -35 84 -35t84 35q39 53 39 148q0 96 -39 149q-27 35 -84 35t-84 -35q-39 -55 -39 -149.5z" />
<glyph unicode="&#xf6;" horiz-adv-x="1099" d="M72 500q0 231 110 368q123 152 367 152t369 -152q111 -135 110 -368q0 -213 -78 -330q-127 -193 -399 -193q-244 0 -369 152q-110 135 -110 371zM180 1237q0 61 43 104t104.5 43t104.5 -43t43 -104t-43 -104t-104.5 -43t-104.5 43t-43 104zM426 497.5q0 -94.5 39 -147.5 q27 -35 84 -35t84 35q39 53 39 148q0 96 -39 149q-27 35 -84 35t-84 -35q-39 -55 -39 -149.5zM604 1237q0 61 43 104t104.5 43t105.5 -43t44 -104t-44 -104t-105.5 -43t-104.5 43t-43 104z" />
<glyph unicode="&#xf7;" d="M111 442v236h903v-236h-903zM406 258.5q0 63.5 44 108.5t107.5 45t108.5 -45t45 -108.5t-45 -108t-108.5 -44.5t-107.5 44.5t-44 108zM406 864q0 61 44 106.5t107.5 45.5t108.5 -45t45 -107q0 -63 -45 -108t-108.5 -45t-107.5 45t-44 108z" />
<glyph unicode="&#xf8;" horiz-adv-x="1173" d="M109 500q0 231 110 368q125 152 369 152q94 0 172 -25l12 25h229l-71 -125q135 -137 135 -395q0 -213 -78 -330q-127 -193 -399 -193q-92 0 -166 21l-8 -16h-230l66 114q-141 138 -141 404zM463 498q0 -33 6 -64l139 246q-10 2 -22 2q-57 0 -84 -35q-39 -53 -39 -149z M567 315h19q59 0 84 35q41 53 41 148q0 33 -6 59z" />
<glyph unicode="&#xf9;" d="M123 446v566h348v-566q0 -131 92 -131q78 0 78 76v621h348v-1012h-266v35q-61 -51 -170 -51q-207 0 -322 129q-108 122 -108 333zM250 1462h274l191 -329h-203z" />
<glyph unicode="&#xfa;" d="M123 446v566h348v-566q0 -131 92 -131q78 0 78 76v621h348v-1012h-266v35q-61 -51 -170 -51q-207 0 -322 129q-108 122 -108 333zM354 1133l191 329h272l-262 -329h-201z" />
<glyph unicode="&#xfb;" d="M123 446v566h348v-566q0 -131 92 -131q78 0 78 76v621h348v-1012h-266v35q-61 -51 -170 -51q-207 0 -322 129q-108 122 -108 333zM160 1108l272 328h240l272 -328h-280l-113 166l-111 -166h-280z" />
<glyph unicode="&#xfc;" d="M123 446v566h348v-566q0 -131 92 -131q78 0 78 76v621h348v-1012h-266v35q-61 -51 -170 -51q-207 0 -322 129q-108 122 -108 333zM193 1237q0 61 43 104t104 43t105 -43t44 -104t-44 -104t-105 -43t-104 43t-43 104zM616 1237q0 61 44.5 104t105.5 43t104 -43t43 -104 t-44 -104t-103 -43q-61 0 -105.5 43t-44.5 104z" />
<glyph unicode="&#xfd;" horiz-adv-x="1091" d="M8 1012h371l162 -619l170 619h372l-458 -1231q-63 -170 -203 -217q-72 -25 -270 -25h-31v266h37q115 0 132 12q19 13 36 58l47 125zM377 1133l192 329h273l-262 -329h-203z" />
<glyph unicode="&#xfe;" horiz-adv-x="1212" d="M201 -422v1825h362v-350q41 6 82 6q238 0 356 -170q102 -145 103 -385q0 -217 -72 -342q-121 -215 -387 -215q-41 0 -82 6v-375h-362zM563 383q8 -72 82 -72q53 0 72 31q23 38 22 142v18q0 121 -22 162q-18 31 -72 30q-74 0 -82 -73v-238z" />
<glyph unicode="&#xff;" horiz-adv-x="1136" d="M31 1012h370l162 -619l170 619h373l-459 -1231q-63 -170 -203 -217q-72 -25 -269 -25h-32v266h38q115 0 131 12q19 13 36 58l47 125zM211 1237q0 61 43 104t104.5 43t104.5 -43t43 -104t-43 -104t-104.5 -43t-104.5 43t-43 104zM635 1237q0 61 43 104t104.5 43t105.5 -43 t44 -104t-44 -104t-105.5 -43t-104.5 43t-43 104z" />
<glyph unicode="&#x152;" horiz-adv-x="2013" d="M72 715q0 299 116 475q170 256 490 256q143 0 264 -60v44h979v-365h-643v-143h561v-365h-561v-192h643v-365h-979v43q-121 -59 -264 -59q-319 0 -490 256q-116 176 -116 475zM442 714.5q0 -364.5 235.5 -364.5t235.5 365q0 190 -55 274q-61 90 -180 90 q-236 0 -236 -364.5z" />
<glyph unicode="&#x153;" horiz-adv-x="1859" d="M145 500q0 231 111 368q123 152 367 152q186 0 303 -90q121 98 295 98q260 0 368 -225q53 -111 54 -334q0 -8 -1 -16h-542q2 -178 121 -179q92 0 194 119l230 -209q-117 -123 -224 -168q-84 -37 -200 -36q-170 0 -289 94q-127 -96 -309 -97q-244 0 -367 152 q-111 135 -111 371zM498 497.5q0 -94.5 41 -147.5q25 -35 84 -35q57 0 84 35q39 53 38 148q0 96 -38 149q-27 35 -84 35q-59 0 -84 -35q-41 -55 -41 -149.5zM1104 600h235q-20 133 -116 133q-99 0 -119 -133z" />
<glyph unicode="&#x178;" horiz-adv-x="1374" d="M31 1430h411l246 -529l244 529h411l-471 -965v-465h-368v469zM330 1720.5q0 61.5 44 104.5t105.5 43t104.5 -43t43 -104.5t-43 -104.5t-104.5 -43t-105.5 43t-44 104.5zM756 1720.5q0 61.5 43 104.5t104.5 43t104.5 -43t43 -104.5t-43 -104.5t-104.5 -43t-104.5 43 t-43 104.5z" />
<glyph unicode="&#x2c6;" horiz-adv-x="1087" d="M152 1077l272 328h240l272 -328h-281l-112 166l-111 -166h-280z" />
<glyph unicode="&#x2dc;" horiz-adv-x="1144" d="M182 1196q123 154 238 154q76 0 223 -66q47 -20 64 -20q31 2 59 39q6 10 35 47l151 -125l-37 -49q-84 -106 -192 -107q-72 0 -223 66q-31 12 -51 18q-9 2 -19 2q-31 0 -53 -29q-6 -8 -43 -53z" />
<glyph unicode="&#x2013;" d="M111 442v236h903v-236h-903z" />
<glyph unicode="&#x2014;" horiz-adv-x="1855" d="M186 442v236h1483v-236h-1483z" />
<glyph unicode="&#x2018;" horiz-adv-x="587" d="M143 1178l15 143l141 219h145l-14 -362q-2 -61 -44 -101.5t-99 -40.5q-59 0 -105 41q-40 36 -39 87q-1 7 0 14z" />
<glyph unicode="&#x2019;" horiz-adv-x="587" d="M143 1036l15 363q2 59 44 100t99 41q59 0 105 -41q40 -36 39 -86q0 -7 -1 -14l-14 -146l-139 -217h-148z" />
<glyph unicode="&#x201a;" horiz-adv-x="587" d="M143 -217l15 362q2 59 44 99.5t99 40.5q59 0 105 -41q40 -36 39 -85q0 -7 -1 -14l-14 -145l-139 -217h-148z" />
<glyph unicode="&#x201c;" horiz-adv-x="987" d="M143 1178l15 143l141 219h145l-14 -362q-2 -61 -44 -101.5t-99 -40.5q-59 0 -105 41q-40 36 -39 87q-1 7 0 14zM541 1178l14 143l141 219h148l-15 -362q-4 -61 -46 -101.5t-97 -40.5q-59 0 -104 41.5t-41 100.5z" />
<glyph unicode="&#x201d;" horiz-adv-x="987" d="M143 1036l15 363q2 59 44 100t99 41q59 0 105 -41q40 -36 39 -86q0 -7 -1 -14l-14 -146l-139 -217h-148zM541 1036l14 363q2 59 44 100t99 41q59 0 105 -41q40 -36 39 -86v-14l-15 -146l-139 -217h-147z" />
<glyph unicode="&#x201e;" horiz-adv-x="987" d="M143 -217l15 362q2 59 44 99.5t99 40.5q59 0 105 -41q40 -36 39 -85q0 -7 -1 -14l-14 -145l-139 -217h-148zM541 -217l14 362q2 59 44 99.5t99 40.5q59 0 105 -41q40 -36 39 -85v-14l-15 -145l-139 -217h-147z" />
<glyph unicode="&#x2022;" d="M203 692.5q0 149.5 105.5 255t252.5 105.5q150 0 255.5 -105.5t105.5 -255t-105.5 -254t-255.5 -104.5q-147 0 -252.5 104.5t-105.5 254z" />
<glyph unicode="&#x2026;" horiz-adv-x="1583" d="M78 188q0 88 62.5 150.5t150.5 62.5q90 0 152.5 -62.5t62.5 -150.5t-62.5 -150.5t-152.5 -62.5q-88 0 -150.5 62.5t-62.5 150.5zM580 188q0 88 62.5 150.5t150.5 62.5t150.5 -62.5t62.5 -150.5t-62.5 -150.5t-150.5 -62.5t-150.5 62.5t-62.5 150.5zM1081 188 q0 88 62.5 150.5t150.5 62.5t150.5 -62.5t62.5 -150.5t-62.5 -150.5t-150.5 -62.5t-150.5 62.5t-62.5 150.5z" />
<glyph unicode="&#x2039;" horiz-adv-x="722" d="M125 453v149l502 500l2 -334l-244 -240l244 -241v-334z" />
<glyph unicode="&#x203a;" horiz-adv-x="722" d="M125 -47v334l242 241l-242 240l2 334l502 -500v-149z" />
<glyph unicode="&#x2122;" horiz-adv-x="1814" d="M152 1227v196h665v-196h-229v-631h-207v631h-229zM842 596v827h192l226 -516l227 516h192v-827h-206v283l-125 -283h-174l-125 283v-283h-207z" />
<glyph unicode="&#xe000;" horiz-adv-x="1010" d="M0 1010h1010v-1010h-1010v1010z" />
<glyph unicode="&#xfb01;" horiz-adv-x="1212" d="M72 733v279h75v106q0 184 109 254q86 57 291 58h47v-261h-49q-61 0 -62 -63v-94h97l-2 -279h-95v-733h-336v733h-75zM737 1302.5q0 79.5 56.5 135t134.5 55.5q80 0 136 -55.5t56 -135t-56 -135t-136 -55.5q-78 0 -134.5 55.5t-56.5 135zM760 0v1012h334v-1012h-334z" />
<glyph unicode="&#xfb02;" horiz-adv-x="1247" d="M72 733v279h75v106q0 184 109 254q86 57 291 58h47v-261h-49q-61 0 -62 -63v-94h97l-2 -279h-95v-733h-336v733h-75zM778 324v1106h334v-1094q0 -63 64 -64v-272h-107q-135 0 -215 94q-76 89 -76 230z" />
<glyph unicode="&#xfb03;" horiz-adv-x="1857" d="M72 733v279h75v106q0 184 109 254q86 57 291 58h47v-261h-49q-61 0 -62 -63v-94h97l-2 -279h-95v-733h-336v733h-75zM717 733v279h76v106q0 184 108 254q86 57 291 58h47v-261h-49q-61 0 -62 -63v-94h97l-2 -279h-95v-733h-335v733h-76zM1382 1302.5q0 79.5 56.5 135 t134.5 55.5q80 0 136 -55.5t56 -135t-56 -135t-136 -55.5q-78 0 -134.5 55.5t-56.5 135zM1405 0v1012h334v-1012h-334z" />
<glyph unicode="&#xfb04;" horiz-adv-x="1892" d="M72 733v279h75v106q0 184 109 254q86 57 291 58h47v-261h-49q-61 0 -62 -63v-94h97l-2 -279h-95v-733h-336v733h-75zM717 733v279h76v106q0 184 108 254q86 57 291 58h47v-261h-49q-61 0 -62 -63v-94h97l-2 -279h-95v-733h-335v733h-76zM1423 324v1106h334v-1094 q0 -63 64 -64v-272h-107q-135 0 -215 94q-76 89 -76 230z" />
</font>
</defs>
</svg>
