<?xml version="1.0" standalone="no"?>
<!DOCTYPE svg PUBLIC "-//W3C//DTD SVG 1.1//EN" "http://www.w3.org/Graphics/SVG/1.1/DTD/svg11.dtd" >
<svg xmlns="http://www.w3.org/2000/svg">
<metadata>
This is a custom SVG webfont generated by Font Squirrel.
Copyright   : 2004 T26 Digital Type Foundry wwwt26com PSID5134581 designer Neil Summerour  Positype
</metadata>
<defs>
<font id="AauxProBoldRegular" horiz-adv-x="1032" >
<font-face units-per-em="2048" ascent="1638" descent="-410" />
<missing-glyph horiz-adv-x="614" />
<glyph unicode=" "  horiz-adv-x="614" />
<glyph unicode="&#x09;" horiz-adv-x="614" />
<glyph unicode="&#xa0;" horiz-adv-x="614" />
<glyph unicode="!" horiz-adv-x="634" d="M205 116.5q0 55.5 39 94.5t94 39t94 -39t39 -94.5t-39 -94t-94 -38.5t-94 38.5t-39 94zM231 750v680h213v-680l-10 -390h-192z" />
<glyph unicode="&#x22;" horiz-adv-x="808" d="M133 1126v304q0 43 31 73.5t74 30.5t72.5 -30.5t29.5 -73.5v-304h-207zM469 1126v304q0 43 29.5 73.5t74.5 30.5q43 0 73 -30.5t30 -73.5v-304h-207z" />
<glyph unicode="#" horiz-adv-x="1495" d="M113 403l43 201h245l50 223h-246l45 201h244l88 402h209l-89 -402h228l88 402h207l-88 -402h245l-45 -201h-243l-50 -223h244l-43 -201h-244l-88 -403h-208l88 403h-228l-88 -403h-209l88 403h-243zM608 604h228l49 223h-228z" />
<glyph unicode="$" horiz-adv-x="1081" d="M109 379l188 72q45 -117 162 -146v367q-150 35 -221 90q-109 82 -109 229q0 139 104 228q88 74 226 92v119h194v-121q190 -33 297 -217l-172 -95q-51 88 -125 111v-287q162 -41 240 -102q111 -86 111 -246q0 -152 -107 -252q-96 -90 -244 -115v-106h-194v109 q-264 41 -350 270zM326 991q0 -82 133 -123v246q-133 -21 -133 -123zM653 305q154 39 154 168q0 106 -154 152v-320z" />
<glyph unicode="%" horiz-adv-x="1675" d="M113 1046.5q0 165.5 59 260.5q88 143 256 143t256 -143q59 -94 59 -260t-59 -261q-88 -143 -256 -143t-256 143q-59 95 -59 260.5zM291 1046.5q0 -116.5 34.5 -173t102.5 -56.5t103.5 56.5t35.5 173t-35.5 173t-103.5 56.5t-102.5 -56.5t-34.5 -173zM412 0l655 1430h197 l-656 -1430h-196zM932 381q0 166 59 262q88 141 256 141t256 -141q59 -96 60 -262q0 -164 -60 -260q-88 -141 -256 -141t-256 141q-59 96 -59 260zM1108 381q0 -117 35 -170q35 -59 104 -59q68 0 105 59q33 53 32.5 170t-35 173t-102.5 56q-70 0 -104.5 -56t-34.5 -173z" />
<glyph unicode="&#x26;" horiz-adv-x="1447" d="M63 397q0 256 259 422q-106 164 -106.5 303.5t92.5 230.5t232.5 91t226.5 -87t87 -224q0 -209 -240 -365q156 -203 322 -365q61 115 61 302h201q0 -262 -108 -435l129 -98l-117 -172q-43 31 -141 109q-162 -129 -410 -129q-201 0 -338 106q-150 116 -150 311zM272 397 q0 -102 93 -164q80 -53 186 -53q143 0 250 72q-190 180 -361 403q-168 -108 -168 -258zM426 1122q0 -86 72 -196q145 98 145 207q0 106 -102 106q-115 0 -115 -117z" />
<glyph unicode="'" horiz-adv-x="473" d="M133 1126v304q0 43 31 73.5t74 30.5t72.5 -30.5t29.5 -73.5v-304h-207z" />
<glyph unicode="(" horiz-adv-x="702" d="M84 715q0 195 80 386t221 329h268q-178 -145 -272 -340q-86 -182 -86 -375q0 -406 358 -715h-268q-143 139 -223 332q-78 186 -78 383z" />
<glyph unicode=")" horiz-adv-x="702" d="M84 0q358 309 358 715q0 193 -88 375q-92 195 -270 340h266q143 -137 223 -329t80 -386q0 -197 -78 -383q-80 -193 -225 -332h-266z" />
<glyph unicode="*" horiz-adv-x="956" d="M92 1120l55 170l250 -90l-8 266h178l-8 -266l252 90l53 -170l-254 -73l162 -211l-143 -105l-150 219l-151 -219l-144 105l164 211z" />
<glyph unicode="+" horiz-adv-x="1077" d="M92 473v174h359v361h176v-361h358v-174h-358v-358h-176v358h-359z" />
<glyph unicode="," horiz-adv-x="512" d="M133 143q0 51 36 85t87 34q49 0 86 -33.5t37 -85.5v-143l-174 -268h-72v411z" />
<glyph unicode="-" horiz-adv-x="854" d="M133 477v166h588v-166h-588z" />
<glyph unicode="." horiz-adv-x="546" d="M133 123q0 57 41 98t98 41q59 0 100.5 -41t41.5 -98t-41 -98t-101 -41q-57 0 -98 41t-41 98z" />
<glyph unicode="/" horiz-adv-x="897" d="M10 -156l668 1741h209l-668 -1741h-209z" />
<glyph unicode="0" horiz-adv-x="1214" d="M102 715q0 293 99 481q131 244 407.5 244t405.5 -244q98 -188 98 -481t-98 -482q-129 -248 -405.5 -247.5t-407.5 247.5q-99 189 -99 482zM311 715q0 -530 297 -530.5t297 530.5q0 526 -297 526t-297 -526z" />
<glyph unicode="1" horiz-adv-x="845" d="M61 1180l392 250h127v-1430h-215v1145l-199 -131z" />
<glyph unicode="2" horiz-adv-x="1157" d="M102 0v166q129 330 383 518l207 139q117 92 117 205q0 100 -78 162q-72 55 -176 55q-182 0 -266 -196l-185 84q135 313 451 313q195 0 326 -111q137 -117 137 -309q0 -137 -60 -229q-47 -68 -151 -140l-193 -133q-176 -133 -268 -321h709v-203h-953z" />
<glyph unicode="3" horiz-adv-x="1126" d="M82 336l203 63q70 -209 270 -209q113 0 183.5 64.5t70.5 165.5q0 240 -330 239h-6v168q305 0 305 211q0 84 -69.5 144.5t-163.5 60.5q-174 0 -244 -194l-197 77q131 319 441 320q188 0 317 -112.5t129 -295.5q0 -193 -137 -286q170 -106 170 -332q0 -197 -134 -315.5 t-337 -118.5q-354 0 -471 350z" />
<glyph unicode="4" horiz-adv-x="1153" d="M61 346v158l607 926h233l-579 -887h417v448l209 -30v-418h133v-197h-133v-346h-209v346h-678z" />
<glyph unicode="5" horiz-adv-x="1120" d="M92 317l195 74q68 -205 262 -205q135 0 207.5 83t72.5 222.5t-70.5 220.5t-205.5 81q-129 0 -238 -103h-168v740h803v-201h-602v-295q109 57 203 57q227 0 357 -137t130 -362.5t-133 -362.5q-133 -143 -358 -143q-349 -1 -455 331z" />
<glyph unicode="6" horiz-adv-x="1136" d="M102 481q0 594 514 949h279q-385 -270 -520 -570q96 68 233 68q205 0 326 -137.5t121 -344.5q0 -201 -133.5 -329.5t-335.5 -128.5q-215 0 -349.5 139t-134.5 354zM311 455q0 -109 83 -189t193.5 -80t185.5 75t75 185q0 119 -71.5 200t-188.5 81q-131 0 -204 -71.5 t-73 -200.5z" />
<glyph unicode="7" horiz-adv-x="1038" d="M61 1133v297h916v-168q-211 -225 -318 -488q-122 -306 -121 -700q0 -36 1 -74h-215q0 14 -1 28q0 403 113 720q88 248 262 481h-436v-96h-201z" />
<glyph unicode="8" horiz-adv-x="1118" d="M82 424q0 221 178 328q-141 100 -141 284q0 178 133 293q127 113 307 113t307 -111q133 -117 133 -295q0 -193 -131 -284q168 -98 168 -328q0 -199 -138 -318.5t-339 -119.5q-203 0 -336 116q-141 123 -141 322zM291 424q0 -106 80 -172t188.5 -66t187 65.5t78.5 172.5 q0 115 -74.5 180.5t-191.5 65.5q-119 0 -190 -64q-78 -65 -78 -182zM328 1036q0 -100 67 -153q61 -49 164 -49t166 51t63 151q0 90 -68.5 148.5t-160.5 58.5t-161.5 -58.5t-69.5 -148.5z" />
<glyph unicode="9" horiz-adv-x="1110" d="M82 983q0 193 133 327t326 134q219 0 352 -154q125 -145 125 -368q0 -563 -502 -922h-287q199 145 308 258q139 147 217 324q-104 -59 -209 -60q-197 0 -330 133t-133 328zM287 983.5q0 -106.5 72.5 -183.5t179.5 -77q111 0 188.5 74.5t77.5 185.5t-78 186.5t-188 75.5 q-106 0 -179 -77.5t-73 -184z" />
<glyph unicode=":" horiz-adv-x="546" d="M133 123q0 57 41 98t98 41q59 0 100.5 -41t41.5 -98t-41 -98t-101 -41q-57 0 -98 41t-41 98zM133 712.5q0 57.5 41 99.5t98 42q59 0 100.5 -42t41.5 -99.5t-41 -98.5t-101 -41q-57 0 -98 41t-41 98.5z" />
<glyph unicode=";" horiz-adv-x="546" d="M133 712.5q0 57.5 41 99.5t98 42q59 0 100.5 -42t41.5 -99.5t-41 -98.5t-101 -41q-57 0 -98 41t-41 98.5zM150 143q0 51 35.5 85t86.5 34q49 0 86 -33.5t37 -85.5v-143l-174 -268h-71v411z" />
<glyph unicode="&#x3c;" horiz-adv-x="1044" d="M102 715l568 715h272l-567 -715l567 -715h-272z" />
<glyph unicode="=" horiz-adv-x="1097" d="M113 223v172h872v-172h-872zM113 629v172h872v-172h-872z" />
<glyph unicode="&#x3e;" horiz-adv-x="1044" d="M102 0l568 715l-568 715h273l567 -715l-567 -715h-273z" />
<glyph unicode="?" horiz-adv-x="1030" d="M86 1008q0 209 131 329q119 109 295 109q172 0 293 -105q127 -111 127 -286q0 -186 -187 -295q-78 -47 -104 -80q-35 -43 -39 -119l-8 -205h-162q-20 158 -20 207q0 135 61 219q39 57 125 111q74 45 90 61q41 39 41 101q0 88 -60.5 139t-156.5 51q-98 0 -160 -55 q-70 -63 -69 -182h-197zM381 114.5q0 55.5 39 94.5t94 39q53 0 92 -39t39 -94.5t-39 -94t-92 -38.5q-55 0 -94 38.5t-39 94z" />
<glyph unicode="@" horiz-adv-x="1492" d="M133 504q0 178 70 360q96 248 285.5 409t392.5 161q78 0 149 -25q176 -63 264 -250q66 -139 66 -317q0 -139 -41 -281l-35 -569l-201 12l7 105q-139 -135 -297 -136q-53 0 -105 19q-113 39 -172 147q-57 100 -57 238q0 129 49 256q102 264 317 358q74 33 150 33 q94 0 172 -51q-43 201 -186 252q-37 14 -80 14q-135 0 -269 -117q-143 -123 -221 -327q-59 -154 -59 -303q0 -211 112 -338l-104 -152q-207 189 -207 502zM662 379q0 -76 26 -133q35 -76 103 -76q70 0 145 66q84 76 133 198q37 94 37 187q0 78 -26.5 133t-69.5 69 q-18 7 -38 7q-30 0 -65 -15q-109 -49 -180 -184q-65 -125 -65 -252z" />
<glyph unicode="A" horiz-adv-x="1380" d="M20 0l568 1430h205l567 -1430h-234l-159 401h-553l-160 -401h-234zM496 608h389l-195 492z" />
<glyph unicode="B" horiz-adv-x="1308" d="M154 0v1430h512q215 0 338 -91q141 -102 141 -313q0 -170 -103 -278q154 -113 154 -330t-145 -326q-127 -92 -353 -92h-544zM371 211h327q137 0 197 35q84 47 84 172t-84 170q-59 35 -197 35h-327v-412zM371 836h295q125 0 182 28q80 43 80 162t-80 162q-57 31 -184 31 h-293v-383z" />
<glyph unicode="C" horiz-adv-x="1261" d="M92 714.5q0 315.5 131 508.5q154 225 455 225q158 0 278 -76q92 -57 213 -196l-168 -138q-88 104 -139 142q-80 55 -184 55q-369 0 -369 -520t369 -520q104 0 184 57q51 35 139 139l168 -137q-121 -139 -213 -197q-121 -76 -278 -75q-301 0 -455 225q-131 192 -131 507.5 z" />
<glyph unicode="D" horiz-adv-x="1329" d="M154 0v1430h452q260 0 393 -74q166 -92 201 -330q16 -106 16.5 -311t-16.5 -312q-35 -238 -201 -329q-133 -74 -393 -74h-452zM371 213h235q199 0 281 47t100 164q12 63 12 290.5t-12 293.5q-18 115 -100 163t-281 48h-235v-1006z" />
<glyph unicode="E" horiz-adv-x="1206" d="M154 0v1430h950v-211h-735v-385h643v-197h-643v-426h735v-211h-950z" />
<glyph unicode="F" horiz-adv-x="1165" d="M154 0v1430h929v-211h-714v-385h641v-197h-641v-637h-215z" />
<glyph unicode="G" horiz-adv-x="1318" d="M92 715q0 315 131 508q154 225 457 225q158 0 276 -76q94 -57 215 -196l-167 -138q-156 197 -324 197q-371 0 -371 -520t361 -520q154 0 235 122q74 109 74 271h-356v213h563v-801h-199v131q-115 -150 -317 -149q-297 0 -449 227q-129 195 -129 506z" />
<glyph unicode="H" horiz-adv-x="1380" d="M154 0v1430h217v-588h639v588h217v-1430h-217v637h-639v-637h-217z" />
<glyph unicode="I" horiz-adv-x="550" d="M164 0v1430h223v-1430h-223z" />
<glyph unicode="J" horiz-adv-x="1101" d="M31 356l209 56q33 -125 77 -166q51 -47 179 -47q141 0 199.5 58t58.5 196v977h215v-977q0 -227 -122 -347t-351 -120q-365 -1 -465 370z" />
<glyph unicode="K" horiz-adv-x="1265" d="M154 0v1430h217v-699l506 699h249l-514 -707l623 -723h-277l-587 715v-715h-217z" />
<glyph unicode="L" horiz-adv-x="1050" d="M154 0v1430h215v-1219h651v-211h-866z" />
<glyph unicode="M" horiz-adv-x="1531" d="M154 0v1430h200l410 -1092l412 1092h202v-1430h-219v807l-303 -807h-182l-301 807v-807h-219z" />
<glyph unicode="N" horiz-adv-x="1331" d="M154 0v1430h198l611 -990v990h215v-1430h-199l-608 989v-989h-217z" />
<glyph unicode="O" horiz-adv-x="1363" d="M92 714.5q0 315.5 131 508.5q156 225 459 225q305 0 459 -225q131 -193 131 -508.5t-131 -507.5q-154 -225 -459 -225q-303 0 -459 225q-131 192 -131 507.5zM309 715q0 -520 373 -520t373 520t-373 520t-373 -520z" />
<glyph unicode="P" horiz-adv-x="1267" d="M154 0v1430h544q225 0 353 -95q145 -106 145 -323q0 -215 -139 -326q-127 -100 -348 -100h-338v-586h-217zM371 786h327q281 0 281 226q0 125 -84 172q-61 35 -197 35h-327v-433z" />
<glyph unicode="Q" horiz-adv-x="1466" d="M113 714.5q0 315.5 133 508.5q154 225 457 225t458 -225q133 -193 133 -508q0 -322 -125 -498l185 -219h-283l-57 70q-137 -86 -312 -86q-303 0 -456 225q-133 192 -133 507.5zM330 715q0 -520 372 -520q98 0 177 36q-84 70 -187 82v191q201 -18 324 -121q59 113 59 332 q0 520 -372.5 520t-372.5 -520z" />
<glyph unicode="R" horiz-adv-x="1282" d="M154 0v1430h512q215 0 346 -97q143 -111 143 -319q0 -145 -80 -248.5t-223 -136.5l365 -629h-252l-283 506q-55 98 -141 98h-170v-604h-217zM371 803h295q262 0 262 211q0 205 -262 205h-295v-416z" />
<glyph unicode="S" horiz-adv-x="1290" d="M92 446l215 37q31 -158 118 -225.5t249 -67.5q119 0 205 54q102 63 102 176q0 139 -215 205l-399 114q-215 98 -215 318q0 188 151 293q133 90 330 90q205 0 327.5 -80t210.5 -264l-196 -90q-68 131 -133.5 176t-208.5 45q-264 0 -264 -170q0 -111 215 -168 q344 -94 399 -125q215 -111 215 -344q0 -205 -164 -328q-150 -115 -360 -115q-498 0 -582 469z" />
<glyph unicode="T" horiz-adv-x="1155" d="M41 1219v211h1073v-211h-428v-1219h-217v1219h-428z" />
<glyph unicode="U" horiz-adv-x="1359" d="M143 606v824h217v-824q0 -199 58 -293q74 -119 262 -118.5t262 118.5q57 94 57 295v822h218v-824q0 -625 -537 -625t-537 625z" />
<glyph unicode="V" horiz-adv-x="1236" d="M51 1430h230l337 -1065l340 1065h228l-473 -1430h-189z" />
<glyph unicode="W" horiz-adv-x="1638" d="M31 1430h225l231 -947l242 947h180l244 -947l229 947h226l-351 -1430h-194l-244 952l-241 -952h-191z" />
<glyph unicode="X" horiz-adv-x="1323" d="M51 0l481 735l-454 695h258l326 -512l325 512h258l-454 -695l481 -735h-258l-352 549l-353 -549h-258z" />
<glyph unicode="Y" horiz-adv-x="1271" d="M51 1430h242l340 -687l346 687h242l-476 -953v-477h-219v481z" />
<glyph unicode="Z" horiz-adv-x="1230" d="M92 0v164l735 1055h-665v211h956v-170l-731 -1047h731v-213h-1026z" />
<glyph unicode="[" horiz-adv-x="632" d="M143 -156v1741h387v-135h-188v-1468h188v-138h-387z" />
<glyph unicode="\" horiz-adv-x="897" d="M10 1585h209l668 -1741h-209z" />
<glyph unicode="]" horiz-adv-x="632" d="M102 -18h189v1468h-189v135h387v-1741h-387v138z" />
<glyph unicode="^" horiz-adv-x="1173" d="M113 848l389 582h170l389 -582l-174 -90l-301 450l-299 -450z" />
<glyph unicode="_" horiz-adv-x="1083" d="M31 0h1022v-182h-1022v182z" />
<glyph unicode="`" horiz-adv-x="712" d="M154 1415h231l174 -299h-168z" />
<glyph unicode="a" horiz-adv-x="1013" d="M92 295q0 135 107.5 229t253.5 94h165q35 0 60 17v88q0 37 -42 67.5t-110 30.5q-158 0 -209 -129l-200 60q98 272 409 272q145 0 253 -86t108 -215v-573l35 -111l-201 -57l-16 53q-109 -55 -252 -55q-145 0 -253 91t-108 224zM301 295q0 -43 43 -82t109 -39q143 0 225 74 v184q-29 -6 -60 -6h-165q-63 0 -107.5 -43t-44.5 -88z" />
<glyph unicode="b" horiz-adv-x="1050" d="M133 0v1430h209v-459q96 55 197 55q244 0 352 -190q68 -117 67.5 -332t-67.5 -332q-109 -190 -352 -190q-129 0 -197 55v-37h-209zM342 365q6 -57 27 -91q49 -86 170 -86q123 0 170 86q41 70 41 230t-41 229q-47 86 -170 86q-121 0 -170 -86q-20 -33 -27 -92v-276z" />
<glyph unicode="c" d="M92 503.5q0 231.5 124 377t339 145.5q111 0 193.5 -41t191.5 -156l-154 -135q-68 72 -102 97q-57 39 -129 38q-129 0 -195 -92q-53 -74 -53 -233.5t53 -231.5q66 -92 195 -92q72 0 129 39q35 25 102 94l154 -135q-109 -115 -191.5 -154.5t-193.5 -39.5q-215 0 -340 147 q-123 141 -123 372.5z" />
<glyph unicode="d" horiz-adv-x="1050" d="M92 504q0 215 68 332q111 190 354 190q106 0 197 -43v447h211v-1276l36 -123l-200 -60l-21 68q-100 -59 -223 -59q-244 0 -354 190q-68 119 -68 334zM303 504q0 -160 39 -230q49 -86 172 -86t172 86q18 33 25 91v278q-6 57 -25 90q-49 86 -172 86t-172 -86 q-39 -69 -39 -229z" />
<glyph unicode="e" d="M92 498q0 217 78 333q121 178 367 179q223 0 342 -181q49 -72 59 -198q3 -29 3 -113q0 -42 -1 -98h-635q8 -98 41 -146q61 -92 207 -92q125 0 213 97l168 -125q-156 -172 -379 -172q-262 0 -385 182q-78 117 -78 334zM311 623h416q-8 74 -25 98q-59 86 -167 86 q-189 0 -224 -184z" />
<glyph unicode="f" horiz-adv-x="667" d="M113 825v185h86q4 213 101 316.5t316 103.5v-207q-127 0 -170 -45t-45 -166h187v-187h-187v-825h-202v825h-86z" />
<glyph unicode="g" horiz-adv-x="1050" d="M92 -70q0 39 8 80l201 -61q-7 -17 -6 -33q0 -23 14 -43q49 -68 195 -68q109 0 186 64q70 53 78 117q1 5 1 10q0 32 -23 51q-20 18 -57 18q-10 0 -21 -2q-35 -4 -144 -26q-90 -18 -145 -19q-84 0 -135 33q-82 51 -82 152q0 98 71 178q-104 98 -104 281q0 207 133 301 q88 63 246 63q152 0 240 -59q8 14 8 86h211q0 -186 -99 -250q20 -63 21 -141q0 -209 -135 -304q-88 -63 -246 -63q-6 0 -94 10q-51 -37 -52 -65q0 -45 46 -46q10 0 22 3q47 6 107 18q104 35 163 35q115 0 197 -67.5t82 -178.5q0 -35 -8 -74q-20 -84 -92 -163 q-135 -152 -375 -152q-158 0 -273 70q-139 85 -139 245zM340 662q0 -113 45 -146q57 -41 122.5 -41t123.5 41q47 33 47 146q0 100 -48 133.5t-122 33.5t-121 -33.5t-47 -133.5z" />
<glyph unicode="h" horiz-adv-x="1071" d="M133 0v1430h209v-447q90 45 197 45q240 0 350 -166q70 -106 69 -299v-563h-208v563q0 129 -37 185q-47 72 -174 71q-121 0 -170 -84q-16 -29 -27 -65v-670h-209z" />
<glyph unicode="i" horiz-adv-x="532" d="M143 1356q0 51 37 88t88 37t88 -37t37 -88t-37 -88t-88 -37t-88 37t-37 88zM162 0v1012h211v-1012h-211z" />
<glyph unicode="j" horiz-adv-x="540" d="M-41 -250q135 0 180 55q39 47 39 177v1030h205v-1030q0 -178 -61 -277q-98 -156 -363 -156v201zM158 1356q0 51 36.5 88t88 37t88.5 -37t37 -88t-37 -88t-88.5 -37t-88 37t-36.5 88z" />
<glyph unicode="k" horiz-adv-x="980" d="M133 0v1430h209v-869l258 451h225l-264 -463l410 -549h-252l-377 545v-545h-209z" />
<glyph unicode="l" horiz-adv-x="493" d="M133 268v1162h193v-1162q0 -43 11 -52t64 -9v-207q-180 0 -235 104q-33 62 -33 164z" />
<glyph unicode="m" horiz-adv-x="1617" d="M133 0v995h215v-37q66 51 172 52q207 0 303 -101q100 100 285 101q240 0 338 -150q66 -102 65 -287v-573h-215v573q0 127 -34 181q-43 68 -154 67q-106 0 -150 -80q-23 -39 -30 -104q2 -31 2 -64v-573h-215v573q0 127 -35 181q-43 68 -160 67q-96 0 -147 -61 q-25 -31 -25 -78v-682h-215z" />
<glyph unicode="n" horiz-adv-x="1071" d="M133 0v995h209v-30q94 45 197 45q248 0 350 -148q70 -102 69 -289v-573h-208v573q0 125 -37 179q-47 70 -174 69q-123 0 -172 -84q-14 -25 -25 -61v-676h-209z" />
<glyph unicode="o" horiz-adv-x="1062" d="M92 496q0 219 72 333q115 182 368 183q252 0 367 -183q72 -113 72 -331q0 -221 -72 -336q-115 -180 -367 -180q-254 0 -368 180q-72 117 -72 334zM303 496q0 -162 41 -228q53 -86 186 -86q135 0 189 86q41 66 41 228q0 164 -41 229q-53 84 -189 84q-133 0 -186 -84 q-41 -65 -41 -229z" />
<glyph unicode="p" horiz-adv-x="1050" d="M133 -451v1446h209v-30q90 45 197 45q244 0 352 -191q68 -115 68 -316q0 -6 -1 -11q0 -207 -67 -324q-109 -190 -352 -191q-106 0 -197 46v-474h-209zM342 362q6 -57 27 -92q49 -86 170 -86q123 0 170 86q41 70 41 223.5t-41 223.5q-47 84 -170 84q-121 0 -170 -84 q-20 -35 -27 -92v-263z" />
<glyph unicode="q" horiz-adv-x="1091" d="M92 491.5q0 210.5 68 329.5q109 190 354 191q125 0 223 -60l21 70l200 -61l-36 -123v-1289h-211v469q-90 -45 -197 -45q-244 0 -354 191q-68 117 -68 327.5zM303 494q0 -158 39 -228q49 -86 172 -86t172 86q18 35 25 94v269q-6 55 -25 90q-49 86 -172 86t-172 -86 q-39 -68 -39 -211v-14z" />
<glyph unicode="r" horiz-adv-x="817" d="M133 0v1001h205v-30q88 41 190 41q106 0 228 -54l-92 -188q-74 41 -136 41q-72 0 -127 -37q-63 -41 -63 -108v-666h-205z" />
<glyph unicode="s" horiz-adv-x="980" d="M92 264l207 39q29 -74 82 -100q43 -20 129 -21q66 0 117 25q63 33 63 92q0 82 -147 121q-248 66 -275 78q-147 72 -147 229q0 141 115 217q98 68 245 68q268 0 373 -195l-188 -92q-49 84 -185 84q-152 0 -151 -82q0 -51 147 -86q203 -47 275 -88q147 -82 147 -254 q0 -150 -125 -238q-111 -80 -264 -79q-328 -1 -418 282z" />
<glyph unicode="t" horiz-adv-x="616" d="M61 823v189h123v270h201v-270h139v-189h-139v-557q0 -59 27 -59h90v-207h-90q-127 0 -191 102q-37 61 -37 164v557h-123z" />
<glyph unicode="u" horiz-adv-x="1081" d="M123 418v594h209v-594q0 -123 41 -172q47 -55 170 -56q68 0 127 37q70 43 69 109v676h209v-1012h-209v33q-100 -49 -196 -49q-420 0 -420 434z" />
<glyph unicode="v" horiz-adv-x="1034" d="M41 1012h225l250 -666l252 666h225l-387 -1012h-180z" />
<glyph unicode="w" horiz-adv-x="1603" d="M41 1012h225l207 -639l236 639h182l235 -641l211 641h226l-336 -1012h-187l-241 639l-240 -639h-186z" />
<glyph unicode="x" horiz-adv-x="1062" d="M41 0l362 518l-344 494h256l217 -320l216 320h256l-345 -494l363 -518h-256l-234 338l-235 -338h-256z" />
<glyph unicode="y" d="M41 1012h225l242 -711l258 711h225l-459 -1241q-35 -90 -92 -144q-86 -78 -204 -78h-7h-96l2 209q46 -1 71 -1t30 1q68 4 100 86l59 156z" />
<glyph unicode="z" horiz-adv-x="974" d="M82 0v172l506 639h-461v201h756v-166l-510 -643h510v-203h-801z" />
<glyph unicode="{" horiz-adv-x="839" d="M123 631v168q100 0 146 34.5t46 131.5q0 37 -19.5 118.5t-19.5 116.5q0 428 441 428v-190q-129 0 -178.5 -60.5t-49.5 -191.5q0 -35 20.5 -110t20.5 -107q0 -162 -104 -254q104 -90 104 -252q0 -35 -20.5 -112t-20.5 -111q0 -244 224 -244h4v-193q-209 0 -322 101 q-119 106 -119 313q0 39 19.5 124t19.5 124q0 98 -49 135q-41 31 -143 31z" />
<glyph unicode="|" horiz-adv-x="595" d="M195 -156v1741h206v-1741h-206z" />
<glyph unicode="}" horiz-adv-x="839" d="M123 -4h4q224 0 223 244q0 35 -21.5 111.5t-21.5 111.5q0 162 107 252q-104 92 -105 254q0 33 19.5 107.5t19.5 109.5q0 131 -45 188q-53 63 -180 64v190q438 0 438 -428q0 -35 -18.5 -117t-18.5 -118q0 -96 49 -134q41 -33 144 -32v-168q-102 0 -146 -31 q-47 -37 -47 -135q0 -39 19.5 -124t19.5 -124q0 -207 -115.5 -310.5t-324.5 -103.5v193z" />
<glyph unicode="~" horiz-adv-x="1042" d="M78 598q131 170 276 170q82 0 186.5 -65.5t149.5 -65.5q47 0 133 106l144 -139q-129 -166 -281 -166q-82 0 -186.5 65.5t-149.5 65.5q-51 0 -125 -106z" />
<glyph unicode="&#xa1;" horiz-adv-x="634" d="M205 852q0 55 39 94t94 39t94 -39t39 -94t-39 -94t-94 -39t-94 39t-39 94zM231 221l11 387h192l10 -387v-682h-213v682z" />
<glyph unicode="&#xa2;" horiz-adv-x="1028" d="M92 489q0 223 111.5 363.5t310.5 155.5l33 157l172 -35l-31 -137q111 -29 248 -176l-141 -129q-92 100 -146 123l-143 -653q25 -4 49 -4q76 0 133 39q39 27 107 98l141 -127q-104 -113 -186 -153t-195 -40q-45 0 -88 6l-29 -131l-170 35l35 158q-211 133 -211 450z M291 489q0 -160 57 -237l123 561q-78 -23 -125 -88q-55 -80 -55 -236z" />
<glyph unicode="&#xa3;" horiz-adv-x="1114" d="M92 616l43 199h80q-20 113 -20 184q0 190 102 308q113 129 299 129q147 0 252 -64q76 -45 174 -158l-152 -131q-78 88 -122 115q-59 37 -152 37q-199 0 -199 -236q0 -68 23 -184h266l-43 -199h-182q14 -90 14 -163q0 -121 -41 -252h549v-201h-788v143q78 174 77 312 q0 66 -18 161h-162z" />
<glyph unicode="&#xa4;" horiz-adv-x="1445" d="M68 455l47 192h98l-2 72h-143l47 192h108q37 246 199 391.5t407.5 145.5t427.5 -158l-122 -178q-78 72 -140 100q-68 31 -166 31q-156 0 -255 -88t-130 -244h531l-47 -192h-498l2 -72h543l-47 -192h-467q43 -127 139 -198t229 -71q98 0 166 31q61 29 140 100l133 -176 q-184 -160 -439 -159q-223 0 -382.5 128t-208.5 345h-170z" />
<glyph unicode="&#xa5;" horiz-adv-x="1312" d="M72 1430h241l344 -685l342 685h242l-326 -652h179l-47 -207h-234l-45 -86h319l-40 -211h-281v-274h-219v274l-326 -2l45 211h281l-45 88h-283l47 207h133z" />
<glyph unicode="&#xa6;" horiz-adv-x="768" d="M301 -156v803h178v-803h-178zM301 784v803h178v-803h-178z" />
<glyph unicode="&#xa7;" horiz-adv-x="1087" d="M133 -72l176 99q123 -231 230 -232q78 0 125 50.5t47 140.5q0 66 -33 94q-39 37 -158 65q-383 94 -383 408q0 170 92 278q-53 80 -53 195q0 172 103.5 282.5t269.5 110.5q225 0 405 -336l-178 -98q-123 231 -227 232q-78 0 -125 -51.5t-47 -139.5q0 -66 33 -96 q39 -37 157 -66q383 -92 383 -405q0 -170 -94 -279q55 -80 55 -194q0 -172 -104.5 -284t-267.5 -112q-226 0 -406 338zM338 553q0 -154 229 -209q76 -18 129 -41q53 53 54 156q0 154 -230 209q-76 18 -129 41q-53 -54 -53 -156z" />
<glyph unicode="&#xa8;" horiz-adv-x="956" d="M133 1206.5q0 55.5 39 94t94.5 38.5t94 -38.5t38.5 -94t-38.5 -94.5t-94 -39t-94.5 39t-39 94.5zM557 1206.5q0 55.5 39 94t94 38.5t94 -38.5t39 -94t-39 -94.5t-94 -39t-94 39t-39 94.5z" />
<glyph unicode="&#xa9;" horiz-adv-x="1617" d="M92 713q0 297 210 507t507 210t507 -210t210 -507t-210 -507t-507 -210t-507 210t-210 507zM256 712.5q0 -229.5 162 -392t391 -162.5t392 162.5t163 392t-163 392.5t-392 163t-391 -163t-162 -392.5zM492 713q0 174 63 272q94 145 268 145q82 0 144.5 -35.5 t138.5 -125.5l-133 -111q-53 66 -88 86q-23 14 -62 14q-80 0 -123 -65q-37 -57 -36.5 -180t36.5 -181q43 -63 123 -63q39 0 62 14q35 18 88 84l133 -110q-76 -90 -138.5 -126t-144.5 -36q-174 0 -268 145q-63 101 -63 273z" />
<glyph unicode="&#xaa;" horiz-adv-x="880" d="M92 874q0 111 91 189t216 78h127q20 0 35 6v45q0 25 -24 45q-31 23 -80 23q-92 0 -144 -80l-188 59q100 209 334 209q123 0 211 -74t88 -182v-434l30 -96l-188 -56l-12 41q-86 -41 -189 -41q-125 0 -216 77.5t-91 190.5zM258 387v162h352v-162h-352zM289 874 q0 -31 30.5 -55t79.5 -24q92 0 162 61v98q-16 -2 -35 -2h-127q-49 0 -79.5 -24.5t-30.5 -53.5z" />
<glyph unicode="&#xab;" horiz-adv-x="1005" d="M92 467v123l467 438v-233l-283 -267l283 -268v-233zM426 467v123l465 438l2 -233l-283 -267l283 -268v-233z" />
<glyph unicode="&#xac;" horiz-adv-x="1118" d="M92 440v183h914v-459h-181v276h-733z" />
<glyph unicode="&#xad;" horiz-adv-x="1101" d="M117 477v166h868v-166h-868z" />
<glyph unicode="&#x2212;" horiz-adv-x="1101" d="M117 477v166h868v-166h-868z" />
<glyph unicode="&#xae;" horiz-adv-x="1617" d="M92 713q0 297 210 507t507 210t507 -210t210 -507t-210 -507t-507 -210t-507 210t-210 507zM256 712.5q0 -229.5 162 -392t391 -162.5t392 162.5t163 392t-163 392.5t-392 163t-391 -163t-162 -392.5zM537 309v809h297q113 0 178 -41q104 -66 104 -207q0 -168 -143 -225 l205 -336h-201l-168 277q-23 39 -49 39h-51v-316h-172zM709 797h125q59 0 84.5 14t25.5 59t-23.5 60.5t-86.5 15.5h-125v-149z" />
<glyph unicode="&#xaf;" horiz-adv-x="1122" d="M227 1178v165h670v-165h-670z" />
<glyph unicode="&#x2c9;" horiz-adv-x="1122" d="M227 1178v165h670v-165h-670z" />
<glyph unicode="&#xb0;" horiz-adv-x="645" d="M92 1354q0 94 67.5 161.5t164.5 67.5q94 0 161.5 -67.5t67.5 -161.5q0 -96 -67.5 -164t-161.5 -68q-96 0 -164 68t-68 164zM233 1354q0 -37 27 -63.5t63.5 -26.5t62.5 26.5t26 63.5t-26 63.5t-62.5 26.5t-63.5 -26.5t-27 -63.5z" />
<glyph unicode="&#xb1;" horiz-adv-x="1097" d="M113 0v193h872v-193h-872zM113 606v195h338v334h196v-334h338v-195h-338v-336h-196v336h-338z" />
<glyph unicode="&#xb2;" horiz-adv-x="813" d="M92 1235q121 225 299 225q106 0 184 -61q90 -70 91 -189q0 -76 -56 -151q-39 -55 -170 -187q-59 -57 -102 -122h328v-189h-572v133q35 90 64.5 135.5t132.5 153.5q180 188 180 227q0 59 -80 60q-59 0 -127 -125z" />
<glyph unicode="&#xb3;" horiz-adv-x="806" d="M123 1239l10 29q29 80 100.5 129t159.5 49q111 0 192 -77t81 -183q0 -92 -62 -164q76 -80 76 -188q0 -115 -82 -196t-199 -81q-203 0 -274 215l180 62l10 -29q20 -61 84 -62q37 0 62.5 27t25.5 64q0 39 -25.5 64.5t-62.5 25.5h-63v188h57q35 0 58.5 21.5t23.5 52.5 q0 29 -23.5 50t-58.5 21q-61 0 -80 -51l-10 -28z" />
<glyph unicode="&#xb4;" horiz-adv-x="671" d="M133 1116l174 299h232l-238 -299h-168z" />
<glyph unicode="&#xb5;" horiz-adv-x="1091" d="M133 -391v1403h209v-572q0 -129 39 -186q49 -70 172 -70q70 0 129 39q68 45 68 113v676h208v-1012h-208v31q-88 -45 -197 -45q-117 0 -211 45v-422h-209z" />
<glyph unicode="&#x3bc;" horiz-adv-x="1091" d="M133 -391v1403h209v-572q0 -129 39 -186q49 -70 172 -70q70 0 129 39q68 45 68 113v676h208v-1012h-208v31q-88 -45 -197 -45q-117 0 -211 45v-422h-209z" />
<glyph unicode="&#xb6;" horiz-adv-x="1224" d="M113 1001q0 178 126 303.5t302 125.5h510v-1739h-215v1540h-138v-1540h-217v887q-158 23 -263 142t-105 281z" />
<glyph unicode="&#xb7;" horiz-adv-x="557" d="M133 543q0 59 43 102t102.5 43t102.5 -43t43 -102q0 -61 -43 -103.5t-102.5 -42.5t-102.5 42.5t-43 103.5z" />
<glyph unicode="&#x2219;" horiz-adv-x="557" d="M133 543q0 59 43 102t102.5 43t102.5 -43t43 -102q0 -61 -43 -103.5t-102.5 -42.5t-102.5 42.5t-43 103.5z" />
<glyph unicode="&#xb8;" horiz-adv-x="1116" d="M352 -401l195 270l-55 145l151 52l68 -205l-136 -262h-223z" />
<glyph unicode="&#xb9;" horiz-adv-x="655" d="M96 1276l273 166h112v-897h-188v631l-103 -64z" />
<glyph unicode="&#xba;" horiz-adv-x="923" d="M92 1024v4q0 172 62 266q96 154 309 154t309 -154q59 -94 59 -266t-59 -268q-96 -152 -309 -152t-309 152q-62 96 -62 264zM287 387v176h352v-176h-352zM291 1028q0 -121 33 -170q39 -61 139 -61t139 61q31 51 31 170t-31 170q-39 61 -139.5 61.5t-138.5 -61.5 q-33 -51 -33 -170z" />
<glyph unicode="&#xbb;" horiz-adv-x="1005" d="M113 27v233l282 268l-282 267v233l467 -438v-123zM446 27v233l283 268l-283 267v233l467 -438v-123z" />
<glyph unicode="&#xbc;" horiz-adv-x="1646" d="M96 1276l273 166h112v-897h-188v631l-103 -64zM377 0l655 1430h201l-655 -1430h-201zM899 201v143l313 553h230l-285 -508h115v160l194 -37v-123h54v-188h-54v-201h-194v201h-373z" />
<glyph unicode="&#xbd;" horiz-adv-x="1724" d="M96 1276l273 166h114v-897h-190v631l-103 -64zM377 0l657 1430h201l-657 -1430h-201zM1016 674q123 225 299 225q106 0 186 -61q88 -70 88 -187q0 -78 -53 -153q-39 -53 -172 -185q-57 -57 -100 -123h327v-190h-573v133q35 90 65.5 135t133.5 154q178 188 178 229 q0 59 -80 60q-57 0 -125 -125z" />
<glyph unicode="&#xbe;" horiz-adv-x="1812" d="M123 1239l10 29q29 80 100.5 129t159.5 49q111 0 192 -77t81 -183q0 -92 -62 -164q76 -80 76 -188q0 -115 -82 -196t-199 -81q-203 0 -274 215l180 62l10 -29q20 -61 84 -62q37 0 62.5 27t25.5 64q0 39 -25.5 64.5t-62.5 25.5h-63v188h57q35 0 58.5 21.5t23.5 52.5 q0 29 -23.5 50t-58.5 21q-61 0 -80 -51l-10 -28zM485 0l656 1430h200l-655 -1430h-201zM1008 201v143l313 553h229l-284 -508h114v160l195 -37v-123h53v-188h-53v-201h-195v201h-372z" />
<glyph unicode="&#xbf;" horiz-adv-x="1030" d="M86 -88q0 188 186 297q78 45 105 78q35 43 39 121l8 204h162q20 -158 20 -206q0 -135 -59 -222q-41 -55 -127 -108q-74 -45 -90 -62q-41 -41 -41 -102q0 -88 60.5 -139.5t156.5 -51.5q98 0 160 58q70 61 69 182h197q0 -211 -131 -330q-119 -109 -295 -108 q-172 0 -293 104q-127 111 -127 285zM373 854q0 55 39 94t94 39q53 0 92 -39t39 -94t-39 -94t-92 -39q-55 0 -94 39t-39 94z" />
<glyph unicode="&#xc0;" horiz-adv-x="1380" d="M20 0l568 1430h205l567 -1430h-234l-159 401h-553l-160 -401h-234zM397 1886h232l174 -299h-170zM496 608h389l-195 492z" />
<glyph unicode="&#xc1;" horiz-adv-x="1380" d="M20 0l568 1430h205l567 -1430h-234l-159 401h-553l-160 -401h-234zM496 608h389l-195 492zM575 1587l175 299h231l-236 -299h-170z" />
<glyph unicode="&#xc2;" horiz-adv-x="1380" d="M20 0l568 1430h205l567 -1430h-234l-159 401h-553l-160 -401h-234zM328 1587l245 299h226l248 -299h-240l-121 178l-119 -178h-239zM496 608h389l-195 492z" />
<glyph unicode="&#xc3;" horiz-adv-x="1380" d="M20 0l568 1430h205l567 -1430h-234l-159 401h-553l-160 -401h-234zM319 1663q119 158 252 158q68 0 151 -52.5t118 -52.5q49 0 116 94l134 -116q-129 -156 -256 -156q-72 0 -152 52t-113 52q-47 0 -110 -88zM496 608h389l-195 492z" />
<glyph unicode="&#xc4;" horiz-adv-x="1380" d="M20 0l568 1430h205l567 -1430h-234l-159 401h-553l-160 -401h-234zM342 1720.5q0 55.5 39 94t94 38.5t94 -38.5t39 -94t-39 -94.5t-94 -39t-94 39t-39 94.5zM496 608h389l-195 492zM766 1720.5q0 55.5 40 94t93 38.5q55 0 94 -38.5t39 -94t-39 -94.5t-94 -39 q-53 0 -93 39t-40 94.5z" />
<glyph unicode="&#xc5;" horiz-adv-x="1380" d="M20 0l568 1430h205l567 -1430h-234l-159 401h-553l-160 -401h-234zM442 1773.5q0 102.5 73 176t175.5 73.5t176 -73.5t73.5 -176t-73.5 -175t-176 -72.5t-175.5 72.5t-73 175zM496 608h389l-195 492zM598 1773.5q0 -38.5 26.5 -65.5t65.5 -27t65.5 27t26.5 65.5 t-26.5 65.5t-65.5 27t-65.5 -27t-26.5 -65.5z" />
<glyph unicode="&#xc6;" horiz-adv-x="1947" d="M31 0l710 1430h1114v-211h-710v-371h614v-211h-614v-426h710v-211h-933l2 401h-449l-199 -401h-245zM575 610h349v604h-47z" />
<glyph unicode="&#xc7;" horiz-adv-x="1261" d="M92 714.5q0 311.5 115 485.5q164 248 471 248q145 0 251.5 -59.5t239.5 -212.5l-168 -138q-102 121 -172 162q-59 35 -151 35q-188 0 -289 -150q-80 -123 -80 -370.5t80 -370.5q100 -150 289 -149q92 0 151 34q70 41 172 162l168 -137q-197 -229 -378 -262l43 -131 l-138 -262h-221l193 270l-43 117q-270 23 -418 243q-115 174 -115 485.5z" />
<glyph unicode="&#xc8;" horiz-adv-x="1206" d="M154 0v1430h950v-211h-735v-371h643v-211h-643v-426h735v-211h-950zM360 1886h232l174 -299h-168z" />
<glyph unicode="&#xc9;" horiz-adv-x="1206" d="M154 0v1430h950v-211h-735v-371h643v-211h-643v-426h735v-211h-950zM502 1587l172 299h233l-237 -299h-168z" />
<glyph unicode="&#xca;" horiz-adv-x="1206" d="M154 0v1430h950v-211h-735v-371h643v-211h-643v-426h735v-211h-950zM258 1587l248 299h225l246 -299h-240l-119 178l-120 -178h-240z" />
<glyph unicode="&#xcb;" horiz-adv-x="1206" d="M154 0v1430h950v-211h-735v-371h643v-211h-643v-426h735v-211h-950zM274 1720.5q0 55.5 39 94t94.5 38.5t94.5 -38.5t39 -94t-39 -94.5t-94.5 -39t-94.5 39t-39 94.5zM698 1720.5q0 55.5 39 94t94.5 38.5t94.5 -38.5t39 -94t-39 -94.5t-94.5 -39t-94.5 39t-39 94.5z" />
<glyph unicode="&#xcc;" horiz-adv-x="548" d="M31 1886h231l174 -299h-168zM160 0v1430h221v-1430h-221z" />
<glyph unicode="&#xcd;" horiz-adv-x="544" d="M121 1587l174 299h231l-237 -299h-168zM162 0v1430h223v-1430h-223z" />
<glyph unicode="&#xce;" horiz-adv-x="575" d="M-74 1587l246 299h225l248 -299h-239l-121 178l-119 -178h-240zM174 0v1430h223v-1430h-223z" />
<glyph unicode="&#xcf;" horiz-adv-x="550" d="M-61 1720.5q0 55.5 38.5 94t94 38.5t94.5 -38.5t39 -94t-39 -94.5t-94.5 -39t-94 39t-38.5 94.5zM166 0v1430h223v-1430h-223zM362 1720.5q0 55.5 39 94t94.5 38.5t94.5 -38.5t39 -94t-39 -94.5t-94.5 -39t-94.5 39t-39 94.5z" />
<glyph unicode="&#xd0;" horiz-adv-x="1480" d="M141 606v211h84v613h455q254 0 385 -68q178 -94 211 -336q16 -119 16 -311.5t-16 -311.5q-33 -242 -211 -333q-131 -70 -385 -70h-455v606h-84zM442 213h238q193 0 277.5 41t103.5 178q12 104 12 282.5t-12 284.5q-18 135 -103.5 177.5t-279.5 42.5h-236v-402h318v-211 h-318v-393z" />
<glyph unicode="&#xd1;" horiz-adv-x="1331" d="M154 0v1430h198l611 -990v990h215v-1430h-199l-608 989v-989h-217zM283 1663q119 158 252 158q68 0 150.5 -52.5t117.5 -52.5q49 0 117 94l133 -116q-129 -156 -256 -156q-72 0 -152 52t-113 52q-47 0 -110 -88z" />
<glyph unicode="&#xd2;" horiz-adv-x="1363" d="M92 714.5q0 311.5 117 485.5q164 248 473 248q311 0 475 -248q115 -174 115 -485.5t-115 -485.5q-164 -248 -475 -247q-309 0 -473 247q-117 174 -117 485.5zM309 715q0 -248 82 -371q100 -150 291 -149q193 0 291 149q82 123 82 371t-82 370q-98 150 -291 150 q-190 0 -291 -150q-82 -122 -82 -370zM434 1886h234l172 -299h-168z" />
<glyph unicode="&#xd3;" horiz-adv-x="1363" d="M92 714.5q0 311.5 117 485.5q164 248 473 248q311 0 475 -248q115 -174 115 -485.5t-115 -485.5q-164 -248 -475 -247q-309 0 -473 247q-117 174 -117 485.5zM309 715q0 -248 82 -371q100 -150 291 -149q193 0 291 149q82 123 82 371t-82 370q-98 150 -291 150 q-190 0 -291 -150q-82 -122 -82 -370zM528 1587l174 299h232l-238 -299h-168z" />
<glyph unicode="&#xd4;" horiz-adv-x="1363" d="M92 714.5q0 311.5 117 485.5q164 248 473 248q311 0 475 -248q115 -174 115 -485.5t-115 -485.5q-164 -248 -475 -247q-309 0 -473 247q-117 174 -117 485.5zM309 715q0 -248 82 -371q100 -150 291 -149q193 0 291 149q82 123 82 371t-82 370q-98 150 -291 150 q-190 0 -291 -150q-82 -122 -82 -370zM322 1587l245 299h226l247 -299h-239l-121 178l-121 -178h-237z" />
<glyph unicode="&#xd5;" horiz-adv-x="1363" d="M92 714.5q0 311.5 117 485.5q164 248 473 248q311 0 475 -248q115 -174 115 -485.5t-115 -485.5q-164 -248 -475 -247q-309 0 -473 247q-117 174 -117 485.5zM309 715q0 -248 82 -371q100 -150 291 -149q193 0 291 149q82 123 82 371t-82 370q-98 150 -291 150 q-190 0 -291 -150q-82 -122 -82 -370zM313 1663q119 158 252 158q68 0 151 -52.5t118 -52.5q49 0 116 94l133 -116q-129 -156 -256 -156q-72 0 -151.5 52t-112.5 52q-47 0 -110 -88z" />
<glyph unicode="&#xd6;" horiz-adv-x="1363" d="M92 714.5q0 311.5 117 485.5q164 248 473 248q311 0 475 -248q115 -174 115 -485.5t-115 -485.5q-164 -248 -475 -247q-309 0 -473 247q-117 174 -117 485.5zM309 715q0 -248 82 -371q100 -150 291 -149q193 0 291 149q82 123 82 371t-82 370q-98 150 -291 150 q-190 0 -291 -150q-82 -122 -82 -370zM330 1720.5q0 55.5 39 94t94 38.5t94 -38.5t39 -94t-39 -94.5t-94 -39t-94 39t-39 94.5zM754 1720.5q0 55.5 38.5 94t94 38.5t94.5 -38.5t39 -94t-39 -94.5t-94.5 -39t-94 39t-38.5 94.5z" />
<glyph unicode="&#xd7;" horiz-adv-x="1021" d="M131 311l248 250l-248 248l131 131l248 -248l250 248l131 -131l-250 -248l250 -250l-131 -131l-250 250l-248 -250z" />
<glyph unicode="&#xd8;" horiz-adv-x="1363" d="M92 715q0 315 131 508q156 225 459 225q158 0 274 -62l27 44h244l-107 -179q152 -195 152 -536q0 -315 -131 -508q-154 -225 -459 -225q-162 0 -283 65l-28 -47h-244l113 186q-148 195 -148 529zM309 715q0 -197 56 -320l481 805q-70 35 -164 35q-373 0 -373 -520z M510 233q72 -39 172 -38q373 0 373 520q0 205 -60 329z" />
<glyph unicode="&#xd9;" horiz-adv-x="1359" d="M143 623v807h217v-807q0 -209 58 -304q76 -125 262 -124.5t262 124.5q57 94 57 306v805h218v-807q0 -268 -89 -412q-139 -227 -448 -229q-309 0 -449 229q-88 144 -88 412zM457 1886h233l172 -299h-168z" />
<glyph unicode="&#xda;" horiz-adv-x="1359" d="M143 623v807h217v-807q0 -209 58 -304q76 -125 262 -124.5t262 124.5q57 94 57 306v805h218v-807q0 -268 -89 -412q-139 -227 -448 -229q-309 0 -449 229q-88 144 -88 412zM539 1587l174 299h231l-237 -299h-168z" />
<glyph unicode="&#xdb;" horiz-adv-x="1359" d="M143 623v807h217v-807q0 -209 58 -304q76 -125 262 -124.5t262 124.5q57 94 57 306v805h218v-807q0 -268 -89 -412q-139 -227 -448 -229q-309 0 -449 229q-88 144 -88 412zM326 1587l247 299h226l245 -299h-239l-119 178l-121 -178h-239z" />
<glyph unicode="&#xdc;" horiz-adv-x="1359" d="M143 623v807h217v-807q0 -209 58 -304q76 -125 262 -124.5t262 124.5q57 94 57 306v805h218v-807q0 -268 -89 -412q-139 -227 -448 -229q-309 0 -449 229q-88 144 -88 412zM340 1720.5q0 55.5 39 94t94 38.5t94 -38.5t39 -94t-39 -94.5t-94 -39t-94 39t-39 94.5z M764 1720.5q0 55.5 39 94t94 38.5t94 -38.5t39 -94t-39 -94.5t-94 -39t-94 39t-39 94.5z" />
<glyph unicode="&#xdd;" horiz-adv-x="1271" d="M51 1430h242l344 -685l342 685h242l-476 -953v-477h-219v481zM479 1587l172 299h234l-238 -299h-168z" />
<glyph unicode="&#xde;" horiz-adv-x="1409" d="M229 0v1430h217v-277h328q205 0 320 -68q178 -111 178 -348q0 -240 -178 -350q-115 -68 -320 -68h-328v-319h-217zM446 530h328q143 0 205 37q76 47 76 170q0 121 -76 168q-61 37 -205 37h-328v-412z" />
<glyph unicode="&#xdf;" horiz-adv-x="1069" d="M47 825v185h86q2 188 92 307q102 129 287 129q133 0 226 -95.5t93 -230.5q0 -86 -65 -155q211 -102 211 -457q0 -254 -118 -378t-372 -130v207q156 0 218 72q61 66 61 227q0 170 -53 239q-61 80 -226 80v185q133 0 134 110q0 119 -109 119q-170 0 -170 -242v-997h-209 v825h-86z" />
<glyph unicode="&#xe0;" horiz-adv-x="1013" d="M92 295q0 135 107.5 229t253.5 94h165q35 0 60 17v88q0 37 -42 67.5t-110 30.5q-152 0 -209 -143l-200 59q55 150 178 226q102 61 231 61q145 0 253 -86t108 -215v-573l35 -111l-201 -57l-16 53q-109 -55 -252 -55q-145 0 -253 91t-108 224zM266 1415h232l174 -299h-168z M301 295q0 -43 43 -78t109 -35q131 0 225 84v156q-29 -6 -60 -6h-165q-66 0 -109 -38t-43 -83z" />
<glyph unicode="&#xe1;" horiz-adv-x="1013" d="M92 295q0 135 107.5 229t253.5 94h165q35 0 60 17v88q0 37 -42 67.5t-110 30.5q-152 0 -209 -143l-200 59q55 150 178 226q102 61 231 61q145 0 253 -86t108 -215v-573l35 -111l-201 -57l-16 53q-109 -55 -252 -55q-145 0 -253 91t-108 224zM301 295q0 -43 43 -78 t109 -35q131 0 225 84v156q-29 -6 -60 -6h-165q-66 0 -109 -38t-43 -83zM365 1116l172 299h233l-238 -299h-167z" />
<glyph unicode="&#xe2;" horiz-adv-x="1013" d="M92 295q0 135 107.5 229t253.5 94h165q35 0 60 17v88q0 37 -42 67.5t-110 30.5q-152 0 -209 -143l-200 59q55 150 178 226q102 61 231 61q145 0 253 -86t108 -215v-573l35 -111l-201 -57l-16 53q-109 -55 -252 -55q-145 0 -253 91t-108 224zM150 1092l245 299h226 l247 -299h-239l-121 178l-119 -178h-239zM301 295q0 -43 43 -78t109 -35q131 0 225 84v156q-29 -6 -60 -6h-165q-66 0 -109 -38t-43 -83z" />
<glyph unicode="&#xe3;" horiz-adv-x="1013" d="M92 295q0 135 107.5 229t253.5 94h165q35 0 60 17v88q0 37 -42 67.5t-110 30.5q-152 0 -209 -143l-200 59q55 150 178 226q102 61 231 61q145 0 253 -86t108 -215v-573l35 -111l-201 -57l-16 53q-109 -55 -252 -55q-145 0 -253 91t-108 224zM143 1198q117 158 250 158 q70 0 152 -52.5t117 -52.5q51 0 116 95l135 -117q-131 -156 -256 -156q-74 0 -152.5 52.5t-113.5 52.5q-47 0 -110 -91zM301 295q0 -43 43 -78t109 -35q131 0 225 84v156q-29 -6 -60 -6h-165q-66 0 -109 -38t-43 -83z" />
<glyph unicode="&#xe4;" horiz-adv-x="1013" d="M92 295q0 135 107.5 229t253.5 94h165q35 0 60 17v88q0 37 -42 67.5t-110 30.5q-152 0 -209 -143l-200 59q55 150 178 226q102 61 231 61q145 0 253 -86t108 -215v-573l35 -111l-201 -57l-16 53q-109 -55 -252 -55q-145 0 -253 91t-108 224zM201 1206.5q0 55.5 39 94 t94 38.5t94 -38.5t39 -94t-39 -94.5t-94 -39t-94 39t-39 94.5zM301 295q0 -43 43 -78t109 -35q131 0 225 84v156q-29 -6 -60 -6h-165q-66 0 -109 -38t-43 -83zM627 1206.5q0 55.5 39 94t94 38.5q53 0 92 -38.5t39 -94t-39 -94.5t-92 -39q-55 0 -94 39t-39 94.5z" />
<glyph unicode="&#xe5;" horiz-adv-x="1013" d="M92 295q0 135 107.5 229t253.5 94h165q35 0 60 17v88q0 37 -42 67.5t-110 30.5q-152 0 -209 -143l-200 59q55 150 178 226q102 61 231 61q145 0 253 -86t108 -215v-573l35 -111l-201 -57l-16 53q-109 -55 -252 -55q-145 0 -253 91t-108 224zM276 1329.5q0 102.5 73 175 t177 72.5q102 0 175 -72.5t73 -175t-72.5 -176.5t-175.5 -74q-104 0 -177 74t-73 176.5zM301 295q0 -43 43 -78t109 -35q131 0 225 84v156q-29 -6 -60 -6h-165q-66 0 -109 -38t-43 -83zM434 1329q0 -39 26.5 -65.5t65.5 -26.5q37 0 64.5 26.5t27.5 65.5t-27.5 65.5 t-64.5 26.5q-39 0 -65.5 -26.5t-26.5 -65.5z" />
<glyph unicode="&#xe6;" horiz-adv-x="1652" d="M92 295q0 135 110.5 228t262.5 93h164q39 0 65 21l-4 82q-2 35 -43 63.5t-106 28.5q-147 0 -209 -125l-207 59q59 141 184 211q102 57 232 58q176 0 284 -111q123 111 318 111q229 0 354 -178q49 -74 62 -205q3 -31 2 -118v-99h-656q8 -94 41 -144q61 -88 215 -88 q127 0 217 90l174 -118q-160 -172 -389 -172q-215 0 -344 118q-158 -121 -354 -120q-152 0 -262.5 91t-110.5 224zM307 295q0 -43 44 -78t114 -35q137 0 246 97q-16 61 -23 141q-29 -6 -59 -6h-164q-68 0 -113 -37t-45 -82zM911 616h432q-10 84 -26 109q-61 86 -174 86 q-135 0 -197 -86q-23 -35 -35 -109z" />
<glyph unicode="&#xe7;" d="M92 504q0 231 124 376.5t339 145.5q111 0 193.5 -41t191.5 -156l-154 -135q-68 72 -102 97q-57 39 -129 38q-129 0 -195 -92q-53 -74 -53 -233.5t53 -231.5q66 -92 195 -92q72 0 129 39q35 25 102 94l154 -135q-164 -172 -311 -190l41 -127l-135 -262h-224l195 270 l-47 123q-172 31 -269.5 170t-97.5 342z" />
<glyph unicode="&#xe8;" d="M92 498q0 217 78 333q121 178 367 179q223 0 342 -181q49 -72 59 -198q3 -29 3 -113q0 -42 -1 -98h-635q8 -98 41 -146q61 -92 207 -92q125 0 213 97l168 -125q-156 -172 -379 -172q-262 0 -385 182q-78 117 -78 334zM274 1415h232l174 -299h-168zM311 623h416 q-8 74 -25 98q-59 86 -167 86q-189 0 -224 -184z" />
<glyph unicode="&#xe9;" d="M92 498q0 217 78 333q121 178 367 179q223 0 342 -181q49 -72 59 -198q3 -29 3 -113q0 -42 -1 -98h-635q8 -98 41 -146q61 -92 207 -92q125 0 213 97l168 -125q-156 -172 -379 -172q-262 0 -385 182q-78 117 -78 334zM311 623h416q-8 74 -25 98q-59 86 -167 86 q-189 0 -224 -184zM356 1116l172 299h234l-238 -299h-168z" />
<glyph unicode="&#xea;" d="M92 498q0 217 78 333q121 178 367 179q223 0 342 -181q49 -72 59 -198q3 -29 3 -113q0 -42 -1 -98h-635q8 -98 41 -146q61 -92 207 -92q125 0 213 97l168 -125q-156 -172 -379 -172q-262 0 -385 182q-78 117 -78 334zM176 1092l246 299h225l248 -299h-240l-120 178 l-119 -178h-240zM311 623h416q-8 74 -25 98q-59 86 -167 86q-189 0 -224 -184z" />
<glyph unicode="&#xeb;" d="M92 498q0 217 78 333q121 178 367 179q223 0 342 -181q49 -72 59 -198q3 -29 3 -113q0 -42 -1 -98h-635q8 -98 41 -146q61 -92 207 -92q125 0 213 97l168 -125q-156 -172 -379 -172q-262 0 -385 182q-78 117 -78 334zM170 1226.5q0 55.5 39 94.5t94 39t94 -39t39 -94.5 t-39 -94t-94 -38.5t-94 38.5t-39 94zM311 623h416q-8 74 -25 98q-59 86 -167 86q-189 0 -224 -184zM596 1226.5q0 55.5 39 94.5t94 39q53 0 92 -39t39 -94.5t-39 -94t-92 -38.5q-55 0 -94 38.5t-39 94z" />
<glyph unicode="&#xec;" horiz-adv-x="540" d="M6 1415h232l174 -299h-168zM166 0v1012h211v-1012h-211z" />
<glyph unicode="&#xed;" horiz-adv-x="522" d="M113 1116l174 299h231l-237 -299h-168zM156 0v1012h211v-1012h-211z" />
<glyph unicode="&#xee;" horiz-adv-x="557" d="M-86 1092l246 299h225l246 -299h-238l-121 178l-120 -178h-238zM170 0v1012h211v-1012h-211z" />
<glyph unicode="&#xef;" horiz-adv-x="561" d="M-39 1247.5q0 55.5 39 94t94 38.5q53 0 92 -38.5t39 -94t-39 -94.5t-92 -39q-55 0 -94 39t-39 94.5zM174 0v1012h213v-1012h-213zM344 1247.5q0 55.5 39 94t94 38.5t94 -38.5t39 -94t-39 -94.5t-94 -39t-94 39t-39 94.5z" />
<glyph unicode="&#xf0;" horiz-adv-x="1193" d="M158 508q0 217 71 336q115 188 369 188q31 0 61 -2l-26 60h-250v202h160l-109 244h223l109 -244h186v-202h-96l74 -156l45 -82q61 -115 61 -344q0 -219 -71 -338q-115 -188 -367 -188q-254 0 -369 188q-71 119 -71 338zM369 506q0 -160 41 -230q53 -88 186 -88 q135 0 188 88q41 72 41 230q0 160 -41 229q-53 88 -188 88q-133 0 -186 -88q-41 -67 -41 -229z" />
<glyph unicode="&#xf1;" horiz-adv-x="1091" d="M133 0v995h209v-30q94 45 197 45q248 0 350 -148q70 -102 69 -289v-573h-208v573q0 125 -37 179q-47 70 -174 69q-123 0 -172 -84q-14 -25 -25 -61v-676h-209zM168 1198q117 158 250 158q70 0 151.5 -52.5t116.5 -52.5q51 0 117 95l135 -117q-131 -156 -256 -156 q-74 0 -152.5 52.5t-113.5 52.5q-47 0 -111 -91z" />
<glyph unicode="&#xf2;" horiz-adv-x="1062" d="M92 496q0 219 72 333q115 182 368 183q252 0 367 -183q72 -113 72 -331q0 -221 -72 -336q-115 -180 -367 -180q-254 0 -368 180q-72 117 -72 334zM274 1415h232l174 -299h-168zM303 496q0 -162 41 -228q53 -86 186 -86q135 0 189 86q41 66 41 228q0 164 -41 229 q-53 84 -189 84q-133 0 -186 -84q-41 -65 -41 -229z" />
<glyph unicode="&#xf3;" horiz-adv-x="1062" d="M92 496q0 219 72 333q115 182 368 183q252 0 367 -183q72 -113 72 -331q0 -221 -72 -336q-115 -180 -367 -180q-254 0 -368 180q-72 117 -72 334zM303 496q0 -162 41 -228q53 -86 186 -86q135 0 189 86q41 66 41 228q0 164 -41 229q-53 84 -189 84q-133 0 -186 -84 q-41 -65 -41 -229zM369 1116l172 299h233l-237 -299h-168z" />
<glyph unicode="&#xf4;" horiz-adv-x="1062" d="M92 496q0 219 72 333q115 182 368 183q252 0 367 -183q72 -113 72 -331q0 -221 -72 -336q-115 -180 -367 -180q-254 0 -368 180q-72 117 -72 334zM176 1092l246 299h225l248 -299h-240l-120 178l-119 -178h-240zM303 496q0 -162 41 -228q53 -86 186 -86q135 0 189 86 q41 66 41 228q0 164 -41 229q-53 84 -189 84q-133 0 -186 -84q-41 -65 -41 -229z" />
<glyph unicode="&#xf5;" horiz-adv-x="1062" d="M92 496q0 219 72 333q115 182 368 183q252 0 367 -183q72 -113 72 -331q0 -221 -72 -336q-115 -180 -367 -180q-254 0 -368 180q-72 117 -72 334zM168 1198q117 158 250 158q70 0 151.5 -52.5t116.5 -52.5q51 0 117 95l135 -117q-131 -156 -256 -156q-74 0 -152.5 52.5 t-113.5 52.5q-47 0 -111 -91zM303 496q0 -162 41 -228q53 -86 186 -86q135 0 189 86q41 66 41 228q0 164 -41 229q-53 84 -189 84q-133 0 -186 -84q-41 -65 -41 -229z" />
<glyph unicode="&#xf6;" horiz-adv-x="1062" d="M92 496q0 219 72 333q115 182 368 183q252 0 367 -183q72 -113 72 -331q0 -221 -72 -336q-115 -180 -367 -180q-254 0 -368 180q-72 117 -72 334zM176 1206.5q0 55.5 39 94t94.5 38.5t94 -38.5t38.5 -94t-38.5 -94.5t-94 -39t-94.5 39t-39 94.5zM303 496q0 -162 41 -228 q53 -86 186 -86q135 0 189 86q41 66 41 228q0 164 -41 229q-53 84 -189 84q-133 0 -186 -84q-41 -65 -41 -229zM602 1206.5q0 55.5 39 94t94 38.5q53 0 92 -38.5t39 -94t-39 -94.5t-92 -39q-55 0 -94 39t-39 94.5z" />
<glyph unicode="&#xf7;" horiz-adv-x="1103" d="M113 473v174h878v-174h-878zM424 244q0 51 36 87t89 36q51 0 87 -36t36 -87q0 -53 -36 -89t-87 -36q-53 0 -89 36t-36 89zM424 879q0 53 36 89t89 36q51 0 87 -36t36 -89q0 -51 -36 -88t-87 -37q-53 0 -89 37t-36 88z" />
<glyph unicode="&#xf8;" horiz-adv-x="1062" d="M63 0l109 150q-80 117 -80 346q0 219 72 333q115 182 368 183q125 0 226 -54l28 39h209l-108 -149q84 -117 84 -350q0 -221 -72 -336q-115 -180 -367 -180q-131 0 -233 55l-27 -37h-209zM303 496q0 -90 12 -150l322 445q-47 18 -107 18q-133 0 -186 -84q-41 -65 -41 -229 zM420 205q49 -23 110 -23q135 0 189 86q41 66 41 228q0 96 -15 157z" />
<glyph unicode="&#xf9;" horiz-adv-x="1081" d="M123 418v594h209v-594q0 -123 41 -172q47 -55 170 -56q68 0 127 37q70 43 69 109v676h209v-1012h-209v33q-100 -49 -196 -49q-420 0 -420 434zM264 1415h232l174 -299h-168z" />
<glyph unicode="&#xfa;" horiz-adv-x="1081" d="M123 418v594h209v-594q0 -123 41 -172q47 -55 170 -56q68 0 127 37q70 43 69 109v676h209v-1012h-209v33q-100 -49 -196 -49q-420 0 -420 434zM424 1116l172 299h233l-237 -299h-168z" />
<glyph unicode="&#xfb;" horiz-adv-x="1081" d="M123 418v594h209v-594q0 -123 41 -172q47 -55 170 -56q68 0 127 37q70 43 69 109v676h209v-1012h-209v33q-100 -49 -196 -49q-420 0 -420 434zM174 1092l246 299h225l248 -299h-240l-121 178l-118 -178h-240z" />
<glyph unicode="&#xfc;" horiz-adv-x="1081" d="M123 418v594h209v-594q0 -123 41 -172q47 -55 170 -56q68 0 127 37q70 43 69 109v676h209v-1012h-209v33q-100 -49 -196 -49q-420 0 -420 434zM188 1206.5q0 55.5 39 94t94.5 38.5t94.5 -38.5t39 -94t-39 -94.5t-94.5 -39t-94.5 39t-39 94.5zM614 1206.5q0 55.5 39 94 t95 38.5q53 0 92 -38.5t39 -94t-39 -94.5t-92 -39q-55 0 -94.5 39t-39.5 94.5z" />
<glyph unicode="&#xfd;" horiz-adv-x="1028" d="M39 1012h225l242 -711l258 711h225l-459 -1241q-33 -90 -92 -144q-84 -78 -204 -78h-7h-96l2 209q46 -1 71 -1t29 1q70 4 101 86l59 156zM375 1116l172 299h233l-237 -299h-168z" />
<glyph unicode="&#xfe;" horiz-adv-x="1171" d="M219 -451v1881h209v-439q86 45 188 45h9q244 0 354 -192q66 -121 65.5 -340t-65.5 -338q-111 -195 -354 -195q-106 0 -197 45v-467h-209zM428 362q6 -59 27 -92q49 -88 169.5 -88t170.5 88q41 72 41 234q0 164 -41 235q-49 86 -170 88q-121 0 -170 -88q-20 -35 -27 -94 v-283z" />
<glyph unicode="&#xff;" d="M41 1012h225l242 -711l258 711h225l-459 -1241q-35 -90 -92 -144q-86 -78 -204 -78h-7h-96l2 209q46 -1 71 -1t30 1q68 4 100 86l59 156zM170 1206.5q0 55.5 39 94t94 38.5t94 -38.5t39 -94t-39 -94.5t-94 -39t-94 39t-39 94.5zM594 1206.5q0 55.5 39 94t94 38.5 t94 -38.5t39 -94t-39 -94.5t-94 -39t-94 39t-39 94.5z" />
<glyph unicode="&#x152;" horiz-adv-x="2101" d="M92 714.5q0 311.5 119 485.5q168 248 483 248q223 0 381 -133v117h934v-213h-713v-371h617v-211h-617v-426h713v-213h-934v117q-158 -133 -381 -133q-315 0 -483 247q-119 174 -119 485.5zM313 715q0 -248 82 -371q102 -150 299 -149.5t297 149.5q84 123 84 371t-84 370 q-100 150 -296.5 150t-299.5 -150q-82 -122 -82 -370z" />
<glyph unicode="&#x153;" horiz-adv-x="1753" d="M92 496q0 219 74 333q119 182 379 183q225 0 348 -142q125 141 348 142q231 0 354 -178q51 -74 62 -201q4 -47 4 -215h-660q10 -98 43 -148q61 -88 216 -88q131 0 223 97l172 -123q-160 -174 -393 -174q-240 0 -369 141q-123 -141 -348 -141q-260 0 -379 180 q-74 117 -74 334zM307 496q0 -162 43 -228q55 -86 194.5 -86t194.5 86q43 66 43 228q0 164 -43 229q-55 84 -194.5 84t-194.5 -84q-43 -65 -43 -229zM1008 621h434q-10 78 -27 102q-59 86 -174 86q-135 0 -197 -86q-24 -34 -36 -102z" />
<glyph unicode="&#x178;" horiz-adv-x="1271" d="M51 1430h242l344 -685l342 685h242l-476 -953v-477h-219v481zM295 1720.5q0 55.5 39 94t94 38.5t94 -38.5t39 -94t-39 -94.5t-94 -39t-94 39t-39 94.5zM719 1720.5q0 55.5 39 94t94 38.5t94 -38.5t39 -94t-39 -94.5t-94 -39t-94 39t-39 94.5z" />
<glyph unicode="&#x2c6;" horiz-adv-x="1087" d="M184 1092l246 299h225l248 -299h-239l-121 178l-119 -178h-240z" />
<glyph unicode="&#x2dc;" horiz-adv-x="1067" d="M168 1190q117 158 250 158q70 0 151.5 -52.5t116.5 -52.5q51 0 117 94l135 -116q-131 -156 -256 -156q-74 0 -152.5 52t-113.5 52q-47 0 -111 -90z" />
<glyph unicode="&#x2013;" horiz-adv-x="1103" d="M113 473v174h878v-174h-878z" />
<glyph unicode="&#x2014;" horiz-adv-x="1714" d="M113 473v174h1489v-174h-1489z" />
<glyph unicode="&#x2018;" horiz-adv-x="546" d="M143 1165l15 107l174 268h71l-14 -375q-2 -51 -37 -84.5t-86 -33.5t-90 34q-34 30 -33 71q-1 6 0 13z" />
<glyph unicode="&#x2019;" horiz-adv-x="546" d="M143 1047l15 374q2 51 37.5 85t85.5 34q51 0 90 -35q34 -30 33 -71q0 -6 -1 -13l-14 -106l-174 -268h-72z" />
<glyph unicode="&#x201a;" horiz-adv-x="546" d="M143 -268l15 374q2 51 37.5 85t85.5 34q51 0 90 -35q34 -30 33 -70q0 -6 -1 -14l-14 -106l-174 -268h-72z" />
<glyph unicode="&#x201c;" horiz-adv-x="901" d="M143 1165l15 107l174 268h71l-14 -375q-2 -51 -37 -84.5t-86 -33.5t-90 34q-34 30 -33 71q-1 6 0 13zM498 1165l14 107l174 268h72l-15 -375q-2 -51 -37.5 -84.5t-84.5 -33.5q-51 0 -91 34q-34 30 -33 71q0 6 1 13z" />
<glyph unicode="&#x201d;" horiz-adv-x="901" d="M143 1047l15 374q2 51 37.5 85t85.5 34q51 0 90 -35q34 -30 33 -71q0 -6 -1 -13l-14 -106l-174 -268h-72zM498 1047l14 374q2 51 37 85t86 34t90 -35q34 -30 34 -71q0 -6 -1 -13l-15 -106l-174 -268h-71z" />
<glyph unicode="&#x201e;" horiz-adv-x="901" d="M143 -268l15 374q2 51 37.5 85t85.5 34q51 0 90 -35q34 -30 33 -70q0 -6 -1 -14l-14 -106l-174 -268h-72zM498 -268l14 374q2 51 37 85t86 34t90 -35q34 -30 34 -70q0 -6 -1 -14l-15 -106l-174 -268h-71z" />
<glyph unicode="&#x2022;" horiz-adv-x="950" d="M133 692.5q0 141.5 100.5 241.5t241.5 100q143 0 242.5 -100t99.5 -241.5t-99.5 -242t-242.5 -100.5q-141 0 -241.5 100.5t-100.5 242z" />
<glyph unicode="&#x2026;" horiz-adv-x="1513" d="M154 123q0 57 41 98t98 41q59 0 100 -41t41 -98t-41 -98t-100 -41q-57 0 -98 41t-41 98zM616 123q0 57 41 98t101 41q57 0 98 -41t41 -98t-41 -98t-98 -41q-59 0 -100.5 41t-41.5 98zM1081 123q0 57 41 98t98.5 41t98.5 -41t41 -98t-41 -98t-98.5 -41t-98.5 41t-41 98z " />
<glyph unicode="&#x2039;" horiz-adv-x="663" d="M92 465v127l457 455l2 -250l-270 -269l270 -268v-250z" />
<glyph unicode="&#x203a;" horiz-adv-x="663" d="M113 10v250l270 268l-270 269v250l458 -455v-127z" />
<glyph unicode="&#x2122;" horiz-adv-x="1339" d="M119 1339v91h348v-91h-125v-346h-98v346h-125zM498 993v439h90l131 -299l129 299h92v-439h-98v207l-90 -207h-68l-90 205v-205h-96z" />
<glyph unicode="&#xe000;" horiz-adv-x="1010" d="M0 1010h1010v-1010h-1010v1010z" />
<glyph unicode="&#xfb01;" horiz-adv-x="1200" d="M113 825v185h86q4 213 101 316.5t316 103.5v-207q-127 0 -170 -45t-45 -166h187v-187h-187v-825h-202v825h-86zM811 1356q0 51 37 88t88 37t88 -37t37 -88t-37 -88t-88 -37t-88 37t-37 88zM829 0v1012h211v-1012h-211z" />
<glyph unicode="&#xfb02;" horiz-adv-x="1161" d="M113 825v185h86q4 213 101 316.5t316 103.5v-207q-127 0 -170 -45t-45 -166h187v-187h-187v-825h-202v825h-86zM801 268v1162h192v-1162q0 -43 11.5 -52t64.5 -9v-207q-180 0 -235 104q-33 62 -33 164z" />
<glyph unicode="&#xfb03;" horiz-adv-x="1867" d="M113 825v185h86q4 213 101 316.5t316 103.5v-207q-127 0 -170 -45t-45 -166h187v-187h-187v-825h-202v825h-86zM780 825v185h86q4 213 101.5 316.5t316.5 103.5v-207q-127 0 -170 -45t-45 -166h186v-187h-186v-825h-203v825h-86zM1479 1356q0 51 36.5 88t88 37t88.5 -37 t37 -88t-37 -88t-88.5 -37t-88 37t-36.5 88zM1497 0v1012h211v-1012h-211z" />
<glyph unicode="&#xfb04;" horiz-adv-x="1828" d="M113 825v185h86q4 213 101 316.5t316 103.5v-207q-127 0 -170 -45t-45 -166h187v-187h-187v-825h-202v825h-86zM780 825v185h86q4 213 101.5 316.5t316.5 103.5v-207q-127 0 -170 -45t-45 -166h186v-187h-186v-825h-203v825h-86zM1468 268v1162h193v-1162q0 -43 11 -52 t65 -9v-207q-180 0 -236 104q-33 62 -33 164z" />
</font>
</defs>
</svg>
