<?xml version="1.0" standalone="no"?>
<!DOCTYPE svg PUBLIC "-//W3C//DTD SVG 1.1//EN" "http://www.w3.org/Graphics/SVG/1.1/DTD/svg11.dtd" >
<svg xmlns="http://www.w3.org/2000/svg">
<metadata>
This is a custom SVG webfont generated by Font Squirrel.
Copyright   : 2004 T26 Digital Type Foundry wwwt26com PSID5134565 designer Neil Summerour  Positype
</metadata>
<defs>
<font id="AauxProThinRegular" horiz-adv-x="1001" >
<font-face units-per-em="2048" ascent="1638" descent="-410" />
<missing-glyph horiz-adv-x="552" />
<glyph unicode=" "  horiz-adv-x="552" />
<glyph unicode="&#x09;" horiz-adv-x="552" />
<glyph unicode="&#xa0;" horiz-adv-x="552" />
<glyph unicode="!" horiz-adv-x="573" d="M219 51q0 27 19.5 47.5t48 20.5t48 -20.5t19.5 -47.5q0 -29 -19.5 -48t-48 -19t-48 19t-19.5 48zM242 737v693h88v-693l-27 -370h-31z" />
<glyph unicode="&#x22;" horiz-adv-x="696" d="M143 1120v328q0 49 49.5 49t49.5 -49v-328h-99zM455 1120v328q0 49 49 49t49 -49v-328h-98z" />
<glyph unicode="#" horiz-adv-x="1417" d="M119 451l12 53h266l90 422h-266l10 53h269l96 451h53l-96 -451h424l96 451h53l-96 -451h268l-12 -53h-268l-90 -422h268l-10 -53h-268l-97 -451h-53l96 451h-424l-98 -451h-51l96 451h-268zM451 504h426l90 422h-426z" />
<glyph unicode="$" horiz-adv-x="1036" d="M102 406l52 8q59 -221 348 -236v563q-174 41 -246 84q-111 70 -111 203q0 141 113 217q98 68 244 68v117h57v-119q227 -16 326 -191l-45 -22q-86 147 -281 162v-480q184 -43 262 -94q121 -80 121 -229q0 -152 -119 -244q-106 -82 -264 -88v-125h-57v127q-330 17 -400 279 zM195 1028q0 -104 94 -162q61 -39 213 -73v469q-125 0 -207 -54q-100 -61 -100 -180zM559 176q135 6 227 74q104 76 105 207q0 123 -100 190q-70 45 -232 82v-553z" />
<glyph unicode="%" horiz-adv-x="1613" d="M119 1059q0 166 61 268q74 123 223.5 123t223.5 -123q61 -102 61 -268q0 -168 -61 -271q-74 -121 -223.5 -120.5t-223.5 120.5q-61 103 -61 271zM168 1059q0 -348 235.5 -348t235.5 348q0 346 -235.5 346t-235.5 -346zM469 0l621 1430h55l-621 -1430h-55zM926 371 q0 166 61 268q74 123 223.5 123t223.5 -123q61 -102 61 -268q0 -168 -61 -271q-74 -121 -223.5 -120.5t-223.5 120.5q-61 103 -61 271zM975 371q0 -346 235.5 -346t235.5 346t-235.5 346t-235.5 -346z" />
<glyph unicode="&#x26;" horiz-adv-x="1329" d="M100 356q0 154 78 258q70 94 236 191q-154 221 -154 366q0 119 76 196t194.5 77t187 -72t68.5 -190q0 -123 -84 -221q-63 -74 -213 -170q219 -299 488 -551q109 176 115 383h57q-6 -238 -129 -422q98 -88 184 -154l-28 -47q-104 80 -189 154q-172 -174 -444 -174 q-188 0 -312 96q-131 102 -131 280zM158 354q0 -152 123 -241q109 -82 262 -82q236 0 401 164q-268 250 -502 569q-152 -94 -209 -168q-75 -97 -75 -242zM317 1171q0 -143 146 -342q129 84 184 146q84 92 84 207q0 92 -53 149.5t-148 57.5q-96 0 -154.5 -61t-58.5 -157z" />
<glyph unicode="'" horiz-adv-x="421" d="M160 1120v328q0 49 49 49t49 -49v-328h-98z" />
<glyph unicode="(" horiz-adv-x="647" d="M123 714.5q0 192.5 85 388t230 327.5h68q-145 -129 -236 -334q-88 -197 -88 -381q0 -182 89 -383t235 -332h-68q-147 133 -231 327.5t-84 387z" />
<glyph unicode=")" horiz-adv-x="647" d="M164 0q145 129 235 334q86 197 86 381t-86 381q-90 205 -235 334h65q145 -131 230.5 -327t85.5 -388.5t-84 -387t-232 -327.5h-65z" />
<glyph unicode="*" horiz-adv-x="866" d="M98 1165l19 56l297 -107l-8 316h55l-8 -316l297 107l16 -56l-301 -88l192 -252l-47 -32l-178 262l-176 -262l-47 32l192 252z" />
<glyph unicode="+" horiz-adv-x="1005" d="M92 532v58h381v381h59v-381h381v-58h-381v-382h-59v382h-381z" />
<glyph unicode="," horiz-adv-x="430" d="M154 55q0 27 18 45.5t43 18.5q74 0 74 -64v-57l-135 -211v268z" />
<glyph unicode="-" horiz-adv-x="792" d="M133 532v58h526v-58h-526z" />
<glyph unicode="." horiz-adv-x="444" d="M154 57q0 27 20.5 47.5t46.5 20.5q29 0 49.5 -20.5t20.5 -47.5q0 -29 -20.5 -48t-49.5 -19q-27 0 -47 19t-20 48z" />
<glyph unicode="/" horiz-adv-x="825" d="M53 -156l658 1741h63l-659 -1741h-62z" />
<glyph unicode="0" horiz-adv-x="1140" d="M102 715q0 297 93 483q119 242 376 242q256 0 375 -242q92 -186 92 -483t-90 -486q-121 -244 -377 -243q-258 0 -376 243q-93 189 -93 486zM158 715q0 -262 67 -430q104 -250 346 -250t344 250q70 168 70 430t-70 430q-102 246 -343.5 246t-344.5 -246q-69 -168 -69 -430 z" />
<glyph unicode="1" horiz-adv-x="722" d="M104 1202l297 228h56v-1430h-60v1358l-262 -195z" />
<glyph unicode="2" horiz-adv-x="1124" d="M123 0v53q70 301 389 559l260 187q131 115 131 284q0 147 -110 234q-102 78 -256 78q-229 0 -340 -191l-45 21q53 104 156.5 162.5t228.5 58.5q186 0 301 -94q123 -98 123 -271q0 -135 -64 -229q-49 -72 -158 -147l-192 -136q-311 -246 -367 -516h821v-53h-878z" />
<glyph unicode="3" horiz-adv-x="1042" d="M111 231l51 17q43 -102 137 -156.5t211 -54.5q156 0 264.5 96t108.5 252q0 162 -109 254q-98 84 -266 88v41q154 4 247 83t93 228q0 135 -105.5 227.5t-244.5 92.5q-104 0 -194.5 -52.5t-131.5 -144.5l-49 17q51 109 153.5 168t225.5 59q168 0 280 -98q119 -104 119 -269 q0 -256 -246 -331q285 -82 285 -363q0 -184 -123 -291.5t-307 -107.5q-303 -1 -399 245z" />
<glyph unicode="4" horiz-adv-x="1110" d="M92 389v70l625 971h59l-633 -988h664v623l53 -10v-613h148v-53h-148v-389h-53v389h-715z" />
<glyph unicode="5" horiz-adv-x="1081" d="M131 227l51 17q41 -100 137 -156q88 -51 203 -51q193 0 301 125q100 117 101 305q0 184 -99 301q-106 125 -297 125q-172 0 -299 -113h-63v650h715v-50h-668v-557q150 119 313 119q217 0 335 -130t118 -345t-122 -348t-337 -133q-135 0 -239.5 62t-149.5 179z" />
<glyph unicode="6" horiz-adv-x="1097" d="M96 471q0 276 150 541q141 254 372 418h72q-434 -307 -536 -826q127 262 403 262q195 0 316.5 -128t121.5 -322q0 -184 -127 -306t-313 -122q-207 0 -333 137t-126 346zM158 424q0 -158 120.5 -272.5t278.5 -114.5q162 0 273.5 108.5t111.5 270.5q0 170 -107.5 284.5 t-277.5 114.5q-160 0 -279.5 -115.5t-119.5 -275.5z" />
<glyph unicode="7" horiz-adv-x="1005" d="M82 1253v177h842v-54q-229 -272 -346 -547q-156 -359 -157 -786q0 -21 1 -43h-68v12q0 448 154 811q119 276 350 553h-721v-123h-55z" />
<glyph unicode="8" horiz-adv-x="1085" d="M102 385q0 281 281 365q-123 41 -186 139q-53 86 -54 190q0 162 117 264q111 98 283 99q170 0 284.5 -100.5t114.5 -262.5q0 -246 -242 -329q283 -84 283 -365q0 -180 -126 -289.5t-314 -109.5q-190 0 -315.5 109.5t-125.5 289.5zM160 385q0 -156 112.5 -252t270 -96 t270.5 96t113 252q0 164 -113 254q-102 86 -270 86q-170 0 -273 -84q-110 -92 -110 -256zM199 1079q0 -147 100 -231q94 -78 244 -78q152 0 247 80t95 229q0 137 -101.5 225.5t-241 88.5t-241.5 -88.5t-102 -225.5z" />
<glyph unicode="9" horiz-adv-x="1062" d="M92 1016q0 176 125 302t303 126q205 0 326 -144q115 -135 115 -342q0 -262 -138 -520q-139 -266 -381 -438h-69q446 332 528 825q-127 -236 -381 -235q-184 0 -306 123t-122 303zM143 1016q0 -154 109.5 -265.5t267.5 -111.5q164 0 272.5 108.5t108.5 268.5 q0 154 -111.5 266.5t-269.5 112.5t-267.5 -113.5t-109.5 -265.5z" />
<glyph unicode=":" horiz-adv-x="444" d="M154 51q0 27 20.5 47.5t46.5 20.5q29 0 49.5 -20.5t20.5 -47.5q0 -29 -20.5 -48t-49.5 -19q-27 0 -47 19t-20 48zM154 713q0 29 20.5 49t46.5 20q29 0 49.5 -20.5t20.5 -48.5q0 -27 -20.5 -47.5t-49.5 -20.5q-27 0 -47 20.5t-20 47.5z" />
<glyph unicode=";" horiz-adv-x="464" d="M154 713q0 29 20.5 49t46.5 20q29 0 49.5 -20.5t20.5 -48.5q0 -27 -20.5 -47.5t-49.5 -20.5q-27 0 -47 20.5t-20 47.5zM154 55q0 27 18 45.5t43 18.5q74 0 74 -64v-57l-135 -211v268z" />
<glyph unicode="&#x3c;" horiz-adv-x="915" d="M111 715l604 715h69l-602 -715l602 -715h-69z" />
<glyph unicode="=" horiz-adv-x="1046" d="M113 258v57h821v-57h-821zM113 709v57h821v-57h-821z" />
<glyph unicode="&#x3e;" horiz-adv-x="915" d="M131 0l602 715l-602 715h70l604 -715l-604 -715h-70z" />
<glyph unicode="?" horiz-adv-x="958" d="M63 1118q10 145 134 238q115 90 276 90q170 0 287 -100.5t117 -262.5q0 -109 -52 -172q-33 -41 -123 -92q-109 -61 -151 -117q-55 -70 -59 -182l-9 -151h-24q-12 102 -13 151q0 131 48 201q33 47 116 96q100 59 144 101q66 66 65 165q0 143 -104 228q-96 80 -242 80 q-133 0 -235 -70q-111 -78 -121 -203h-54zM405 51q0 27 20.5 47.5t49.5 20.5q27 0 47.5 -20.5t20.5 -47.5q0 -29 -20.5 -48t-47.5 -19q-29 0 -49.5 19t-20.5 48z" />
<glyph unicode="@" horiz-adv-x="1433" d="M123 471q0 322 205 627q229 336 536 336q217 0 336 -193q104 -168 105 -410q0 -74 -35 -221q-4 -12 -10 -41l-37 -569l-56 4l19 313q-154 -342 -418 -342q-137 0 -215 119q-66 104 -66 248q0 211 131 414q145 225 345 225q197 0 272 -266q14 84 14 135q0 211 -96 360 q-106 168 -293 168q-281 0 -491 -321q-188 -289 -189 -586q0 -305 201 -457l-31 -47q-113 76 -174 223q-53 129 -53 281zM547 344q0 -121 47 -207q61 -104 174 -104q172 0 305 200q121 180 121 357q0 117 -55 217q-68 117 -174 117q-176 0 -306 -207q-112 -185 -112 -373z " />
<glyph unicode="A" horiz-adv-x="1263" d="M33 0l549 1430h100l549 -1430h-60l-174 453h-731l-174 -453h-59zM287 504h690l-346 899z" />
<glyph unicode="B" horiz-adv-x="1241" d="M154 0v1430h479q459 0 459 -365q0 -227 -240 -330q297 -86 297 -356q0 -379 -477 -379h-518zM211 55h461q420 0 420 324q0 330 -420 330h-461v-654zM211 752h436q387 0 387 313q0 311 -401 311h-422v-624z" />
<glyph unicode="C" horiz-adv-x="1173" d="M92 714.5q0 317.5 123 508.5q143 225 440 225q133 0 234 -51q90 -47 182 -154l-43 -35q-160 182 -373 183q-279 0 -407 -220q-98 -172 -98 -456.5t98 -456.5q129 -219 407 -219q213 0 373 182l43 -35q-92 -106 -182 -151q-100 -53 -234 -53q-297 0 -440 225 q-123 190 -123 507.5z" />
<glyph unicode="D" horiz-adv-x="1277" d="M154 0v1430h411q274 0 408 -82q119 -74 155 -240q27 -115 27 -393.5t-27 -390.5q-37 -168 -155 -242q-133 -82 -408 -82h-411zM211 57h354q367 0 467 168q49 82 62 238q4 53 4 251.5t-4 252.5q-12 158 -62 239q-100 168 -467 168h-354v-1317z" />
<glyph unicode="E" horiz-adv-x="1144" d="M154 0v1430h888v-56h-831v-606h727v-51h-727v-662h831v-55h-888z" />
<glyph unicode="F" horiz-adv-x="1103" d="M154 0v1430h868v-56h-811v-606h727v-49h-727v-719h-57z" />
<glyph unicode="G" horiz-adv-x="1265" d="M92 715q0 309 129 506q150 227 438 227q135 0 234 -51q90 -47 182 -154l-43 -35q-160 182 -373 183q-276 0 -407 -220q-102 -172 -102 -456q0 -279 100 -453q127 -223 399 -223q424 0 424 625h-385v57h442v-721h-57v293q-57 -168 -160.5 -239.5t-263.5 -71.5 q-289 0 -434 229q-123 191 -123 504z" />
<glyph unicode="H" horiz-adv-x="1318" d="M154 0v1430h57v-662h897v662h57v-1430h-57v717h-897v-717h-57z" />
<glyph unicode="I" horiz-adv-x="452" d="M197 0v1430h57v-1430h-57z" />
<glyph unicode="J" horiz-adv-x="1067" d="M68 248l55 14q78 -219 358 -219q385 0 385 379v1008h58v-1010q0 -434 -443 -434q-325 0 -413 262z" />
<glyph unicode="K" horiz-adv-x="1073" d="M154 0v1430h57v-1430h-57zM221 715l649 715h74l-647 -711l700 -719h-84z" />
<glyph unicode="L" horiz-adv-x="1009" d="M154 0v1430h57v-1381h747v-49h-804z" />
<glyph unicode="M" horiz-adv-x="1470" d="M154 0v1430h65l516 -1381l516 1381h66v-1430h-57v1309l-488 -1309h-76l-485 1305v-1305h-57z" />
<glyph unicode="N" horiz-adv-x="1269" d="M154 0v1430h77l828 -1354v1354h57v-1430h-76l-829 1354v-1354h-57z" />
<glyph unicode="O" horiz-adv-x="1302" d="M92 714.5q0 317.5 121 506.5q143 227 438 227t439 -227q121 -188 120.5 -506t-120.5 -506q-143 -227 -438.5 -227t-438.5 227q-121 188 -121 505.5zM150 714.5q0 -284.5 96 -454.5q127 -221 405.5 -221t405.5 221q96 170 96 454.5t-96 454.5q-127 221 -405.5 221.5 t-405.5 -221.5q-96 -170 -96 -454.5z" />
<glyph unicode="P" horiz-adv-x="1206" d="M154 0v1430h518q463 0 463 -379t-463 -379h-461v-672h-57zM211 723h461q406 0 405 328q0 184 -121 260q-98 61 -284 61h-461v-649z" />
<glyph unicode="Q" horiz-adv-x="1292" d="M92 714.5q0 317.5 121 506.5q143 227 438 227t439 -227q121 -188 120 -506q0 -365 -161 -561l125 -154h-74l-92 113q-160 -131 -357 -131q-295 0 -438 227q-121 188 -121 505.5zM150 714.5q0 -284.5 96 -454.5q127 -221 405 -221q176 0 320 117q-135 154 -293 176v51 q184 -23 334 -186q141 188 141 518q0 285 -96 454q-127 221 -405.5 221.5t-405.5 -221.5q-96 -170 -96 -454.5z" />
<glyph unicode="R" horiz-adv-x="1214" d="M154 0v1430h479q444 0 444 -375q0 -346 -430 -373q68 -43 135 -158l312 -524h-68l-309 522q-96 160 -217 160h-289v-682h-57zM211 735h422q387 0 387 320q0 317 -387 317h-422v-637z" />
<glyph unicode="S" horiz-adv-x="1218" d="M96 326l58 8q70 -299 481 -299q172 0 293 84q141 96 141 264q0 207 -240 295l-442 125q-240 88 -240 297q0 170 138 262q121 82 305 82q340 0 475 -258l-51 -23q-119 223 -424 223q-152 0 -254 -59q-131 -76 -131 -227q0 -180 239 -258l443 -127q240 -100 239 -332 q0 -186 -149 -299q-139 -102 -342 -102q-463 0 -539 344z" />
<glyph unicode="T" horiz-adv-x="1093" d="M41 1374v56h1012v-56h-478v-1374h-57v1374h-477z" />
<glyph unicode="U" horiz-adv-x="1298" d="M143 612v818h58v-818q0 -260 84 -395q106 -178 364 -178q256 0 365 178q84 137 84 395v818h57v-818q0 -299 -104 -452q-125 -178 -402 -178q-506 -1 -506 630z" />
<glyph unicode="V" horiz-adv-x="1130" d="M41 1430h59l465 -1360l465 1360h60l-486 -1430h-78z" />
<glyph unicode="W" horiz-adv-x="1566" d="M68 1430h59l309 -1332l312 1332h69l311 -1332l312 1332h57l-334 -1430h-69l-312 1331l-311 -1331h-70z" />
<glyph unicode="X" horiz-adv-x="1161" d="M72 0l475 739l-445 691h68l412 -639l409 639h68l-445 -691l476 -739h-68l-440 686l-443 -686h-67z" />
<glyph unicode="Y" horiz-adv-x="1136" d="M68 1430h63l438 -889l439 889h63l-473 -957v-473h-57v473z" />
<glyph unicode="Z" horiz-adv-x="1169" d="M92 0v66l907 1308h-829v56h887v-74l-901 -1299h901v-57h-965z" />
<glyph unicode="[" horiz-adv-x="550" d="M143 -125v1679h306v-34h-240v-1608h240v-37h-306z" />
<glyph unicode="\" horiz-adv-x="825" d="M53 1585h62l659 -1741h-63z" />
<glyph unicode="]" horiz-adv-x="550" d="M143 -88h242v1608h-242v34h306v-1679h-306v37z" />
<glyph unicode="^" horiz-adv-x="1050" d="M123 813l356 617h94l357 -617l-49 -29l-355 617l-356 -617z" />
<glyph unicode="_" horiz-adv-x="1083" d="M51 0h981v-47h-981v47z" />
<glyph unicode="`" horiz-adv-x="618" d="M178 1415h92l172 -299h-71z" />
<glyph unicode="a" horiz-adv-x="954" d="M92 266q0 129 94.5 203t231.5 74h153q139 0 201 65v117q0 100 -92 166q-80 57 -180 57q-229 0 -299 -166l-49 17q88 201 354 200q125 0 219 -73q100 -80 100 -195v-584l29 -145l-45 -12l-31 129q-162 -139 -342 -139q-152 0 -243 71q-101 78 -101 215zM147 266 q0 -117 93 -180q78 -55 196 -55q186 0 336 149v363q-94 -49 -174 -49h-180q-111 0 -185 -56q-86 -61 -86 -172z" />
<glyph unicode="b" horiz-adv-x="999" d="M143 0v1430h54v-617q104 182 319 182q391 0 391 -508q0 -506 -389 -505q-221 0 -321 180v-162h-54zM197 319q0 -129 94 -207.5t225 -78.5q340 0 340 454q0 457 -340 457q-131 0 -225 -80t-94 -209v-336z" />
<glyph unicode="c" horiz-adv-x="946" d="M92 489q0 225 107 361q117 147 331 147q182 0 314 -133l-39 -33q-117 121 -275 121q-201 0 -297 -145q-82 -119 -81.5 -317.5t81.5 -317.5q96 -143 297 -143q158 0 275 121l39 -35q-131 -131 -314 -131q-215 0 -331 147q-107 135 -107 358z" />
<glyph unicode="d" horiz-adv-x="1021" d="M92 489q0 506 397 506q199 0 316 -172v607h53v-1276l31 -150l-49 -14l-37 162q-109 -170 -318 -170q-393 -1 -393 507zM147 489q0 -457 338 -456q133 0 226.5 77.5t93.5 208.5v336q0 129 -92 209t-224 80q-342 0 -342 -455z" />
<glyph unicode="e" horiz-adv-x="976" d="M92 489q0 506 420 506q188 0 287 -129q86 -117 86 -313v-61h-735q6 -459 382 -459q180 0 275 104l41 -33q-111 -123 -316 -122q-440 -1 -440 507zM150 543h681q-8 401 -319 401q-335 0 -362 -401z" />
<glyph unicode="f" horiz-adv-x="585" d="M102 928v51h115v55q0 178 59 262q86 123 269 134v-52q-154 -8 -223 -108q-53 -76 -54 -238v-53h240v-51h-240v-928h-51v928h-115z" />
<glyph unicode="g" horiz-adv-x="999" d="M92 -135q0 29 8 57l50 -16q-4 -20 -5 -41q0 -98 123 -158q100 -47 211 -47q137 0 256 74q139 88 139 225q0 76 -61 119q-53 35 -125 35q-61 0 -179 -27t-179 -27q-152 0 -152 115q0 117 148 211q-180 90 -181 297q0 313 338 313q170 0 258 -80q104 27 117 111h53 q-12 -106 -137 -149q49 -98 49 -195q0 -313 -340 -313q-61 0 -116 10q-141 -86 -142 -193q0 -84 99 -84q63 0 183 30t181 30q102 0 171 -55.5t69 -147.5q0 -150 -148 -252q-133 -92 -301 -92q-150 0 -258 59q-129 68 -129 191zM197 682q0 -272 286 -272q289 0 289 272 q0 266 -287 266q-288 0 -288 -266z" />
<glyph unicode="h" horiz-adv-x="1030" d="M143 0v1430h54v-615q115 182 319 182q391 0 391 -434v-563h-51v563q0 383 -340 383q-115 0 -213 -74q-106 -78 -106 -190v-682h-54z" />
<glyph unicode="i" horiz-adv-x="413" d="M141 1364q0 66 66 66q68 0 67 -66q0 -68 -67 -68q-66 0 -66 68zM178 0v979h55v-979h-55z" />
<glyph unicode="j" horiz-adv-x="471" d="M-41 -399q285 14 285 342v1036h55v-1036q0 -377 -340 -394v52zM207 1364q0 66 65 66q68 0 68 -66q0 -68 -68 -68q-65 0 -65 68z" />
<glyph unicode="k" horiz-adv-x="854" d="M143 0v1430h54v-1430h-54zM211 520l440 459h66l-436 -455l518 -524h-74z" />
<glyph unicode="l" horiz-adv-x="411" d="M143 211v1219h54v-1219q0 -143 143 -158v-51q-197 14 -197 209z" />
<glyph unicode="m" horiz-adv-x="1576" d="M143 0v979h52v-158q96 174 284 174q227 0 318 -231q78 231 313 231q344 0 344 -438v-557h-51v557q0 387 -293 387q-289 0 -289 -387v-557h-51v557q0 387 -297 387q-104 0 -188 -67q-90 -74 -90 -183v-694h-52z" />
<glyph unicode="n" horiz-adv-x="1030" d="M143 0v979h54v-168q119 184 319 184q391 0 391 -438v-557h-51v557q0 387 -340 387q-135 0 -227 -81t-92 -193v-670h-54z" />
<glyph unicode="o" d="M92 487q0 508 410 508q408 0 407 -508q0 -506 -407 -505q-410 -1 -410 505zM147 487q0 -455 353 -454q356 0 356 454q0 457 -354 457q-205 0 -291 -141q-64 -109 -64 -316z" />
<glyph unicode="p" horiz-adv-x="999" d="M143 -451v1430h54v-178q102 199 321 198q389 0 389 -507.5t-391 -507.5q-211 0 -319 184v-619h-54zM197 324q0 -131 94 -210t225 -79q340 0 340 456.5t-340 456.5q-131 0 -223 -76q-96 -82 -96 -210v-338z" />
<glyph unicode="q" horiz-adv-x="1005" d="M90 492q0 508 393 507q213 0 320 -174l35 166l49 -16l-31 -148v-1278h-53v609q-117 -172 -316 -172q-397 0 -397 506zM145 492q0 -455 342 -455q131 0 223.5 79t92.5 210v336q0 131 -93.5 208.5t-226.5 77.5q-338 1 -338 -456z" />
<glyph unicode="r" horiz-adv-x="765" d="M143 0v979h56v-180q109 193 327 192q90 0 168 -26l-28 -52q-76 27 -140 27q-127 0 -227 -83t-100 -198v-659h-56z" />
<glyph unicode="s" horiz-adv-x="915" d="M88 225l51 8q55 -201 338 -200q115 0 199 51q104 63 104 180q0 137 -170 197l-317 86q-172 61 -172 207q0 119 100 182q86 57 223 57q242 0 340 -170l-47 -22q-82 139 -293 139q-104 0 -174 -35q-96 -47 -96 -151q0 -117 172 -170l316 -88q172 -70 172 -232 q0 -131 -111 -211q-100 -72 -246 -71q-328 -1 -389 243z" />
<glyph unicode="t" horiz-adv-x="555" d="M61 928v51h162v303h56v-303h184v-51h-184v-715q0 -90 34.5 -124t120.5 -38v-51h-16q-195 0 -195 213v715h-162z" />
<glyph unicode="u" horiz-adv-x="1019" d="M123 408v571h53v-571q0 -184 70 -273q80 -100 268 -100q111 0 209 67q113 78 113 193v684h51v-979h-51v154q-129 -170 -322 -170q-209 0 -303 106q-88 101 -88 318z" />
<glyph unicode="v" horiz-adv-x="917" d="M53 979h58l348 -930l348 930h59l-370 -979h-76z" />
<glyph unicode="w" horiz-adv-x="1497" d="M49 979h55l283 -922l324 922h71l324 -924l287 924h53l-305 -979h-70l-326 926l-323 -926h-72z" />
<glyph unicode="x" horiz-adv-x="892" d="M63 0l351 506l-332 473h68l296 -428l295 428h64l-328 -473l350 -506h-63l-318 459l-317 -459h-66z" />
<glyph unicode="y" horiz-adv-x="917" d="M53 979h56l350 -913l350 913h55l-473 -1239q-73 -190 -254 -191h-4h-16v52h16h4q144 0 203 157l90 234z" />
<glyph unicode="z" horiz-adv-x="913" d="M82 0v78l688 850h-635v51h686v-72l-692 -856h692v-51h-739z" />
<glyph unicode="{" horiz-adv-x="684" d="M102 684v59q215 0 215 240q0 37 -20.5 118t-20.5 118q0 178 70 256.5t236 78.5v-53q-150 0 -203 -74q-45 -61 -45 -210q0 -35 20.5 -114t20.5 -116q0 -250 -178 -272q92 -10 139 -97q39 -72 39 -174q0 -39 -18.5 -125t-18.5 -124q0 -135 51 -195q55 -68 193 -68v-55 q-164 0 -235 78t-71 240q0 39 20.5 126t20.5 125q0 238 -215 238z" />
<glyph unicode="|" horiz-adv-x="440" d="M195 -156v1741h51v-1741h-51z" />
<glyph unicode="}" horiz-adv-x="684" d="M102 -68q135 0 193 68q51 59 51 195q0 39 -18.5 125t-18.5 124q0 102 39 174q45 86 139 97q-178 23 -178 272q0 37 20.5 116t20.5 114q0 150 -45 210q-53 74 -203 74v53q166 0 236 -78.5t70 -256.5q0 -37 -20.5 -118t-20.5 -118q0 -240 215 -240v-59q-215 0 -215 -238 q0 -39 20.5 -126t20.5 -125q0 -162 -71 -240t-235 -78v55z" />
<glyph unicode="~" horiz-adv-x="952" d="M113 606q84 109 184 109q78 0 182.5 -74t169.5 -74q80 0 152 95l37 -39q-92 -111 -187 -111q-82 0 -185.5 73.5t-168.5 73.5q-80 0 -145 -92z" />
<glyph unicode="&#xa1;" horiz-adv-x="573" d="M219 1380q0 27 19.5 47.5t48 20.5t48 -20.5t19.5 -47.5q0 -29 -19.5 -49t-48 -20t-48 20t-19.5 49zM242 0v692l28 373h31l29 -373v-692h-88z" />
<glyph unicode="&#xa2;" horiz-adv-x="946" d="M92 489q0 223 109 355q121 147 350 147l35 160l30 -6l-32 -156q150 -18 260 -129l-39 -33q-98 98 -232 119l-194 -885q84 -29 151 -28q158 0 275 121l39 -35q-131 -131 -314 -131q-72 0 -161 26l-41 -186l-31 6l43 193q-248 124 -248 462zM152 489q0 -285 198 -415 l191 874q-389 -23 -389 -459z" />
<glyph unicode="&#xa3;" horiz-adv-x="1028" d="M98 690l11 51h127q-41 203 -41 291q0 178 94 287q98 117 274 117q217 0 363 -154l-43 -35q-127 135 -320 135q-156 0 -239 -104q-74 -94 -74 -246q0 -86 41 -291h266l-10 -51h-244q35 -174 35 -270q0 -154 -84 -367h661v-53h-720v55q88 199 88 365q0 92 -37 270h-148z " />
<glyph unicode="&#xa4;" horiz-adv-x="1198" d="M98 506l11 51h131q-7 88 -7 186v50h-135l11 51h129q23 266 151 424q145 180 406 180q195 0 327 -117l-28 -49q-123 109 -299 109q-227 0 -359 -160q-121 -143 -141 -387h545l-11 -51h-538v-78q0 -74 6 -158h543l-11 -51h-528q39 -215 164 -338q129 -129 330 -129 q176 0 299 108l28 -49q-133 -117 -327 -116q-223 0 -371 145q-141 139 -178 379h-148z" />
<glyph unicode="&#xa5;" horiz-adv-x="1177" d="M88 1430h64l438 -889l438 889h64l-340 -689h209l-13 -51h-221l-117 -235h351l-13 -52h-330v-403h-57v403h-344l12 52h340l-116 235h-236l12 51h199z" />
<glyph unicode="&#xa6;" horiz-adv-x="563" d="M256 -156v752h51v-752h-51zM256 836v751h51v-751h-51z" />
<glyph unicode="&#xa7;" horiz-adv-x="1028" d="M133 557q0 184 143 299q-98 92 -98 219q0 150 94.5 247t247.5 97q201 0 348 -250l-49 -24q-131 221 -299 221q-133 0 -210 -83t-77 -208t91 -186q55 -39 196 -74q375 -92 375 -362q0 -182 -141 -299q96 -92 96 -217q0 -152 -93 -249.5t-249 -97.5q-201 0 -348 252l49 25 q131 -223 299 -223q133 0 210 84t77 208.5t-90 186.5q-55 37 -197 72q-375 92 -375 362zM188 557q0 -229 332 -311q109 -25 180 -60q139 88 140 267q0 231 -332 311q-106 27 -180 61q-140 -88 -140 -268z" />
<glyph unicode="&#xa8;" d="M215 1221q0 68 66 67q68 0 67 -67q0 -66 -67 -66q-66 0 -66 66zM655 1221q0 68 68 67q66 0 65 -67q0 -66 -65 -66q-68 0 -68 66z" />
<glyph unicode="&#xa9;" horiz-adv-x="1617" d="M92 713q0 297 210 507t507 210t507 -210t210 -507t-210 -507t-507 -210t-507 210t-210 507zM133 712.5q0 -278.5 198.5 -477t477.5 -198.5q281 0 478.5 198.5t197.5 477t-197.5 477.5t-478.5 199q-279 0 -477.5 -199t-198.5 -477.5zM526 713q0 168 68 270q78 119 231 119 q123 0 211 -101l-39 -32q-72 82 -172 82q-244 0 -243 -338q0 -336 243 -336q100 0 172 80l39 -33q-88 -98 -211 -98q-154 0 -231 116q-68 103 -68 271z" />
<glyph unicode="&#xaa;" horiz-adv-x="806" d="M90 860q0 106 78 168t192 62h123q104 0 154 47v84q0 76 -72 125q-61 45 -139 45q-178 0 -236 -134l-55 17q78 174 295 174q102 0 183 -63.5t81 -157.5v-512l23 -56l-51 -16l-33 76q-129 -94 -258 -94q-125 0 -201 59q-84 63 -84 176zM150 860q0 -88 69 -137 q61 -43 156 -43q143 0 262 117v270q-72 -33 -133 -33h-144q-88 0 -145 -41q-65 -47 -65 -133zM283 412v53h241v-53h-241z" />
<glyph unicode="&#xab;" horiz-adv-x="964" d="M92 487v82l385 371q-2 -33 -2 -74l-350 -338l350 -338v-73zM467 487v82l385 371v-74l-350 -338l350 -338v-73z" />
<glyph unicode="&#xac;" horiz-adv-x="1026" d="M92 530v45h821v-364h-41v319h-780z" />
<glyph unicode="&#xad;" horiz-adv-x="970" d="M82 508v104h807v-104h-807z" />
<glyph unicode="&#x2212;" horiz-adv-x="970" d="M82 508v104h807v-104h-807z" />
<glyph unicode="&#xae;" horiz-adv-x="1617" d="M92 713q0 297 210 507t507 210t507 -210t210 -507t-210 -507t-507 -210t-507 210t-210 507zM133 712.5q0 -278.5 198.5 -477t477.5 -198.5q281 0 478.5 198.5t197.5 477t-197.5 477.5t-478.5 199q-279 0 -477.5 -199t-198.5 -477.5zM578 340v747h258q242 0 241 -206 q0 -80 -53 -133q-59 -59 -166 -60l55 -61q8 -8 13 -17l166 -270h-64l-145 244q-57 96 -127 96h-127v-340h-51zM629 719h207q190 0 190 162q0 156 -190 155h-207v-317z" />
<glyph unicode="&#xaf;" horiz-adv-x="991" d="M195 1260v51h602v-51h-602z" />
<glyph unicode="&#x2c9;" horiz-adv-x="991" d="M195 1260v51h602v-51h-602z" />
<glyph unicode="&#xb0;" horiz-adv-x="555" d="M92 1354q0 76 54.5 130t129.5 54q78 0 132.5 -54t54.5 -130t-54.5 -131.5t-132.5 -55.5q-76 0 -130 55.5t-54 131.5zM127 1353.5q0 -61.5 44 -106.5t105.5 -45t106.5 45t45 106.5t-45 105.5t-106.5 44t-105.5 -44t-44 -105.5z" />
<glyph unicode="&#xb1;" horiz-adv-x="1046" d="M113 0v53h821v-53h-821zM113 537v57h381v377h59v-377h381v-57h-381v-379h-59v379h-381z" />
<glyph unicode="&#xb2;" horiz-adv-x="681" d="M92 561v47q76 188 225 326q135 121 184.5 184.5t49.5 124.5q0 88 -74 131q-53 33 -123 33q-125 0 -194 -115l-35 17q82 135 229 135q96 0 162 -51q74 -57 74 -150q0 -68 -47 -133q-51 -72 -199 -203q-121 -111 -217 -309h463v-37h-498z" />
<glyph unicode="&#xb3;" horiz-adv-x="675" d="M100 709l37 12q53 -127 195 -127q88 0 150.5 59.5t62.5 145.5q0 84 -62.5 144.5t-150.5 60.5h-23v36h15q84 0 143 53.5t59 131.5q0 76 -59 130t-143 54q-135 0 -187 -115l-37 13q59 139 224 139q100 0 170.5 -65.5t70.5 -155.5q0 -113 -133 -201q152 -94 152 -225 q0 -100 -74 -171t-178 -71q-76 0 -140.5 42t-91.5 110z" />
<glyph unicode="&#xb4;" horiz-adv-x="577" d="M156 1116l172 299h92l-193 -299h-71z" />
<glyph unicode="&#xb5;" horiz-adv-x="1030" d="M133 -401v1380h53v-557q0 -383 338 -383q113 0 211 67q111 76 111 187v686h51v-979h-51v152q-139 -164 -322 -164q-244 0 -338 194v-583h-53z" />
<glyph unicode="&#x3bc;" horiz-adv-x="1030" d="M133 -401v1380h53v-557q0 -383 338 -383q113 0 211 67q111 76 111 187v686h51v-979h-51v152q-139 -164 -322 -164q-244 0 -338 194v-583h-53z" />
<glyph unicode="&#xb6;" horiz-adv-x="933" d="M113 1049q0 158 115.5 269.5t279.5 111.5h252v-1739h-58v1675h-112v-1675h-58v975q-180 0 -299.5 110.5t-119.5 272.5z" />
<glyph unicode="&#xb7;" horiz-adv-x="444" d="M133 543q0 37 25.5 62.5t62.5 25.5t63.5 -25.5t26.5 -62.5t-26.5 -63.5t-63.5 -26.5t-62.5 26.5t-25.5 63.5z" />
<glyph unicode="&#x2219;" horiz-adv-x="444" d="M133 543q0 37 25.5 62.5t62.5 25.5t63.5 -25.5t26.5 -62.5t-26.5 -63.5t-63.5 -26.5t-62.5 26.5t-25.5 63.5z" />
<glyph unicode="&#xb8;" horiz-adv-x="985" d="M373 -401l184 266l-74 155l45 19l84 -180l-147 -260h-92z" />
<glyph unicode="&#xb9;" horiz-adv-x="524" d="M92 1307l262 135h17v-881h-43v828l-215 -113z" />
<glyph unicode="&#xba;" horiz-adv-x="862" d="M94 1036.5q0 411.5 338 411.5q336 0 336 -411.5t-336 -411.5q-338 0 -338 411.5zM152 1036.5q0 -354.5 280 -354.5q279 0 279 354.5t-279 354.5q-280 0 -280 -354.5zM311 412v53h240v-53h-240z" />
<glyph unicode="&#xbb;" horiz-adv-x="964" d="M92 940l385 -371v-82l-383 -370v73l350 338l-350 338q0 41 -2 74zM467 940l385 -371v-82l-383 -370v73l350 338l-350 338q0 41 -2 74z" />
<glyph unicode="&#xbc;" horiz-adv-x="1515" d="M92 1309l223 133h15v-862h-35v809l-186 -109zM393 0l621 1430h39l-621 -1430h-39zM969 233v50l362 579h43l-373 -592h345v355l36 -9v-346h62v-37h-62v-233h-36v233h-377z" />
<glyph unicode="&#xbd;" horiz-adv-x="1593" d="M92 1309l223 133h15v-862h-35v809l-186 -109zM393 0l619 1430h39l-619 -1430h-39zM1026 0v47q72 186 211 320q125 117 171 179t46 122q0 86 -68 129q-51 33 -114 32q-117 0 -182 -112l-33 16q76 131 215 131q90 0 151 -49q68 -57 68 -147q0 -66 -45 -129 q-47 -70 -182 -199q-115 -109 -205 -303h432v-37h-465z" />
<glyph unicode="&#xbe;" horiz-adv-x="1681" d="M98 725l35 12q49 -125 182 -125q82 0 139.5 58.5t57.5 142.5q0 82 -57.5 141.5t-139.5 59.5h-20v35h12q78 0 133.5 52t55.5 128t-55.5 128t-133.5 52q-125 0 -174 -111l-33 11q55 137 207 137q94 0 159.5 -63.5t65.5 -153.5q0 -111 -124 -197q141 -74 141 -219 q0 -98 -68.5 -168t-165.5 -70q-72 0 -131 41t-86 109zM561 0l619 1430h39l-619 -1430h-39zM1135 233v50l360 579h43l-371 -592h344v355l37 -9v-346h62v-37h-62v-233h-37v233h-376z" />
<glyph unicode="&#xbf;" horiz-adv-x="958" d="M63 344q0 111 54 174q31 39 124 91.5t134 99.5q70 76 76 198l6 152h24q12 -102 13 -150q0 -133 -48 -202q-33 -47 -116 -97q-100 -59 -144 -100q-66 -66 -65 -166q0 -143 104 -227q96 -80 242 -80q133 0 235 69q111 78 121 205h54q-10 -147 -134 -239q-115 -88 -276 -88 q-170 0 -287 99t-117 261zM397 1376q0 29 20.5 49.5t47.5 20.5q29 0 49.5 -20.5t20.5 -49.5q0 -27 -20.5 -47t-49.5 -20q-27 0 -47.5 20t-20.5 47z" />
<glyph unicode="&#xc0;" horiz-adv-x="1263" d="M33 0l549 1430h100l549 -1430h-60l-174 453h-731l-174 -453h-59zM287 504h690l-346 899zM461 1886h80l151 -256h-63z" />
<glyph unicode="&#xc1;" horiz-adv-x="1263" d="M33 0l549 1430h100l549 -1430h-60l-174 453h-731l-174 -453h-59zM287 504h690l-346 899zM565 1630l150 256h82l-170 -256h-62z" />
<glyph unicode="&#xc2;" horiz-adv-x="1263" d="M33 0l549 1430h100l549 -1430h-60l-174 453h-731l-174 -453h-59zM287 504h690l-346 899zM391 1589l203 297h78l202 -297h-65l-178 273l-176 -273h-64z" />
<glyph unicode="&#xc3;" horiz-adv-x="1263" d="M33 0l549 1430h100l549 -1430h-60l-174 453h-731l-174 -453h-59zM287 504h690l-346 899zM342 1688q61 74 139 73q57 0 156.5 -45t153.5 -45q55 0 96 49l4 6l41 -32q-63 -74 -139 -74q-59 0 -158.5 45t-153.5 45q-55 0 -96 -49l-4 -4z" />
<glyph unicode="&#xc4;" horiz-adv-x="1263" d="M33 0l549 1430h100l549 -1430h-60l-174 453h-731l-174 -453h-59zM287 504h690l-346 899zM342 1698q0 68 68 67q66 0 65 -67q0 -66 -65 -66q-68 0 -68 66zM782 1698q0 68 68 67.5t68 -67.5q0 -66 -68 -66t-68 66z" />
<glyph unicode="&#xc5;" horiz-adv-x="1263" d="M33 0l549 1430h100l549 -1430h-60l-174 453h-731l-174 -453h-59zM287 504h690l-346 899zM410 1782q0 92 64.5 156.5t156.5 64.5t157.5 -64.5t65.5 -156.5q0 -90 -65.5 -154.5t-157.5 -64.5t-156.5 64.5t-64.5 154.5zM461 1782q0 -70 50 -119t120 -49q72 0 122 49t50 119 q0 72 -50.5 121t-121.5 49q-70 0 -120 -49t-50 -121z" />
<glyph unicode="&#xc6;" horiz-adv-x="1849" d="M45 0l821 1430h891v-56h-756v-600h656v-57h-656v-662h756v-55h-815l2 453h-577l-261 -453h-61zM399 504h545v870h-43z" />
<glyph unicode="&#xc7;" horiz-adv-x="1173" d="M92 715q0 317 123 508q143 225 440 225q133 0 234 -51q90 -47 182 -154l-43 -35q-160 182 -373 183q-279 0 -407 -220q-98 -172 -98 -456.5t98 -456.5q129 -219 407 -219q213 0 373 182l43 -35q-170 -195 -387 -202l68 -148l-127 -237h-80l160 243l-66 142 q-289 6 -428 229q-119 189 -119 502z" />
<glyph unicode="&#xc8;" horiz-adv-x="1169" d="M154 0v1430h888v-56h-831v-606h727v-51h-727v-662h831v-55h-888zM463 1886h84l153 -256h-65z" />
<glyph unicode="&#xc9;" horiz-adv-x="1169" d="M154 0v1430h888v-56h-831v-606h727v-51h-727v-662h831v-55h-888zM539 1630l153 256h82l-172 -256h-63z" />
<glyph unicode="&#xca;" horiz-adv-x="1169" d="M154 0v1430h888v-56h-831v-606h727v-51h-727v-662h831v-55h-888zM391 1589l203 297h78l202 -297h-65l-178 273l-176 -273h-64z" />
<glyph unicode="&#xcb;" horiz-adv-x="1169" d="M154 0v1430h888v-56h-831v-606h727v-51h-727v-662h831v-55h-888zM342 1698q0 68 68 67q66 0 65 -67q0 -66 -65 -66q-68 0 -68 66zM782 1698q0 68 68 67.5t68 -67.5q0 -66 -68 -66t-68 66z" />
<glyph unicode="&#xcc;" horiz-adv-x="475" d="M55 1886h92l172 -256h-71zM213 0v1430h57v-1430h-57z" />
<glyph unicode="&#xcd;" horiz-adv-x="448" d="M156 1630l172 256h92l-193 -256h-71zM197 0v1430h57v-1430h-57z" />
<glyph unicode="&#xce;" horiz-adv-x="466" d="M-8 1589l203 297h77l203 -297h-65l-179 273l-176 -273h-63zM203 0v1430h57v-1430h-57z" />
<glyph unicode="&#xcf;" horiz-adv-x="454" d="M-29 1698q0 68 68 67q66 0 65 -67q0 -66 -65 -66q-68 0 -68 66zM205 0v1430h57v-1430h-57zM350 1698q0 68 66 67q68 0 67 -67q0 -66 -67 -66q-66 0 -66 66z" />
<glyph unicode="&#xd0;" horiz-adv-x="1349" d="M106 682v57h93v691h411q260 0 383 -66q154 -84 187 -309q16 -121 16 -340t-16 -338q-33 -225 -187 -309q-123 -68 -383 -68h-411v682h-93zM256 57h354q229 0 332 47q152 72 180 279q16 117 16.5 332t-16.5 332q-29 209 -180 278q-102 49 -334 49h-352v-635h350v-57h-350 v-625z" />
<glyph unicode="&#xd1;" horiz-adv-x="1269" d="M154 0v1430h77l828 -1354v1354h57v-1430h-76l-829 1354v-1354h-57zM348 1688q63 74 141 73q59 0 161 -45t153 -45q55 0 98 49l4 6l39 -32q-61 -74 -139 -74q-59 0 -160.5 45t-152.5 45q-57 0 -99 -49l-4 -4z" />
<glyph unicode="&#xd2;" horiz-adv-x="1302" d="M92 714.5q0 317.5 121 506.5q143 227 438 227t439 -227q121 -188 120.5 -506t-120.5 -506q-143 -227 -438.5 -227t-438.5 227q-121 188 -121 505.5zM150 714.5q0 -284.5 96 -454.5q127 -221 405.5 -221t405.5 221q96 170 96 454.5t-96 454.5q-127 221 -405.5 221.5 t-405.5 -221.5q-96 -170 -96 -454.5zM487 1886h80l154 -256h-64z" />
<glyph unicode="&#xd3;" horiz-adv-x="1302" d="M92 714.5q0 317.5 121 506.5q143 227 438 227t439 -227q121 -188 120.5 -506t-120.5 -506q-143 -227 -438.5 -227t-438.5 227q-121 188 -121 505.5zM150 714.5q0 -284.5 96 -454.5q127 -221 405.5 -221t405.5 221q96 170 96 454.5t-96 454.5q-127 221 -405.5 221.5 t-405.5 -221.5q-96 -170 -96 -454.5zM569 1630l152 256h82l-170 -256h-64z" />
<glyph unicode="&#xd4;" horiz-adv-x="1302" d="M92 714.5q0 317.5 121 506.5q143 227 438 227t439 -227q121 -188 120.5 -506t-120.5 -506q-143 -227 -438.5 -227t-438.5 227q-121 188 -121 505.5zM150 714.5q0 -284.5 96 -454.5q127 -221 405.5 -221t405.5 221q96 170 96 454.5t-96 454.5q-127 221 -405.5 221.5 t-405.5 -221.5q-96 -170 -96 -454.5zM410 1591l204 297h76l205 -297h-68l-176 273l-176 -273h-65z" />
<glyph unicode="&#xd5;" horiz-adv-x="1302" d="M92 714.5q0 317.5 121 506.5q143 227 438 227t439 -227q121 -188 120.5 -506t-120.5 -506q-143 -227 -438.5 -227t-438.5 227q-121 188 -121 505.5zM150 714.5q0 -284.5 96 -454.5q127 -221 405.5 -221t405.5 221q96 170 96 454.5t-96 454.5q-127 221 -405.5 221.5 t-405.5 -221.5q-96 -170 -96 -454.5zM369 1688q63 74 141 73q57 0 157.5 -45t151.5 -45q55 0 99 49l4 6l39 -32q-61 -74 -140 -74q-57 0 -157.5 45t-153.5 45q-55 0 -96 -49l-4 -4z" />
<glyph unicode="&#xd6;" horiz-adv-x="1302" d="M92 714.5q0 317.5 121 506.5q143 227 438 227t439 -227q121 -188 120.5 -506t-120.5 -506q-143 -227 -438.5 -227t-438.5 227q-121 188 -121 505.5zM150 714.5q0 -284.5 96 -454.5q127 -221 405.5 -221t405.5 221q96 170 96 454.5t-96 454.5q-127 221 -405.5 221.5 t-405.5 -221.5q-96 -170 -96 -454.5zM358 1698q0 68 68 67q66 0 66 -67q0 -66 -66 -66q-68 0 -68 66zM799 1698q0 68 67.5 67.5t67.5 -67.5q0 -66 -67.5 -66t-67.5 66z" />
<glyph unicode="&#xd7;" horiz-adv-x="890" d="M133 291l270 270l-270 268l43 43l268 -270l271 270l41 -43l-269 -268l269 -270l-41 -41l-271 268l-268 -268z" />
<glyph unicode="&#xd8;" horiz-adv-x="1302" d="M92 715q0 317 121 506q143 227 438 227q176 0 322 -96l43 78h59l-63 -111q199 -205 198 -604q0 -317 -120 -506q-143 -227 -439 -227q-182 0 -332 104l-47 -86h-59l68 121q-189 205 -189 594zM150 715q0 -340 159 -543l635 1131q-131 88 -293 88q-279 0 -405 -222 q-96 -169 -96 -454zM348 137q133 -98 303 -98q279 0 406 221q96 170 96 455q0 352 -170 553z" />
<glyph unicode="&#xd9;" horiz-adv-x="1298" d="M143 612v818h58v-818q0 -260 84 -395q106 -178 364 -178q256 0 365 178q84 137 84 395v818h57v-818q0 -299 -104 -452q-125 -178 -402 -178q-506 -1 -506 630zM492 1886h79l154 -256h-63z" />
<glyph unicode="&#xda;" horiz-adv-x="1298" d="M143 612v818h58v-818q0 -260 84 -395q106 -178 364 -178q256 0 365 178q84 137 84 395v818h57v-818q0 -299 -104 -452q-125 -178 -402 -178q-506 -1 -506 630zM551 1630l151 256h82l-170 -256h-63z" />
<glyph unicode="&#xdb;" horiz-adv-x="1298" d="M143 612v818h58v-818q0 -260 84 -395q106 -178 364 -178q256 0 365 178q84 137 84 395v818h57v-818q0 -299 -104 -452q-125 -178 -402 -178q-506 -1 -506 630zM410 1591l204 297h76l205 -297h-68l-176 273l-176 -273h-65z" />
<glyph unicode="&#xdc;" horiz-adv-x="1298" d="M143 612v818h58v-818q0 -260 84 -395q106 -178 364 -178q256 0 365 178q84 137 84 395v818h57v-818q0 -299 -104 -452q-125 -178 -402 -178q-506 -1 -506 630zM358 1698q0 68 68 67q66 0 66 -67q0 -66 -66 -66q-68 0 -68 66zM799 1698q0 68 67.5 67.5t67.5 -67.5 q0 -66 -67.5 -66t-67.5 66z" />
<glyph unicode="&#xdd;" horiz-adv-x="1136" d="M68 1430h63l438 -889l439 889h63l-473 -957v-473h-57v473zM471 1630l152 256h82l-170 -256h-64z" />
<glyph unicode="&#xde;" horiz-adv-x="1277" d="M195 0v1430h57v-312h461q463 0 463 -379t-463 -379h-461v-360h-57zM252 416h461q406 0 405.5 323.5t-405.5 323.5h-461v-647z" />
<glyph unicode="&#xdf;" horiz-adv-x="1007" d="M45 936v43h94v55q0 395 338 396q106 0 185 -76t79 -183q0 -113 -116 -219q172 -57 237 -192q53 -104 53 -287q0 -451 -370 -475v51q317 20 317 430q0 190 -61 293q-76 125 -258 141v48q70 20 110 83q35 57 35 127q0 84 -62.5 145.5t-148.5 61.5q-287 0 -287 -346v-1032 h-51v936h-94z" />
<glyph unicode="&#xe0;" horiz-adv-x="954" d="M92 266q0 129 94.5 203t231.5 74h153q139 0 201 65v117q0 100 -92 166q-80 57 -180 57q-229 0 -299 -166l-49 17q88 201 354 200q125 0 219 -73q100 -80 100 -195v-584l29 -145l-45 -12l-31 129q-162 -139 -342 -139q-152 0 -243 71q-101 78 -101 215zM147 266 q0 -117 93 -180q78 -55 196 -55q186 0 336 149v363q-94 -49 -174 -49h-180q-111 0 -185 -56q-86 -61 -86 -172zM332 1415h82l155 -258h-65z" />
<glyph unicode="&#xe1;" horiz-adv-x="954" d="M92 266q0 129 94.5 203t231.5 74h153q139 0 201 65v117q0 100 -92 166q-80 57 -180 57q-229 0 -299 -166l-49 17q88 201 354 200q125 0 219 -73q100 -80 100 -195v-584l29 -145l-45 -12l-31 129q-162 -139 -342 -139q-152 0 -243 71q-101 78 -101 215zM147 266 q0 -117 93 -180q78 -55 196 -55q186 0 336 149v363q-94 -49 -174 -49h-180q-111 0 -185 -56q-86 -61 -86 -172zM414 1157l155 258h82l-172 -258h-65z" />
<glyph unicode="&#xe2;" horiz-adv-x="954" d="M92 266q0 129 94.5 203t231.5 74h153q139 0 201 65v117q0 100 -92 166q-80 57 -180 57q-229 0 -299 -166l-49 17q88 201 354 200q125 0 219 -73q100 -80 100 -195v-584l29 -145l-45 -12l-31 129q-162 -139 -342 -139q-152 0 -243 71q-101 78 -101 215zM147 266 q0 -117 93 -180q78 -55 196 -55q186 0 336 149v363q-94 -49 -174 -49h-180q-111 0 -185 -56q-86 -61 -86 -172zM258 1116l203 299h76l204 -299h-65l-178 273l-176 -273h-64z" />
<glyph unicode="&#xe3;" horiz-adv-x="954" d="M92 266q0 129 94.5 203t231.5 74h153q139 0 201 65v117q0 100 -92 166q-80 57 -180 57q-229 0 -299 -166l-49 17q88 201 354 200q125 0 219 -73q100 -80 100 -195v-584l29 -145l-45 -12l-31 129q-162 -139 -342 -139q-152 0 -243 71q-101 78 -101 215zM147 266 q0 -117 93 -180q78 -55 196 -55q186 0 336 149v363q-94 -49 -174 -49h-180q-111 0 -185 -56q-86 -61 -86 -172zM174 1231q66 74 143 74q59 0 162 -46.5t156 -46.5q57 0 100 52l4 4l41 -33q-66 -74 -143 -74q-59 0 -161.5 46t-156.5 46q-57 0 -100 -51l-4 -4z" />
<glyph unicode="&#xe4;" horiz-adv-x="954" d="M92 266q0 129 94.5 203t231.5 74h153q139 0 201 65v117q0 100 -92 166q-80 57 -180 57q-229 0 -299 -166l-49 17q88 201 354 200q125 0 219 -73q100 -80 100 -195v-584l29 -145l-45 -12l-31 129q-162 -139 -342 -139q-152 0 -243 71q-101 78 -101 215zM147 266 q0 -117 93 -180q78 -55 196 -55q186 0 336 149v363q-94 -49 -174 -49h-180q-111 0 -185 -56q-86 -61 -86 -172zM182 1223q0 66 66 65q68 0 67 -65q0 -68 -67 -68q-66 0 -66 68zM623 1223q0 66 67 65q66 0 66 -65q0 -68 -66 -68q-67 0 -67 68z" />
<glyph unicode="&#xe5;" horiz-adv-x="954" d="M92 266q0 129 94.5 203t231.5 74h153q139 0 201 65v117q0 100 -92 166q-80 57 -180 57q-229 0 -299 -166l-49 17q88 201 354 200q125 0 219 -73q100 -80 100 -195v-584l29 -145l-45 -12l-31 129q-162 -139 -342 -139q-152 0 -243 71q-101 78 -101 215zM147 266 q0 -117 93 -180q78 -55 196 -55q186 0 336 149v363q-94 -49 -174 -49h-180q-111 0 -185 -56q-86 -61 -86 -172zM266 1348q0 90 67.5 154.5t162 64.5t162 -64.5t67.5 -154.5q0 -92 -67.5 -157t-162 -65t-162 65t-67.5 157zM319 1348q0 -72 52.5 -121t124.5 -49q74 0 125 49 t51 121q0 70 -51.5 119t-124.5 49q-72 0 -124.5 -49t-52.5 -119z" />
<glyph unicode="&#xe6;" horiz-adv-x="1593" d="M80 266q0 127 94 205q88 72 223 72h148q131 0 192 65v109q0 100 -88 166q-78 57 -174 57q-223 0 -289 -166l-49 17q86 201 344 200q207 0 307 -213q125 213 359 213q182 0 276 -129q86 -117 86 -313l-2 -62h-716q4 -455 376 -454q174 0 267 104l39 -33 q-106 -123 -306 -122q-244 0 -364 188q-180 -190 -389 -190q-145 0 -236 71q-98 78 -98 215zM133 266q0 -117 90 -180q78 -55 191 -55q182 0 366 188q-41 123 -43 326q-90 -51 -166 -51h-174q-109 0 -180 -56q-84 -61 -84 -172zM788 539h670q-6 401 -311 401 q-336 0 -359 -401z" />
<glyph unicode="&#xe7;" horiz-adv-x="946" d="M92 489q0 225 107 361q117 147 331 147q182 0 314 -133l-39 -33q-117 121 -275 121q-201 0 -297 -145q-82 -119 -81.5 -317.5t81.5 -317.5q96 -143 297 -143q158 0 275 121l39 -35q-123 -125 -287 -131l61 -146l-129 -239h-79l159 245l-59 140q-205 6 -315 153 q-103 135 -103 352z" />
<glyph unicode="&#xe8;" horiz-adv-x="976" d="M92 489q0 506 420 506q188 0 287 -129q86 -117 86 -313v-61h-735q6 -459 382 -459q180 0 275 104l41 -33q-111 -123 -316 -122q-440 -1 -440 507zM150 543h681q-8 401 -319 401q-335 0 -362 -401zM354 1415h84l154 -258h-64z" />
<glyph unicode="&#xe9;" horiz-adv-x="976" d="M92 489q0 506 420 506q188 0 287 -129q86 -117 86 -313v-61h-735q6 -459 382 -459q180 0 275 104l41 -33q-111 -123 -316 -122q-440 -1 -440 507zM150 543h681q-8 401 -319 401q-335 0 -362 -401zM471 1157l156 258h82l-172 -258h-66z" />
<glyph unicode="&#xea;" horiz-adv-x="976" d="M92 489q0 506 420 506q188 0 287 -129q86 -117 86 -313v-61h-735q6 -459 382 -459q180 0 275 104l41 -33q-111 -123 -316 -122q-440 -1 -440 507zM150 543h681q-8 401 -319 401q-335 0 -362 -401zM258 1116l203 299h76l204 -299h-65l-178 273l-176 -273h-64z" />
<glyph unicode="&#xeb;" horiz-adv-x="976" d="M92 489q0 506 420 506q188 0 287 -129q86 -117 86 -313v-61h-735q6 -459 382 -459q180 0 275 104l41 -33q-111 -123 -316 -122q-440 -1 -440 507zM150 543h681q-8 401 -319 401q-335 0 -362 -401zM182 1223q0 66 66 65q68 0 67 -65q0 -68 -67 -68q-66 0 -66 68zM623 1223 q0 66 67 65q66 0 66 -65q0 -68 -66 -68q-67 0 -67 68z" />
<glyph unicode="&#xec;" horiz-adv-x="405" d="M47 1415h92l172 -258h-71zM178 0v979h55v-979h-55z" />
<glyph unicode="&#xed;" horiz-adv-x="413" d="M158 1157l172 258h92l-193 -258h-71zM178 0v979h55v-979h-55z" />
<glyph unicode="&#xee;" horiz-adv-x="434" d="M-25 1116l203 299h76l205 -299h-68l-176 273l-176 -273h-64zM186 0v979h56v-979h-56z" />
<glyph unicode="&#xef;" horiz-adv-x="419" d="M-43 1223q0 66 66 65q68 0 67 -65q0 -68 -67 -68q-66 0 -66 68zM178 0v979h55v-979h-55zM330 1223q0 66 65 65q68 0 68 -65q0 -68 -68 -68q-65 0 -65 68z" />
<glyph unicode="&#xf0;" horiz-adv-x="1062" d="M123 477.5q0 495.5 409 495.5q96 0 240 -58l-139 304h-252v45h233l-125 272h50l123 -272h182v-45h-162l145 -304l54 -96q59 -111 59 -342q0 -496 -408 -495q-409 0 -409 495.5zM176 477q0 -444 354 -444q356 0 357 444q0 446 -355 447q-356 -1 -356 -447z" />
<glyph unicode="&#xf1;" horiz-adv-x="1009" d="M143 0v979h54v-168q119 184 319 184q391 0 391 -438v-557h-51v557q0 387 -340 387q-135 0 -227 -81t-92 -193v-670h-54zM219 1231q63 74 141 74q59 0 162 -46.5t156 -46.5q57 0 100 52l4 4l41 -33q-63 -74 -143 -74q-59 0 -161.5 46t-156.5 46q-57 0 -100 -51l-4 -4z" />
<glyph unicode="&#xf2;" d="M92 487q0 508 410 508q408 0 407 -508q0 -506 -407 -505q-410 -1 -410 505zM147 487q0 -205 64 -313q86 -141 289 -141q356 0 356 454q0 457 -354 457q-205 0 -291 -141q-64 -109 -64 -316zM344 1415h82l154 -258h-64z" />
<glyph unicode="&#xf3;" d="M92 487q0 508 410 508q408 0 407 -508q0 -506 -407 -505q-410 -1 -410 505zM147 487q0 -205 64 -313q86 -141 289 -141q356 0 356 454q0 457 -354 457q-205 0 -291 -141q-64 -109 -64 -316zM449 1157l155 258h82l-172 -258h-65z" />
<glyph unicode="&#xf4;" d="M92 487q0 508 410 508q408 0 407 -508q0 -506 -407 -505q-410 -1 -410 505zM147 487q0 -205 64 -313q86 -141 289 -141q356 0 356 454q0 457 -354 457q-205 0 -291 -141q-64 -109 -64 -316zM258 1116l203 299h76l204 -299h-65l-178 273l-176 -273h-64z" />
<glyph unicode="&#xf5;" d="M92 487q0 508 410 508q408 0 407 -508q0 -506 -407 -505q-410 -1 -410 505zM147 487q0 -455 353 -454q356 0 356 454q0 457 -354 457q-205 0 -291 -141q-64 -109 -64 -316zM209 1231q63 74 143 74q57 0 159.5 -46.5t156.5 -46.5q57 0 102 56l41 -33q-63 -74 -141 -74 q-59 0 -160.5 46t-155.5 46q-57 0 -104 -55z" />
<glyph unicode="&#xf6;" d="M92 487q0 508 410 508q408 0 407 -508q0 -506 -407 -505q-410 -1 -410 505zM147 487q0 -205 64 -313q86 -141 289 -141q356 0 356 454q0 457 -354 457q-205 0 -291 -141q-64 -109 -64 -316zM182 1223q0 66 66 65q68 0 67 -65q0 -68 -67 -68q-66 0 -66 68zM623 1223 q0 66 67 65q66 0 66 -65q0 -68 -66 -68q-67 0 -67 68z" />
<glyph unicode="&#xf7;" horiz-adv-x="1032" d="M113 532v58h807v-58h-807zM444 223q0 27 19.5 47.5t48.5 20.5t48.5 -20.5t19.5 -47.5q0 -29 -19.5 -49t-48.5 -20t-48.5 20t-19.5 49zM444 899q0 29 19.5 49.5t48.5 20.5t48.5 -20.5t19.5 -49.5q0 -27 -19.5 -47.5t-48.5 -20.5t-48.5 20.5t-19.5 47.5z" />
<glyph unicode="&#xf8;" d="M92 485q0 506 410 506q131 0 241 -63l31 53h47l-47 -78q135 -139 135 -418q0 -504 -407 -503q-135 0 -248 65l-29 -47h-45l43 74q-131 139 -131 411zM145 485q0 -229 105 -366l465 764q-100 57 -213 57q-357 0 -357 -455zM283 92q100 -59 217 -59q356 0 356 452 q0 236 -108 373z" />
<glyph unicode="&#xf9;" horiz-adv-x="1019" d="M123 428v551h53v-551q0 -188 70 -283q80 -111 268 -110q111 0 209 67q113 78 113 193v684h51v-979h-51v154q-129 -170 -322 -170q-391 0 -391 444zM352 1415h84l156 -258h-66z" />
<glyph unicode="&#xfa;" horiz-adv-x="1019" d="M123 428v551h53v-551q0 -188 70 -283q80 -111 268 -110q111 0 209 67q113 78 113 193v684h51v-979h-51v154q-129 -170 -322 -170q-391 0 -391 444zM475 1157l156 258h82l-172 -258h-66z" />
<glyph unicode="&#xfb;" horiz-adv-x="1019" d="M123 428v551h53v-551q0 -188 70 -283q80 -111 268 -110q111 0 209 67q113 78 113 193v684h51v-979h-51v154q-129 -170 -322 -170q-391 0 -391 444zM268 1116l203 299h76l205 -299h-66l-178 273l-176 -273h-64z" />
<glyph unicode="&#xfc;" horiz-adv-x="1019" d="M123 428v551h53v-551q0 -188 70 -283q80 -111 268 -110q111 0 209 67q113 78 113 193v684h51v-979h-51v154q-129 -170 -322 -170q-391 0 -391 444zM223 1223q0 66 66 65q68 0 67 -65q0 -68 -67 -68q-66 0 -66 68zM664 1223q0 66 67 65q66 0 66 -65q0 -68 -66 -68 q-67 0 -67 68z" />
<glyph unicode="&#xfd;" horiz-adv-x="897" d="M53 979h56l350 -913l350 913h55l-473 -1239q-73 -190 -254 -191h-4h-16v52h16h4q144 0 203 157l90 234zM371 1159l153 256h82l-172 -256h-63z" />
<glyph unicode="&#xfe;" horiz-adv-x="1040" d="M184 -451v1881h54v-617q143 166 319 166q391 0 391 -493.5t-389 -493.5q-186 0 -321 155v-598h-54zM238 328q0 -129 94 -207t225 -78q340 0 340 442q0 444 -340 445q-131 0 -225 -79t-94 -208v-315z" />
<glyph unicode="&#xff;" horiz-adv-x="927" d="M53 979h56l350 -913l350 913h55l-473 -1239q-73 -190 -254 -191h-4h-16v52h16h4q144 0 203 157l90 234zM182 1223q0 66 66 65q68 0 67 -65q0 -68 -67 -68q-66 0 -66 68zM623 1223q0 66 67 65q66 0 66 -65q0 -68 -66 -68q-67 0 -67 68z" />
<glyph unicode="&#x152;" horiz-adv-x="2060" d="M92 714.5q0 317.5 119 506.5q141 227 430 227q307 0 494 -336v318h813v-58h-756v-598h653v-57h-653v-660h756v-57l-822 -6q8 -18 9 323q-186 -336 -494 -335q-289 0 -430 227q-119 188 -119 505.5zM147 714.5q0 -284.5 97 -454.5q125 -221 397 -221q274 0 397 221 q96 170 96.5 454.5t-96.5 454.5q-123 221 -397 222q-272 0 -397 -222q-97 -170 -97 -454.5z" />
<glyph unicode="&#x153;" horiz-adv-x="1691" d="M92 485q0 506 397 506q258 0 373 -262q121 262 377 262q182 0 277 -129q86 -117 83 -313v-62h-712q6 -455 373 -454q178 0 276 106l41 -33q-113 -125 -317 -124q-276 0 -398 260q-115 -260 -373 -260q-397 -1 -397 503zM143 485q0 -453 346.5 -452.5t346.5 452.5 q0 455 -346.5 455t-346.5 -455zM889 539h659q-8 401 -309 401q-325 0 -350 -401z" />
<glyph unicode="&#x178;" horiz-adv-x="1136" d="M68 1430h63l438 -889l439 889h63l-473 -957v-473h-57v473zM283 1698q0 68 67 67q66 0 66 -67q0 -66 -66 -66q-67 0 -67 66zM725 1698q0 68 66 67q68 0 67 -67q0 -66 -67 -66q-66 0 -66 66z" />
<glyph unicode="&#x2c6;" horiz-adv-x="1019" d="M264 1092l203 299h76l205 -299h-66l-178 272l-176 -272h-64z" />
<glyph unicode="&#x2dc;" horiz-adv-x="1013" d="M195 1206q66 98 145 99q61 0 164.5 -59.5t157.5 -59.5q59 0 106 71l41 -43q-66 -96 -145 -96q-61 0 -165 59.5t-157 59.5q-59 0 -106 -72z" />
<glyph unicode="&#x2013;" horiz-adv-x="1032" d="M113 532v58h807v-58h-807z" />
<glyph unicode="&#x2014;" horiz-adv-x="1642" d="M113 532v58h1417v-58h-1417z" />
<glyph unicode="&#x2018;" horiz-adv-x="464" d="M176 1174q0 12 14 100l127 207l-12 -297q-2 -66 -65 -66q-25 0 -44.5 18t-19.5 38z" />
<glyph unicode="&#x2019;" horiz-adv-x="464" d="M147 1180l13 295q4 66 65 65q25 0 45.5 -16.5t20.5 -38.5q0 -10 -17 -99z" />
<glyph unicode="&#x201a;" horiz-adv-x="464" d="M166 -182l12 297q2 66 64 65q29 0 48 -19.5t17 -39.5l-16 -96z" />
<glyph unicode="&#x201c;" horiz-adv-x="727" d="M143 1174q0 12 17 100l125 207l-13 -297q-2 -66 -63 -66q-27 0 -46.5 18t-19.5 38zM438 1174q0 12 15 100l127 207l-13 -297q-4 -66 -65 -66q-25 0 -44.5 18t-19.5 38z" />
<glyph unicode="&#x201d;" horiz-adv-x="727" d="M147 1180l13 295q2 66 63 65q27 0 46.5 -16.5t19.5 -38.5q0 -10 -17 -99zM440 1180l13 295q4 66 65 65q27 0 46.5 -16.5t19.5 -38.5q0 -10 -17 -99z" />
<glyph unicode="&#x201e;" horiz-adv-x="727" d="M147 -182l13 297q2 66 63 65q31 0 50.5 -19.5t15.5 -39.5l-17 -96zM440 -182l13 297q4 66 65 65q29 0 48.5 -19.5t15.5 -39.5l-15 -96z" />
<glyph unicode="&#x2022;" horiz-adv-x="868" d="M133 692q0 125 88 213t213 88t213 -88t88 -213t-88 -213t-213 -88t-213 88t-88 213z" />
<glyph unicode="&#x2026;" horiz-adv-x="987" d="M154 51q0 27 19.5 47.5t48 20.5t48 -20.5t19.5 -47.5q0 -29 -19.5 -48t-48 -19t-48 19t-19.5 48zM426 51q0 27 19.5 47.5t48 20.5t48 -20.5t19.5 -47.5q0 -29 -19.5 -48t-48 -19t-48 19t-19.5 48zM698 51q0 27 19.5 47.5t48.5 20.5t48.5 -20.5t19.5 -47.5 q0 -29 -19.5 -48t-48.5 -19t-48.5 19t-19.5 48z" />
<glyph unicode="&#x2039;" horiz-adv-x="612" d="M92 487v82l410 371q-2 -33 -2 -74l-373 -338l373 -338v-73z" />
<glyph unicode="&#x203a;" horiz-adv-x="612" d="M92 940l410 -371v-82l-408 -370v73l371 338l-371 338q0 41 -2 74z" />
<glyph unicode="&#x2122;" horiz-adv-x="989" d="M86 1389v41h326v-41h-144v-390h-39v390h-143zM475 999v431h43l154 -392l153 392h45v-431h-41v349l-133 -349h-49l-133 349v-349h-39z" />
<glyph unicode="&#xe000;" horiz-adv-x="980" d="M0 980h980v-980h-980v980z" />
<glyph unicode="&#xfb01;" horiz-adv-x="999" d="M102 928v51h115v55q0 178 59 262q86 123 269 134v-52q-154 -8 -223 -108q-53 -76 -54 -238v-53h240v-51h-240v-928h-51v928h-115zM727 1364q0 66 66 66q68 0 67 -66q0 -68 -67 -68q-66 0 -66 68zM764 0v979h55v-979h-55z" />
<glyph unicode="&#xfb02;" horiz-adv-x="997" d="M102 928v51h115v55q0 178 59 262q86 123 269 134v-52q-154 -8 -223 -108q-53 -76 -54 -238v-53h240v-51h-240v-928h-51v928h-115zM729 211v1219h53v-1219q0 -143 144 -158v-51q-197 14 -197 209z" />
<glyph unicode="&#xfb03;" horiz-adv-x="1585" d="M102 928v51h115v55q0 178 59 262q86 123 269 134v-52q-154 -8 -223 -108q-53 -76 -54 -238v-53h240v-51h-240v-928h-51v928h-115zM688 928v51h115v55q0 178 59 262q86 123 268 134v-52q-154 -8 -223 -108q-53 -76 -53 -238v-53h240v-51h-240v-928h-51v928h-115z M1313 1364q0 66 65 66q68 0 68 -66q0 -68 -68 -68q-65 0 -65 68zM1350 0v979h55v-979h-55z" />
<glyph unicode="&#xfb04;" horiz-adv-x="1583" d="M102 928v51h115v55q0 178 59 262q86 123 269 134v-52q-154 -8 -223 -108q-53 -76 -54 -238v-53h240v-51h-240v-928h-51v928h-115zM688 928v51h115v55q0 178 59 262q86 123 268 134v-52q-154 -8 -223 -108q-53 -76 -53 -238v-53h240v-51h-240v-928h-51v928h-115zM1315 211 v1219h53v-1219q0 -143 143 -158v-51q-196 14 -196 209z" />
</font>
</defs>
</svg>
